  0
SECTION
  2
HEADER
  9
$ACADVER
  1
AC1015
  9
$ACADMAINTVER
 70
     6
  9
$DWGCODEPAGE
  3
ANSI_1252
  9
$INSBASE
 10
0.0
 20
0.0
 30
0.0
  9
$EXTMIN
 10
0.0
 20
0.0
 30
0.0
  9
$EXTMAX
 10
457.2
 20
304.8
 30
0.0
  9
$LIMMIN
 10
0.0
 20
0.0
  9
$LIMMAX
 10
457.2
 20
304.8
  9
$ORTHOMODE
 70
     0
  9
$REGENMODE
 70
     1
  9
$FILLMODE
 70
     1
  9
$QTEXTMODE
 70
     0
  9
$MIRRTEXT
 70
     1
  9
$LTSCALE
 40
1.0
  9
$ATTMODE
 70
     1
  9
$TEXTSIZE
 40
3.175
  9
$TRACEWID
 40
1.0
  9
$TEXTSTYLE
  7
Standard
  9
$CLAYER
  8
0
  9
$CELTYPE
  6
ByLayer
  9
$CECOLOR
 62
   256
  9
$CELTSCALE
 40
1.0
  9
$DISPSILH
 70
     0
  9
$DIMSCALE
 40
1.0
  9
$DIMASZ
 40
3.302
  9
$DIMEXO
 40
1.27
  9
$DIMDLI
 40
3.75
  9
$DIMRND
 40
0.0
  9
$DIMDLE
 40
0.0
  9
$DIMEXE
 40
3.175
  9
$DIMTP
 40
0.0
  9
$DIMTM
 40
0.0
  9
$DIMTXT
 40
3.175
  9
$DIMCEN
 40
2.5
  9
$DIMTSZ
 40
0.0
  9
$DIMTOL
 70
     0
  9
$DIMLIM
 70
     0
  9
$DIMTIH
 70
     1
  9
$DIMTOH
 70
     1
  9
$DIMSE1
 70
     0
  9
$DIMSE2
 70
     0
  9
$DIMTAD
 70
     0
  9
$DIMZIN
 70
     1
  9
$DIMBLK
  1

  9
$DIMASO
 70
     1
  9
$DIMSHO
 70
     1
  9
$DIMPOST
  1

  9
$DIMAPOST
  1

  9
$DIMALT
 70
     0
  9
$DIMALTD
 70
     3
  9
$DIMALTF
 40
0.0393700787
  9
$DIMLFAC
 40
1.0
  9
$DIMTOFL
 70
     1
  9
$DIMTVP
 40
0.0
  9
$DIMTIX
 70
     0
  9
$DIMSOXD
 70
     0
  9
$DIMSAH
 70
     0
  9
$DIMBLK1
  1

  9
$DIMBLK2
  1

  9
$DIMSTYLE
  2
ISO-25
  9
$DIMCLRD
 70
     0
  9
$DIMCLRE
 70
     0
  9
$DIMCLRT
 70
     0
  9
$DIMTFAC
 40
1.0
  9
$DIMGAP
 40
1.524
  9
$DIMJUST
 70
     0
  9
$DIMSD1
 70
     0
  9
$DIMSD2
 70
     0
  9
$DIMTOLJ
 70
     0
  9
$DIMTZIN
 70
     1
  9
$DIMALTZ
 70
     0
  9
$DIMALTTZ
 70
     0
  9
$DIMUPT
 70
     0
  9
$DIMDEC
 70
     2
  9
$DIMTDEC
 70
     2
  9
$DIMALTU
 70
     2
  9
$DIMALTTD
 70
     3
  9
$DIMTXSTY
  7
Standard
  9
$DIMAUNIT
 70
     0
  9
$DIMADEC
 70
     2
  9
$DIMALTRND
 40
0.0
  9
$DIMAZIN
 70
     0
  9
$DIMDSEP
 70
    44
  9
$DIMATFIT
 70
     3
  9
$DIMFRAC
 70
     0
  9
$DIMLDRBLK
  1

  9
$DIMLUNIT
 70
     2
  9
$DIMLWD
 70
    -2
  9
$DIMLWE
 70
    -2
  9
$DIMTMOVE
 70
     0
  9
$LUNITS
 70
     2
  9
$LUPREC
 70
     2
  9
$SKETCHINC
 40
1.0
  9
$FILLETRAD
 40
10.0
  9
$AUNITS
 70
     0
  9
$AUPREC
 70
     2
  9
$MENU
  1
.
  9
$ELEVATION
 40
0.0
  9
$PELEVATION
 40
0.0
  9
$THICKNESS
 40
0.0
  9
$LIMCHECK
 70
     0
  9
$CHAMFERA
 40
0.0
  9
$CHAMFERB
 40
0.0
  9
$CHAMFERC
 40
0.0
  9
$CHAMFERD
 40
0.0
  9
$SKPOLY
 70
     0
  9
$TDCREATE
 40
2460446.612449711
  9
$TDUCREATE
 40
2460446.779116377
  9
$TDUPDATE
 40
2460446.612450359
  9
$TDUUPDATE
 40
2460446.779117025
  9
$TDINDWG
 40
0.0000000116
  9
$TDUSRTIMER
 40
0.0000000116
  9
$USRTIMER
 70
     1
  9
$ANGBASE
 50
0.0
  9
$ANGDIR
 70
     0
  9
$PDMODE
 70
     0
  9
$PDSIZE
 40
-1.0
  9
$PLINEWID
 40
0.0
  9
$SPLFRAME
 70
     0
  9
$SPLINETYPE
 70
     6
  9
$SPLINESEGS
 70
     8
  9
$HANDSEED
  5
2E9
  9
$SURFTAB1
 70
     6
  9
$SURFTAB2
 70
     6
  9
$SURFTYPE
 70
     6
  9
$SURFU
 70
     6
  9
$SURFV
 70
     6
  9
$UCSBASE
  2

  9
$UCSNAME
  2

  9
$UCSORG
 10
0.0
 20
0.0
 30
0.0
  9
$UCSXDIR
 10
1.0
 20
0.0
 30
0.0
  9
$UCSYDIR
 10
0.0
 20
1.0
 30
0.0
  9
$UCSORTHOREF
  2

  9
$UCSORTHOVIEW
 70
     0
  9
$UCSORGTOP
 10
0.0
 20
0.0
 30
0.0
  9
$UCSORGBOTTOM
 10
0.0
 20
0.0
 30
0.0
  9
$UCSORGLEFT
 10
0.0
 20
0.0
 30
0.0
  9
$UCSORGRIGHT
 10
0.0
 20
0.0
 30
0.0
  9
$UCSORGFRONT
 10
0.0
 20
0.0
 30
0.0
  9
$UCSORGBACK
 10
0.0
 20
0.0
 30
0.0
  9
$PUCSBASE
  2

  9
$PUCSNAME
  2

  9
$PUCSORG
 10
0.0
 20
0.0
 30
0.0
  9
$PUCSXDIR
 10
1.0
 20
0.0
 30
0.0
  9
$PUCSYDIR
 10
0.0
 20
1.0
 30
0.0
  9
$PUCSORTHOREF
  2

  9
$PUCSORTHOVIEW
 70
     0
  9
$PUCSORGTOP
 10
0.0
 20
0.0
 30
0.0
  9
$PUCSORGBOTTOM
 10
0.0
 20
0.0
 30
0.0
  9
$PUCSORGLEFT
 10
0.0
 20
0.0
 30
0.0
  9
$PUCSORGRIGHT
 10
0.0
 20
0.0
 30
0.0
  9
$PUCSORGFRONT
 10
0.0
 20
0.0
 30
0.0
  9
$PUCSORGBACK
 10
0.0
 20
0.0
 30
0.0
  9
$USERI1
 70
     0
  9
$USERI2
 70
     0
  9
$USERI3
 70
     0
  9
$USERI4
 70
     0
  9
$USERI5
 70
     0
  9
$USERR1
 40
0.0
  9
$USERR2
 40
0.0
  9
$USERR3
 40
0.0
  9
$USERR4
 40
0.0
  9
$USERR5
 40
0.0
  9
$WORLDVIEW
 70
     1
  9
$SHADEDGE
 70
     3
  9
$SHADEDIF
 70
    70
  9
$TILEMODE
 70
     1
  9
$MAXACTVP
 70
    64
  9
$PINSBASE
 10
0.0
 20
0.0
 30
0.0
  9
$PLIMCHECK
 70
     0
  9
$PEXTMIN
 10
1.0000000000E+20
 20
1.0000000000E+20
 30
1.0000000000E+20
  9
$PEXTMAX
 10
-1.0000000000E+20
 20
-1.0000000000E+20
 30
-1.0000000000E+20
  9
$PLIMMIN
 10
0.0
 20
0.0
  9
$PLIMMAX
 10
420.0
 20
297.0
  9
$UNITMODE
 70
     0
  9
$VISRETAIN
 70
     1
  9
$PLINEGEN
 70
     0
  9
$PSLTSCALE
 70
     1
  9
$TREEDEPTH
 70
  3020
  9
$CMLSTYLE
  2
Standard
  9
$CMLJUST
 70
     0
  9
$CMLSCALE
 40
20.0
  9
$PROXYGRAPHICS
 70
     1
  9
$MEASUREMENT
 70
     1
  9
$CELWEIGHT
370
    -1
  9
$ENDCAPS
280
     0
  9
$JOINSTYLE
280
     0
  9
$LWDISPLAY
290
     1
  9
$INSUNITS
 70
     4
  9
$HYPERLINKBASE
  1

  9
$STYLESHEET
  1

  9
$XEDIT
290
     1
  9
$CEPSNTYPE
380
     0
  9
$PSTYLEMODE
290
     1
  9
$FINGERPRINTGUID
  2
{0955b056-4194-466c-b1df-3d2dd70bd5c3}
  9
$VERSIONGUID
  2
{FAEB1C32-E019-11D5-929B-00C0DF256EC4}
  9
$EXTNAMES
290
     1
  9
$PSVPSCALE
 40
0.0
  9
$OLESTARTUP
290
     0
  0
ENDSEC
  0
SECTION
  2
CLASSES
  0
CLASS
  1
ACDBDICTIONARYWDFLT
  2
AcDbDictionaryWithDefault
  3
ObjectDBX Classes
 90
        0
280
     0
281
     0
  0
CLASS
  1
VISUALSTYLE
  2
AcDbVisualStyle
  3
ObjectDBX Classes
 90
     4095
280
     0
281
     0
  0
CLASS
  1
MATERIAL
  2
AcDbMaterial
  3
ObjectDBX Classes
 90
     1153
280
     0
281
     0
  0
CLASS
  1
SCALE
  2
AcDbScale
  3
ObjectDBX Classes
 90
     1153
280
     0
281
     0
  0
CLASS
  1
TABLESTYLE
  2
AcDbTableStyle
  3
ObjectDBX Classes
 90
     4095
280
     0
281
     0
  0
CLASS
  1
MLEADERSTYLE
  2
AcDbMLeaderStyle
  3
ACDB_MLEADERSTYLE_CLASS
 90
     4095
280
     0
281
     0
  0
CLASS
  1
SUN
  2
AcDbSun
  3
SCENEOE
 90
     1153
280
     0
281
     0
  0
CLASS
  1
ACDBPLACEHOLDER
  2
AcDbPlaceHolder
  3
ObjectDBX Classes
 90
        0
280
     0
281
     0
  0
CLASS
  1
LAYOUT
  2
AcDbLayout
  3
ObjectDBX Classes
 90
        0
280
     0
281
     0
  0
ENDSEC
  0
SECTION
  2
TABLES
  0
TABLE
  2
VPORT
  5
8
330
0
100
AcDbSymbolTable
 70
     1
  0
VPORT
  5
29
330
8
100
AcDbSymbolTableRecord
100
AcDbViewportTableRecord
  2
*Active
 70
     0
 10
0.0
 20
0.0
 11
1.0
 21
1.0
 12
228.6
 22
152.4
 13
0.0
 23
0.0
 14
10.0
 24
10.0
 15
10.0
 25
10.0
 16
0.0
 26
0.0
 36
1.0
 17
0.0
 27
0.0
 37
0.0
 40
304.8
 41
1.5
 42
50.0
 43
0.0
 44
0.0
 50
0.0
 51
0.0
 71
     0
 72
  2000
 73
     1
 74
     3
 75
     0
 76
     0
 77
     0
 78
     0
281
     0
 65
     1
110
0.0
120
0.0
130
0.0
111
1.0
121
0.0
131
0.0
112
0.0
122
1.0
132
0.0
 79
     0
146
0.0
  0
ENDTAB
  0
TABLE
  2
LTYPE
  5
5
330
0
100
AcDbSymbolTable
 70
     6
  0
LTYPE
  5
14
330
5
100
AcDbSymbolTableRecord
100
AcDbLinetypeTableRecord
  2
ByBlock
 70
     0
  3

 72
    65
 73
     0
 40
0.0
  0
LTYPE
  5
15
330
5
100
AcDbSymbolTableRecord
100
AcDbLinetypeTableRecord
  2
ByLayer
 70
     0
  3

 72
    65
 73
     0
 40
0.0
  0
LTYPE
  5
16
330
5
100
AcDbSymbolTableRecord
100
AcDbLinetypeTableRecord
  2
Continuous
 70
     0
  3
Solid line
 72
    65
 73
     0
 40
0.0
  0
LTYPE
  5
6E
330
5
100
AcDbSymbolTableRecord
100
AcDbLinetypeTableRecord
  2
HIDDEN
 70
     0
  3
Hidden __ __ __ __ __ __ __ __ __ __ __ __ __ __
 72
    65
 73
     2
 40
1.905
 49
1.27
 74
     0
 49
-0.635
 74
     0
  0
LTYPE
  5
6F
330
5
100
AcDbSymbolTableRecord
100
AcDbLinetypeTableRecord
  2
PHANTOM
 70
     0
  3
Phantom ______  __  __  ______  __  __  ______
 72
    65
 73
     6
 40
12.7
 49
6.35
 74
     0
 49
-1.27
 74
     0
 49
1.27
 74
     0
 49
-1.27
 74
     0
 49
1.27
 74
     0
 49
-1.27
 74
     0
  0
LTYPE
  5
70
330
5
100
AcDbSymbolTableRecord
100
AcDbLinetypeTableRecord
  2
CENTER
 70
     0
  3
Center ____ _ ____ _ ____ _ ____ _ ____ _ ____
 72
    65
 73
     4
 40
10.16
 49
6.35
 74
     0
 49
-1.27
 74
     0
 49
1.27
 74
     0
 49
-1.27
 74
     0
  0
LTYPE
  5
71
330
5
100
AcDbSymbolTableRecord
100
AcDbLinetypeTableRecord
  2
CENTERX2
 70
     0
  3
Center (2x) ________  __  ________  __  _____
 72
    65
 73
     4
 40
20.32
 49
12.7
 74
     0
 49
-2.54
 74
     0
 49
2.54
 74
     0
 49
-2.54
 74
     0
  0
LTYPE
  5
72
330
5
100
AcDbSymbolTableRecord
100
AcDbLinetypeTableRecord
  2
DOT2
 70
     0
  3
Dot (.5x) ........................................
 72
    65
 73
     2
 40
0.635
 49
0.0
 74
     0
 49
-0.635
 74
     0
  0
ENDTAB
  0
TABLE
  2
LAYER
  5
2
330
0
100
AcDbSymbolTable
 70
     1
  0
LAYER
  5
10
330
2
100
AcDbSymbolTableRecord
100
AcDbLayerTableRecord
  2
0
 70
     0
 62
     7
  6
Continuous
370
    -3
390
F
  0
ENDTAB
  0
TABLE
  2
STYLE
  5
3
330
0
100
AcDbSymbolTable
 70
     1
  0
STYLE
  5
11
330
3
100
AcDbSymbolTableRecord
100
AcDbTextStyleTableRecord
  2
Standard
 70
     0
 40
0.0
 41
1.0
 50
0.0
 71
     0
 42
3.175
  3
txt
  4

  0
ENDTAB
  0
TABLE
  2
VIEW
  5
6
330
0
100
AcDbSymbolTable
 70
     0
  0
ENDTAB
  0
TABLE
  2
UCS
  5
7
330
0
100
AcDbSymbolTable
 70
     0
  0
ENDTAB
  0
TABLE
  2
APPID
  5
9
330
0
100
AcDbSymbolTable
 70
     1
  0
APPID
  5
12
330
9
100
AcDbSymbolTableRecord
100
AcDbRegAppTableRecord
  2
ACAD
 70
     0
  0
ENDTAB
  0
TABLE
  2
DIMSTYLE
  5
A
330
0
100
AcDbSymbolTable
 70
     1
100
AcDbDimStyleTable
  0
DIMSTYLE
105
27
330
A
100
AcDbSymbolTableRecord
100
AcDbDimStyleTableRecord
  2
ISO-25
 70
     0
 41
2.5
 42
0.625
 43
3.75
 44
1.25
 73
     0
 74
     0
 77
     1
 78
     8
140
2.5
141
2.5
143
0.0393700787
147
0.625
171
     3
172
     1
178
     0
271
     2
272
     2
274
     3
278
    44
283
     0
284
     8
340
11
  0
ENDTAB
  0
TABLE
  2
BLOCK_RECORD
  5
1
330
0
100
AcDbSymbolTable
 70
     1
  0
BLOCK_RECORD
  5
1F
330
1
100
AcDbSymbolTableRecord
100
AcDbBlockTableRecord
  2
*Model_Space
340
22
  0
BLOCK_RECORD
  5
1B
330
1
100
AcDbSymbolTableRecord
100
AcDbBlockTableRecord
  2
*Paper_Space
340
1E
  0
BLOCK_RECORD
  5
23
330
1
100
AcDbSymbolTableRecord
100
AcDbBlockTableRecord
  2
*Paper_Space0
340
26
  0
ENDTAB
  0
ENDSEC
  0
SECTION
  2
BLOCKS
  0
BLOCK
  5
20
330
1F
100
AcDbEntity
  8
0
100
AcDbBlockBegin
  2
*Model_Space
 70
     0
 10
0.0
 20
0.0
 30
0.0
  3
*Model_Space
  1

  0
ENDBLK
  5
21
330
1F
100
AcDbEntity
  8
0
100
AcDbBlockEnd
  0
BLOCK
  5
1C
330
1B
100
AcDbEntity
 67
     1
  8
0
100
AcDbBlockBegin
  2
*Paper_Space
 70
     0
 10
0.0
 20
0.0
 30
0.0
  3
*Paper_Space
  1

  0
ENDBLK
  5
1D
330
1B
100
AcDbEntity
 67
     1
  8
0
100
AcDbBlockEnd
  0
BLOCK
  5
24
330
23
100
AcDbEntity
  8
0
100
AcDbBlockBegin
  2
*Paper_Space0
 70
     0
 10
0.0
 20
0.0
 30
0.0
  3
*Paper_Space0
  1

  0
ENDBLK
  5
25
330
23
100
AcDbEntity
  8
0
100
AcDbBlockEnd
  0
ENDSEC
  0
SECTION
  2
ENTITIES
  0
LINE
  5
73
330
1F
100
AcDbEntity
  8
0
  6
Continuous
 62
     7
370
    18
100
AcDbLine
 10
230.3216559086
 20
171.8951021561
 30
0.0
 11
233.3216559086
 21
171.8951021561
 31
0.0
  0
LINE
  5
74
330
1F
100
AcDbEntity
  8
0
  6
Continuous
 62
     7
370
    18
100
AcDbLine
 10
181.8953308005
 20
297.3584774024
 30
0.0
 11
448.5953308005
 21
297.3584774024
 31
0.0
  0
LINE
  5
75
330
1F
100
AcDbEntity
  8
0
  6
Continuous
 62
     7
370
    18
100
AcDbLine
 10
181.8953308005
 20
297.3584774024
 30
0.0
 11
181.8953308005
 21
132.2584774024
 31
0.0
  0
LINE
  5
76
330
1F
100
AcDbEntity
  8
0
  6
Continuous
 62
     7
370
    18
100
AcDbLine
 10
181.8953308005
 20
132.2584774024
 30
0.0
 11
448.5953308005
 21
132.2584774024
 31
0.0
  0
LINE
  5
77
330
1F
100
AcDbEntity
  8
0
  6
Continuous
 62
     7
370
    18
100
AcDbLine
 10
448.5953308005
 20
297.3584774024
 30
0.0
 11
448.5953308005
 21
132.2584774024
 31
0.0
  0
LINE
  5
78
330
1F
100
AcDbEntity
  8
0
  6
Continuous
 62
     7
370
    18
100
AcDbLine
 10
230.3216559086
 20
171.8951021561
 30
0.0
 11
230.3216559086
 21
151.8951021561
 31
0.0
  0
LINE
  5
79
330
1F
100
AcDbEntity
  8
0
  6
Continuous
 62
     7
370
    18
100
AcDbLine
 10
230.3216559086
 20
151.8951021561
 30
0.0
 11
233.3216559086
 21
151.8951021561
 31
0.0
  0
LINE
  5
7A
330
1F
100
AcDbEntity
  8
0
  6
Continuous
 62
     7
370
    18
100
AcDbLine
 10
233.3216559086
 20
171.8951021561
 30
0.0
 11
233.3216559086
 21
151.8951021561
 31
0.0
  0
LINE
  5
7B
330
1F
100
AcDbEntity
  8
0
  6
Continuous
 62
     7
370
    18
100
AcDbLine
 10
274.6631077173
 20
234.2314867144
 30
0.0
 11
274.6631077173
 21
229.2314867144
 31
0.0
  0
LINE
  5
7C
330
1F
100
AcDbEntity
  8
0
  6
Continuous
 62
     7
370
    18
100
AcDbLine
 10
269.6631077173
 20
234.2314867144
 30
0.0
 11
274.6631077173
 21
234.2314867144
 31
0.0
  0
LINE
  5
7D
330
1F
100
AcDbEntity
  8
0
  6
Continuous
 62
     7
370
    18
100
AcDbLine
 10
269.6631077173
 20
229.2314867144
 30
0.0
 11
274.6631077173
 21
229.2314867144
 31
0.0
  0
LINE
  5
7E
330
1F
100
AcDbEntity
  8
0
  6
Continuous
 62
     7
370
    18
100
AcDbLine
 10
269.6631077173
 20
234.2314867144
 30
0.0
 11
269.6631077173
 21
229.2314867144
 31
0.0
  0
LINE
  5
7F
330
1F
100
AcDbEntity
  8
0
  6
Continuous
 62
     7
370
    18
100
AcDbLine
 10
274.6631077173
 20
224.2314867144
 30
0.0
 11
274.6631077173
 21
219.2314867144
 31
0.0
  0
LINE
  5
80
330
1F
100
AcDbEntity
  8
0
  6
Continuous
 62
     7
370
    18
100
AcDbLine
 10
269.6631077173
 20
224.2314867144
 30
0.0
 11
274.6631077173
 21
224.2314867144
 31
0.0
  0
LINE
  5
81
330
1F
100
AcDbEntity
  8
0
  6
Continuous
 62
     7
370
    18
100
AcDbLine
 10
269.6631077173
 20
219.2314867144
 30
0.0
 11
274.6631077173
 21
219.2314867144
 31
0.0
  0
LINE
  5
82
330
1F
100
AcDbEntity
  8
0
  6
Continuous
 62
     7
370
    18
100
AcDbLine
 10
269.6631077173
 20
224.2314867144
 30
0.0
 11
269.6631077173
 21
219.2314867144
 31
0.0
  0
LINE
  5
83
330
1F
100
AcDbEntity
  8
0
  6
Continuous
 62
     7
370
    18
100
AcDbLine
 10
274.6631077173
 20
214.2314867144
 30
0.0
 11
274.6631077173
 21
209.2314867144
 31
0.0
  0
LINE
  5
84
330
1F
100
AcDbEntity
  8
0
  6
Continuous
 62
     7
370
    18
100
AcDbLine
 10
269.6631077173
 20
214.2314867144
 30
0.0
 11
274.6631077173
 21
214.2314867144
 31
0.0
  0
LINE
  5
85
330
1F
100
AcDbEntity
  8
0
  6
Continuous
 62
     7
370
    18
100
AcDbLine
 10
269.6631077173
 20
209.2314867144
 30
0.0
 11
274.6631077173
 21
209.2314867144
 31
0.0
  0
LINE
  5
86
330
1F
100
AcDbEntity
  8
0
  6
Continuous
 62
     7
370
    18
100
AcDbLine
 10
269.6631077173
 20
214.2314867144
 30
0.0
 11
269.6631077173
 21
209.2314867144
 31
0.0
  0
LINE
  5
87
330
1F
100
AcDbEntity
  8
0
  6
Continuous
 62
     7
370
    18
100
AcDbLine
 10
400.3216559086
 20
151.8951021561
 30
0.0
 11
397.3216559086
 21
151.8951021561
 31
0.0
  0
LINE
  5
88
330
1F
100
AcDbEntity
  8
0
  6
Continuous
 62
     7
370
    18
100
AcDbLine
 10
274.6631077173
 20
204.2314867144
 30
0.0
 11
274.6631077173
 21
199.2314867144
 31
0.0
  0
LINE
  5
89
330
1F
100
AcDbEntity
  8
0
  6
Continuous
 62
     7
370
    18
100
AcDbLine
 10
269.6631077173
 20
204.2314867144
 30
0.0
 11
274.6631077173
 21
204.2314867144
 31
0.0
  0
LINE
  5
8A
330
1F
100
AcDbEntity
  8
0
  6
Continuous
 62
     7
370
    18
100
AcDbLine
 10
269.6631077173
 20
199.2314867144
 30
0.0
 11
274.6631077173
 21
199.2314867144
 31
0.0
  0
LINE
  5
8B
330
1F
100
AcDbEntity
  8
0
  6
Continuous
 62
     7
370
    18
100
AcDbLine
 10
269.6631077173
 20
204.2314867144
 30
0.0
 11
269.6631077173
 21
199.2314867144
 31
0.0
  0
LINE
  5
8C
330
1F
100
AcDbEntity
  8
0
  6
Continuous
 62
     7
370
    18
100
AcDbLine
 10
274.6631077173
 20
194.2314867144
 30
0.0
 11
274.6631077173
 21
189.2314867144
 31
0.0
  0
LINE
  5
8D
330
1F
100
AcDbEntity
  8
0
  6
Continuous
 62
     7
370
    18
100
AcDbLine
 10
269.6631077173
 20
194.2314867144
 30
0.0
 11
274.6631077173
 21
194.2314867144
 31
0.0
  0
LINE
  5
8E
330
1F
100
AcDbEntity
  8
0
  6
Continuous
 62
     7
370
    18
100
AcDbLine
 10
269.6631077173
 20
189.2314867144
 30
0.0
 11
274.6631077173
 21
189.2314867144
 31
0.0
  0
LINE
  5
8F
330
1F
100
AcDbEntity
  8
0
  6
Continuous
 62
     7
370
    18
100
AcDbLine
 10
269.6631077173
 20
194.2314867144
 30
0.0
 11
269.6631077173
 21
189.2314867144
 31
0.0
  0
LINE
  5
90
330
1F
100
AcDbEntity
  8
0
  6
Continuous
 62
     7
370
    18
100
AcDbLine
 10
224.6631077173
 20
244.2314867144
 30
0.0
 11
224.6631077173
 21
239.2314867144
 31
0.0
  0
LINE
  5
91
330
1F
100
AcDbEntity
  8
0
  6
Continuous
 62
     7
370
    18
100
AcDbLine
 10
219.6631077173
 20
244.2314867144
 30
0.0
 11
224.6631077173
 21
244.2314867144
 31
0.0
  0
LINE
  5
92
330
1F
100
AcDbEntity
  8
0
  6
Continuous
 62
     7
370
    18
100
AcDbLine
 10
219.6631077173
 20
239.2314867144
 30
0.0
 11
224.6631077173
 21
239.2314867144
 31
0.0
  0
LINE
  5
93
330
1F
100
AcDbEntity
  8
0
  6
Continuous
 62
     7
370
    18
100
AcDbLine
 10
219.6631077173
 20
244.2314867144
 30
0.0
 11
219.6631077173
 21
239.2314867144
 31
0.0
  0
LINE
  5
94
330
1F
100
AcDbEntity
  8
0
  6
Continuous
 62
     7
370
    18
100
AcDbLine
 10
234.6631077173
 20
244.2314867144
 30
0.0
 11
234.6631077173
 21
239.2314867144
 31
0.0
  0
LINE
  5
95
330
1F
100
AcDbEntity
  8
0
  6
Continuous
 62
     7
370
    18
100
AcDbLine
 10
229.6631077173
 20
244.2314867144
 30
0.0
 11
234.6631077173
 21
244.2314867144
 31
0.0
  0
LINE
  5
96
330
1F
100
AcDbEntity
  8
0
  6
Continuous
 62
     7
370
    18
100
AcDbLine
 10
229.6631077173
 20
239.2314867144
 30
0.0
 11
234.6631077173
 21
239.2314867144
 31
0.0
  0
LINE
  5
97
330
1F
100
AcDbEntity
  8
0
  6
Continuous
 62
     7
370
    18
100
AcDbLine
 10
229.6631077173
 20
244.2314867144
 30
0.0
 11
229.6631077173
 21
239.2314867144
 31
0.0
  0
LINE
  5
98
330
1F
100
AcDbEntity
  8
0
  6
Continuous
 62
     7
370
    18
100
AcDbLine
 10
244.6631077173
 20
244.2314867144
 30
0.0
 11
244.6631077173
 21
239.2314867144
 31
0.0
  0
LINE
  5
99
330
1F
100
AcDbEntity
  8
0
  6
Continuous
 62
     7
370
    18
100
AcDbLine
 10
239.6631077173
 20
244.2314867144
 30
0.0
 11
244.6631077173
 21
244.2314867144
 31
0.0
  0
LINE
  5
9A
330
1F
100
AcDbEntity
  8
0
  6
Continuous
 62
     7
370
    18
100
AcDbLine
 10
239.6631077173
 20
239.2314867144
 30
0.0
 11
244.6631077173
 21
239.2314867144
 31
0.0
  0
LINE
  5
9B
330
1F
100
AcDbEntity
  8
0
  6
Continuous
 62
     7
370
    18
100
AcDbLine
 10
239.6631077173
 20
244.2314867144
 30
0.0
 11
239.6631077173
 21
239.2314867144
 31
0.0
  0
LINE
  5
9C
330
1F
100
AcDbEntity
  8
0
  6
Continuous
 62
     7
370
    18
100
AcDbLine
 10
254.6631077173
 20
244.2314867144
 30
0.0
 11
254.6631077173
 21
239.2314867144
 31
0.0
  0
LINE
  5
9D
330
1F
100
AcDbEntity
  8
0
  6
Continuous
 62
     7
370
    18
100
AcDbLine
 10
249.6631077173
 20
244.2314867144
 30
0.0
 11
254.6631077173
 21
244.2314867144
 31
0.0
  0
LINE
  5
9E
330
1F
100
AcDbEntity
  8
0
  6
Continuous
 62
     7
370
    18
100
AcDbLine
 10
249.6631077173
 20
239.2314867144
 30
0.0
 11
254.6631077173
 21
239.2314867144
 31
0.0
  0
LINE
  5
9F
330
1F
100
AcDbEntity
  8
0
  6
Continuous
 62
     7
370
    18
100
AcDbLine
 10
249.6631077173
 20
244.2314867144
 30
0.0
 11
249.6631077173
 21
239.2314867144
 31
0.0
  0
LINE
  5
A0
330
1F
100
AcDbEntity
  8
0
  6
Continuous
 62
     7
370
    18
100
AcDbLine
 10
264.6631077173
 20
244.2314867144
 30
0.0
 11
264.6631077173
 21
239.2314867144
 31
0.0
  0
LINE
  5
A1
330
1F
100
AcDbEntity
  8
0
  6
Continuous
 62
     7
370
    18
100
AcDbLine
 10
259.6631077173
 20
244.2314867144
 30
0.0
 11
264.6631077173
 21
244.2314867144
 31
0.0
  0
LINE
  5
A2
330
1F
100
AcDbEntity
  8
0
  6
Continuous
 62
     7
370
    18
100
AcDbLine
 10
259.6631077173
 20
239.2314867144
 30
0.0
 11
264.6631077173
 21
239.2314867144
 31
0.0
  0
LINE
  5
A3
330
1F
100
AcDbEntity
  8
0
  6
Continuous
 62
     7
370
    18
100
AcDbLine
 10
259.6631077173
 20
244.2314867144
 30
0.0
 11
259.6631077173
 21
239.2314867144
 31
0.0
  0
LINE
  5
A4
330
1F
100
AcDbEntity
  8
0
  6
Continuous
 62
     7
370
    18
100
AcDbLine
 10
214.6631077173
 20
234.2314867144
 30
0.0
 11
214.6631077173
 21
229.2314867144
 31
0.0
  0
LINE
  5
A5
330
1F
100
AcDbEntity
  8
0
  6
Continuous
 62
     7
370
    18
100
AcDbLine
 10
209.6631077173
 20
234.2314867144
 30
0.0
 11
214.6631077173
 21
234.2314867144
 31
0.0
  0
LINE
  5
A6
330
1F
100
AcDbEntity
  8
0
  6
Continuous
 62
     7
370
    18
100
AcDbLine
 10
209.6631077173
 20
229.2314867144
 30
0.0
 11
214.6631077173
 21
229.2314867144
 31
0.0
  0
LINE
  5
A7
330
1F
100
AcDbEntity
  8
0
  6
Continuous
 62
     7
370
    18
100
AcDbLine
 10
209.6631077173
 20
234.2314867144
 30
0.0
 11
209.6631077173
 21
229.2314867144
 31
0.0
  0
LINE
  5
A8
330
1F
100
AcDbEntity
  8
0
  6
Continuous
 62
     7
370
    18
100
AcDbLine
 10
224.6631077173
 20
234.2314867144
 30
0.0
 11
224.6631077173
 21
229.2314867144
 31
0.0
  0
LINE
  5
A9
330
1F
100
AcDbEntity
  8
0
  6
Continuous
 62
     7
370
    18
100
AcDbLine
 10
219.6631077173
 20
234.2314867144
 30
0.0
 11
224.6631077173
 21
234.2314867144
 31
0.0
  0
LINE
  5
AA
330
1F
100
AcDbEntity
  8
0
  6
Continuous
 62
     7
370
    18
100
AcDbLine
 10
219.6631077173
 20
229.2314867144
 30
0.0
 11
224.6631077173
 21
229.2314867144
 31
0.0
  0
LINE
  5
AB
330
1F
100
AcDbEntity
  8
0
  6
Continuous
 62
     7
370
    18
100
AcDbLine
 10
219.6631077173
 20
234.2314867144
 30
0.0
 11
219.6631077173
 21
229.2314867144
 31
0.0
  0
LINE
  5
AC
330
1F
100
AcDbEntity
  8
0
  6
Continuous
 62
     7
370
    18
100
AcDbLine
 10
234.6631077173
 20
234.2314867144
 30
0.0
 11
234.6631077173
 21
229.2314867144
 31
0.0
  0
LINE
  5
AD
330
1F
100
AcDbEntity
  8
0
  6
Continuous
 62
     7
370
    18
100
AcDbLine
 10
229.6631077173
 20
234.2314867144
 30
0.0
 11
234.6631077173
 21
234.2314867144
 31
0.0
  0
LINE
  5
AE
330
1F
100
AcDbEntity
  8
0
  6
Continuous
 62
     7
370
    18
100
AcDbLine
 10
229.6631077173
 20
229.2314867144
 30
0.0
 11
234.6631077173
 21
229.2314867144
 31
0.0
  0
LINE
  5
AF
330
1F
100
AcDbEntity
  8
0
  6
Continuous
 62
     7
370
    18
100
AcDbLine
 10
229.6631077173
 20
234.2314867144
 30
0.0
 11
229.6631077173
 21
229.2314867144
 31
0.0
  0
LINE
  5
B0
330
1F
100
AcDbEntity
  8
0
  6
Continuous
 62
     7
370
    18
100
AcDbLine
 10
244.6631077173
 20
234.2314867144
 30
0.0
 11
244.6631077173
 21
229.2314867144
 31
0.0
  0
LINE
  5
B1
330
1F
100
AcDbEntity
  8
0
  6
Continuous
 62
     7
370
    18
100
AcDbLine
 10
239.6631077173
 20
234.2314867144
 30
0.0
 11
244.6631077173
 21
234.2314867144
 31
0.0
  0
LINE
  5
B2
330
1F
100
AcDbEntity
  8
0
  6
Continuous
 62
     7
370
    18
100
AcDbLine
 10
239.6631077173
 20
229.2314867144
 30
0.0
 11
244.6631077173
 21
229.2314867144
 31
0.0
  0
LINE
  5
B3
330
1F
100
AcDbEntity
  8
0
  6
Continuous
 62
     7
370
    18
100
AcDbLine
 10
239.6631077173
 20
234.2314867144
 30
0.0
 11
239.6631077173
 21
229.2314867144
 31
0.0
  0
LINE
  5
B4
330
1F
100
AcDbEntity
  8
0
  6
Continuous
 62
     7
370
    18
100
AcDbLine
 10
254.6631077173
 20
234.2314867144
 30
0.0
 11
254.6631077173
 21
229.2314867144
 31
0.0
  0
LINE
  5
B5
330
1F
100
AcDbEntity
  8
0
  6
Continuous
 62
     7
370
    18
100
AcDbLine
 10
249.6631077173
 20
234.2314867144
 30
0.0
 11
254.6631077173
 21
234.2314867144
 31
0.0
  0
LINE
  5
B6
330
1F
100
AcDbEntity
  8
0
  6
Continuous
 62
     7
370
    18
100
AcDbLine
 10
249.6631077173
 20
229.2314867144
 30
0.0
 11
254.6631077173
 21
229.2314867144
 31
0.0
  0
LINE
  5
B7
330
1F
100
AcDbEntity
  8
0
  6
Continuous
 62
     7
370
    18
100
AcDbLine
 10
249.6631077173
 20
234.2314867144
 30
0.0
 11
249.6631077173
 21
229.2314867144
 31
0.0
  0
LINE
  5
B8
330
1F
100
AcDbEntity
  8
0
  6
Continuous
 62
     7
370
    18
100
AcDbLine
 10
264.6631077173
 20
234.2314867144
 30
0.0
 11
264.6631077173
 21
229.2314867144
 31
0.0
  0
LINE
  5
B9
330
1F
100
AcDbEntity
  8
0
  6
Continuous
 62
     7
370
    18
100
AcDbLine
 10
259.6631077173
 20
234.2314867144
 30
0.0
 11
264.6631077173
 21
234.2314867144
 31
0.0
  0
LINE
  5
BA
330
1F
100
AcDbEntity
  8
0
  6
Continuous
 62
     7
370
    18
100
AcDbLine
 10
397.3216559086
 20
171.8951021561
 30
0.0
 11
397.3216559086
 21
151.8951021561
 31
0.0
  0
LINE
  5
BB
330
1F
100
AcDbEntity
  8
0
  6
Continuous
 62
     7
370
    18
100
AcDbLine
 10
236.3216559086
 20
251.8951021561
 30
0.0
 11
256.3216559086
 21
251.8951021561
 31
0.0
  0
LINE
  5
BC
330
1F
100
AcDbEntity
  8
0
  6
Continuous
 62
     7
370
    18
100
AcDbLine
 10
236.3216559086
 20
251.8951021561
 30
0.0
 11
236.3216559086
 21
248.8951021561
 31
0.0
  0
LINE
  5
BD
330
1F
100
AcDbEntity
  8
0
  6
Continuous
 62
     7
370
    18
100
AcDbLine
 10
236.3216559086
 20
248.8951021561
 30
0.0
 11
256.3216559086
 21
248.8951021561
 31
0.0
  0
LINE
  5
BE
330
1F
100
AcDbEntity
  8
0
  6
Continuous
 62
     7
370
    18
100
AcDbLine
 10
256.3216559086
 20
251.8951021561
 30
0.0
 11
256.3216559086
 21
248.8951021561
 31
0.0
  0
LINE
  5
BF
330
1F
100
AcDbEntity
  8
0
  6
Continuous
 62
     7
370
    18
100
AcDbLine
 10
400.3216559086
 20
171.8951021561
 30
0.0
 11
397.3216559086
 21
171.8951021561
 31
0.0
  0
LINE
  5
C0
330
1F
100
AcDbEntity
  8
0
  6
Continuous
 62
     7
370
    18
100
AcDbLine
 10
400.3216559086
 20
171.8951021561
 30
0.0
 11
400.3216559086
 21
151.8951021561
 31
0.0
  0
LINE
  5
C1
330
1F
100
AcDbEntity
  8
0
  6
Continuous
 62
     7
370
    18
100
AcDbLine
 10
394.3216559086
 20
248.8951021561
 30
0.0
 11
374.3216559086
 21
248.8951021561
 31
0.0
  0
LINE
  5
C2
330
1F
100
AcDbEntity
  8
0
  6
Continuous
 62
     7
370
    18
100
AcDbLine
 10
374.3216559086
 20
251.8951021561
 30
0.0
 11
374.3216559086
 21
248.8951021561
 31
0.0
  0
LINE
  5
C3
330
1F
100
AcDbEntity
  8
0
  6
Continuous
 62
     7
370
    18
100
AcDbLine
 10
394.3216559086
 20
251.8951021561
 30
0.0
 11
394.3216559086
 21
248.8951021561
 31
0.0
  0
LINE
  5
C4
330
1F
100
AcDbEntity
  8
0
  6
Continuous
 62
     7
370
    18
100
AcDbLine
 10
394.3216559086
 20
251.8951021561
 30
0.0
 11
374.3216559086
 21
251.8951021561
 31
0.0
  0
LINE
  5
C5
330
1F
100
AcDbEntity
  8
0
  6
Continuous
 62
     7
370
    18
100
AcDbLine
 10
259.6631077173
 20
229.2314867144
 30
0.0
 11
264.6631077173
 21
229.2314867144
 31
0.0
  0
LINE
  5
C6
330
1F
100
AcDbEntity
  8
0
  6
Continuous
 62
     7
370
    18
100
AcDbLine
 10
259.6631077173
 20
234.2314867144
 30
0.0
 11
259.6631077173
 21
229.2314867144
 31
0.0
  0
LINE
  5
C7
330
1F
100
AcDbEntity
  8
0
  6
Continuous
 62
     7
370
    18
100
AcDbLine
 10
214.6631077173
 20
224.2314867144
 30
0.0
 11
214.6631077173
 21
219.2314867144
 31
0.0
  0
LINE
  5
C8
330
1F
100
AcDbEntity
  8
0
  6
Continuous
 62
     7
370
    18
100
AcDbLine
 10
209.6631077173
 20
224.2314867144
 30
0.0
 11
214.6631077173
 21
224.2314867144
 31
0.0
  0
LINE
  5
C9
330
1F
100
AcDbEntity
  8
0
  6
Continuous
 62
     7
370
    18
100
AcDbLine
 10
209.6631077173
 20
219.2314867144
 30
0.0
 11
214.6631077173
 21
219.2314867144
 31
0.0
  0
LINE
  5
CA
330
1F
100
AcDbEntity
  8
0
  6
Continuous
 62
     7
370
    18
100
AcDbLine
 10
209.6631077173
 20
224.2314867144
 30
0.0
 11
209.6631077173
 21
219.2314867144
 31
0.0
  0
LINE
  5
CB
330
1F
100
AcDbEntity
  8
0
  6
Continuous
 62
     7
370
    18
100
AcDbLine
 10
224.6631077173
 20
224.2314867144
 30
0.0
 11
224.6631077173
 21
219.2314867144
 31
0.0
  0
LINE
  5
CC
330
1F
100
AcDbEntity
  8
0
  6
Continuous
 62
     7
370
    18
100
AcDbLine
 10
219.6631077173
 20
224.2314867144
 30
0.0
 11
224.6631077173
 21
224.2314867144
 31
0.0
  0
LINE
  5
CD
330
1F
100
AcDbEntity
  8
0
  6
Continuous
 62
     7
370
    18
100
AcDbLine
 10
219.6631077173
 20
219.2314867144
 30
0.0
 11
224.6631077173
 21
219.2314867144
 31
0.0
  0
LINE
  5
CE
330
1F
100
AcDbEntity
  8
0
  6
Continuous
 62
     7
370
    18
100
AcDbLine
 10
219.6631077173
 20
224.2314867144
 30
0.0
 11
219.6631077173
 21
219.2314867144
 31
0.0
  0
LINE
  5
CF
330
1F
100
AcDbEntity
  8
0
  6
Continuous
 62
     7
370
    18
100
AcDbLine
 10
234.6631077173
 20
224.2314867144
 30
0.0
 11
234.6631077173
 21
219.2314867144
 31
0.0
  0
LINE
  5
D0
330
1F
100
AcDbEntity
  8
0
  6
Continuous
 62
     7
370
    18
100
AcDbLine
 10
229.6631077173
 20
224.2314867144
 30
0.0
 11
234.6631077173
 21
224.2314867144
 31
0.0
  0
LINE
  5
D1
330
1F
100
AcDbEntity
  8
0
  6
Continuous
 62
     7
370
    18
100
AcDbLine
 10
229.6631077173
 20
219.2314867144
 30
0.0
 11
234.6631077173
 21
219.2314867144
 31
0.0
  0
LINE
  5
D2
330
1F
100
AcDbEntity
  8
0
  6
Continuous
 62
     7
370
    18
100
AcDbLine
 10
229.6631077173
 20
224.2314867144
 30
0.0
 11
229.6631077173
 21
219.2314867144
 31
0.0
  0
LINE
  5
D3
330
1F
100
AcDbEntity
  8
0
  6
Continuous
 62
     7
370
    18
100
AcDbLine
 10
244.6631077173
 20
224.2314867144
 30
0.0
 11
244.6631077173
 21
219.2314867144
 31
0.0
  0
LINE
  5
D4
330
1F
100
AcDbEntity
  8
0
  6
Continuous
 62
     7
370
    18
100
AcDbLine
 10
239.6631077173
 20
224.2314867144
 30
0.0
 11
244.6631077173
 21
224.2314867144
 31
0.0
  0
LINE
  5
D5
330
1F
100
AcDbEntity
  8
0
  6
Continuous
 62
     7
370
    18
100
AcDbLine
 10
239.6631077173
 20
219.2314867144
 30
0.0
 11
244.6631077173
 21
219.2314867144
 31
0.0
  0
LINE
  5
D6
330
1F
100
AcDbEntity
  8
0
  6
Continuous
 62
     7
370
    18
100
AcDbLine
 10
239.6631077173
 20
224.2314867144
 30
0.0
 11
239.6631077173
 21
219.2314867144
 31
0.0
  0
LINE
  5
D7
330
1F
100
AcDbEntity
  8
0
  6
Continuous
 62
     7
370
    18
100
AcDbLine
 10
254.6631077173
 20
224.2314867144
 30
0.0
 11
254.6631077173
 21
219.2314867144
 31
0.0
  0
LINE
  5
D8
330
1F
100
AcDbEntity
  8
0
  6
Continuous
 62
     7
370
    18
100
AcDbLine
 10
249.6631077173
 20
224.2314867144
 30
0.0
 11
254.6631077173
 21
224.2314867144
 31
0.0
  0
LINE
  5
D9
330
1F
100
AcDbEntity
  8
0
  6
Continuous
 62
     7
370
    18
100
AcDbLine
 10
249.6631077173
 20
219.2314867144
 30
0.0
 11
254.6631077173
 21
219.2314867144
 31
0.0
  0
LINE
  5
DA
330
1F
100
AcDbEntity
  8
0
  6
Continuous
 62
     7
370
    18
100
AcDbLine
 10
249.6631077173
 20
224.2314867144
 30
0.0
 11
249.6631077173
 21
219.2314867144
 31
0.0
  0
LINE
  5
DB
330
1F
100
AcDbEntity
  8
0
  6
Continuous
 62
     7
370
    18
100
AcDbLine
 10
264.6631077173
 20
224.2314867144
 30
0.0
 11
264.6631077173
 21
219.2314867144
 31
0.0
  0
LINE
  5
DC
330
1F
100
AcDbEntity
  8
0
  6
Continuous
 62
     7
370
    18
100
AcDbLine
 10
259.6631077173
 20
224.2314867144
 30
0.0
 11
264.6631077173
 21
224.2314867144
 31
0.0
  0
LINE
  5
DD
330
1F
100
AcDbEntity
  8
0
  6
Continuous
 62
     7
370
    18
100
AcDbLine
 10
259.6631077173
 20
219.2314867144
 30
0.0
 11
264.6631077173
 21
219.2314867144
 31
0.0
  0
LINE
  5
DE
330
1F
100
AcDbEntity
  8
0
  6
Continuous
 62
     7
370
    18
100
AcDbLine
 10
259.6631077173
 20
224.2314867144
 30
0.0
 11
259.6631077173
 21
219.2314867144
 31
0.0
  0
LINE
  5
DF
330
1F
100
AcDbEntity
  8
0
  6
Continuous
 62
     7
370
    18
100
AcDbLine
 10
214.6631077173
 20
214.2314867144
 30
0.0
 11
214.6631077173
 21
209.2314867144
 31
0.0
  0
LINE
  5
E0
330
1F
100
AcDbEntity
  8
0
  6
Continuous
 62
     7
370
    18
100
AcDbLine
 10
209.6631077173
 20
214.2314867144
 30
0.0
 11
214.6631077173
 21
214.2314867144
 31
0.0
  0
LINE
  5
E1
330
1F
100
AcDbEntity
  8
0
  6
Continuous
 62
     7
370
    18
100
AcDbLine
 10
209.6631077173
 20
209.2314867144
 30
0.0
 11
214.6631077173
 21
209.2314867144
 31
0.0
  0
LINE
  5
E2
330
1F
100
AcDbEntity
  8
0
  6
Continuous
 62
     7
370
    18
100
AcDbLine
 10
209.6631077173
 20
214.2314867144
 30
0.0
 11
209.6631077173
 21
209.2314867144
 31
0.0
  0
LINE
  5
E3
330
1F
100
AcDbEntity
  8
0
  6
Continuous
 62
     7
370
    18
100
AcDbLine
 10
224.6631077173
 20
214.2314867144
 30
0.0
 11
224.6631077173
 21
209.2314867144
 31
0.0
  0
LINE
  5
E4
330
1F
100
AcDbEntity
  8
0
  6
Continuous
 62
     7
370
    18
100
AcDbLine
 10
219.6631077173
 20
214.2314867144
 30
0.0
 11
224.6631077173
 21
214.2314867144
 31
0.0
  0
LINE
  5
E5
330
1F
100
AcDbEntity
  8
0
  6
Continuous
 62
     7
370
    18
100
AcDbLine
 10
219.6631077173
 20
209.2314867144
 30
0.0
 11
224.6631077173
 21
209.2314867144
 31
0.0
  0
LINE
  5
E6
330
1F
100
AcDbEntity
  8
0
  6
Continuous
 62
     7
370
    18
100
AcDbLine
 10
219.6631077173
 20
214.2314867144
 30
0.0
 11
219.6631077173
 21
209.2314867144
 31
0.0
  0
LINE
  5
E7
330
1F
100
AcDbEntity
  8
0
  6
Continuous
 62
     7
370
    18
100
AcDbLine
 10
234.6631077173
 20
214.2314867144
 30
0.0
 11
234.6631077173
 21
209.2314867144
 31
0.0
  0
LINE
  5
E8
330
1F
100
AcDbEntity
  8
0
  6
Continuous
 62
     7
370
    18
100
AcDbLine
 10
229.6631077173
 20
214.2314867144
 30
0.0
 11
234.6631077173
 21
214.2314867144
 31
0.0
  0
LINE
  5
E9
330
1F
100
AcDbEntity
  8
0
  6
Continuous
 62
     7
370
    18
100
AcDbLine
 10
229.6631077173
 20
209.2314867144
 30
0.0
 11
234.6631077173
 21
209.2314867144
 31
0.0
  0
LINE
  5
EA
330
1F
100
AcDbEntity
  8
0
  6
Continuous
 62
     7
370
    18
100
AcDbLine
 10
229.6631077173
 20
214.2314867144
 30
0.0
 11
229.6631077173
 21
209.2314867144
 31
0.0
  0
LINE
  5
EB
330
1F
100
AcDbEntity
  8
0
  6
Continuous
 62
     7
370
    18
100
AcDbLine
 10
244.6631077173
 20
214.2314867144
 30
0.0
 11
244.6631077173
 21
209.2314867144
 31
0.0
  0
LINE
  5
EC
330
1F
100
AcDbEntity
  8
0
  6
Continuous
 62
     7
370
    18
100
AcDbLine
 10
239.6631077173
 20
214.2314867144
 30
0.0
 11
244.6631077173
 21
214.2314867144
 31
0.0
  0
LINE
  5
ED
330
1F
100
AcDbEntity
  8
0
  6
Continuous
 62
     7
370
    18
100
AcDbLine
 10
239.6631077173
 20
209.2314867144
 30
0.0
 11
244.6631077173
 21
209.2314867144
 31
0.0
  0
LINE
  5
EE
330
1F
100
AcDbEntity
  8
0
  6
Continuous
 62
     7
370
    18
100
AcDbLine
 10
239.6631077173
 20
214.2314867144
 30
0.0
 11
239.6631077173
 21
209.2314867144
 31
0.0
  0
LINE
  5
EF
330
1F
100
AcDbEntity
  8
0
  6
Continuous
 62
     7
370
    18
100
AcDbLine
 10
254.6631077173
 20
214.2314867144
 30
0.0
 11
254.6631077173
 21
209.2314867144
 31
0.0
  0
LINE
  5
F0
330
1F
100
AcDbEntity
  8
0
  6
Continuous
 62
     7
370
    18
100
AcDbLine
 10
249.6631077173
 20
214.2314867144
 30
0.0
 11
254.6631077173
 21
214.2314867144
 31
0.0
  0
LINE
  5
F1
330
1F
100
AcDbEntity
  8
0
  6
Continuous
 62
     7
370
    18
100
AcDbLine
 10
249.6631077173
 20
209.2314867144
 30
0.0
 11
254.6631077173
 21
209.2314867144
 31
0.0
  0
LINE
  5
F2
330
1F
100
AcDbEntity
  8
0
  6
Continuous
 62
     7
370
    18
100
AcDbLine
 10
249.6631077173
 20
214.2314867144
 30
0.0
 11
249.6631077173
 21
209.2314867144
 31
0.0
  0
LINE
  5
F3
330
1F
100
AcDbEntity
  8
0
  6
Continuous
 62
     7
370
    18
100
AcDbLine
 10
264.6631077173
 20
214.2314867144
 30
0.0
 11
264.6631077173
 21
209.2314867144
 31
0.0
  0
LINE
  5
F4
330
1F
100
AcDbEntity
  8
0
  6
Continuous
 62
     7
370
    18
100
AcDbLine
 10
259.6631077173
 20
214.2314867144
 30
0.0
 11
264.6631077173
 21
214.2314867144
 31
0.0
  0
LINE
  5
F5
330
1F
100
AcDbEntity
  8
0
  6
Continuous
 62
     7
370
    18
100
AcDbLine
 10
259.6631077173
 20
209.2314867144
 30
0.0
 11
264.6631077173
 21
209.2314867144
 31
0.0
  0
LINE
  5
F6
330
1F
100
AcDbEntity
  8
0
  6
Continuous
 62
     7
370
    18
100
AcDbLine
 10
259.6631077173
 20
214.2314867144
 30
0.0
 11
259.6631077173
 21
209.2314867144
 31
0.0
  0
LINE
  5
F7
330
1F
100
AcDbEntity
  8
0
  6
Continuous
 62
     7
370
    18
100
AcDbLine
 10
214.6631077173
 20
204.2314867144
 30
0.0
 11
214.6631077173
 21
199.2314867144
 31
0.0
  0
LINE
  5
F8
330
1F
100
AcDbEntity
  8
0
  6
Continuous
 62
     7
370
    18
100
AcDbLine
 10
209.6631077173
 20
204.2314867144
 30
0.0
 11
214.6631077173
 21
204.2314867144
 31
0.0
  0
LINE
  5
F9
330
1F
100
AcDbEntity
  8
0
  6
Continuous
 62
     7
370
    18
100
AcDbLine
 10
209.6631077173
 20
199.2314867144
 30
0.0
 11
214.6631077173
 21
199.2314867144
 31
0.0
  0
LINE
  5
FA
330
1F
100
AcDbEntity
  8
0
  6
Continuous
 62
     7
370
    18
100
AcDbLine
 10
209.6631077173
 20
204.2314867144
 30
0.0
 11
209.6631077173
 21
199.2314867144
 31
0.0
  0
LINE
  5
FB
330
1F
100
AcDbEntity
  8
0
  6
Continuous
 62
     7
370
    18
100
AcDbLine
 10
224.6631077173
 20
204.2314867144
 30
0.0
 11
224.6631077173
 21
199.2314867144
 31
0.0
  0
LINE
  5
FC
330
1F
100
AcDbEntity
  8
0
  6
Continuous
 62
     7
370
    18
100
AcDbLine
 10
219.6631077173
 20
204.2314867144
 30
0.0
 11
224.6631077173
 21
204.2314867144
 31
0.0
  0
LINE
  5
FD
330
1F
100
AcDbEntity
  8
0
  6
Continuous
 62
     7
370
    18
100
AcDbLine
 10
219.6631077173
 20
199.2314867144
 30
0.0
 11
224.6631077173
 21
199.2314867144
 31
0.0
  0
LINE
  5
FE
330
1F
100
AcDbEntity
  8
0
  6
Continuous
 62
     7
370
    18
100
AcDbLine
 10
219.6631077173
 20
204.2314867144
 30
0.0
 11
219.6631077173
 21
199.2314867144
 31
0.0
  0
LINE
  5
FF
330
1F
100
AcDbEntity
  8
0
  6
Continuous
 62
     7
370
    18
100
AcDbLine
 10
234.6631077173
 20
204.2314867144
 30
0.0
 11
234.6631077173
 21
199.2314867144
 31
0.0
  0
LINE
  5
100
330
1F
100
AcDbEntity
  8
0
  6
Continuous
 62
     7
370
    18
100
AcDbLine
 10
229.6631077173
 20
204.2314867144
 30
0.0
 11
234.6631077173
 21
204.2314867144
 31
0.0
  0
LINE
  5
101
330
1F
100
AcDbEntity
  8
0
  6
Continuous
 62
     7
370
    18
100
AcDbLine
 10
229.6631077173
 20
199.2314867144
 30
0.0
 11
234.6631077173
 21
199.2314867144
 31
0.0
  0
LINE
  5
102
330
1F
100
AcDbEntity
  8
0
  6
Continuous
 62
     7
370
    18
100
AcDbLine
 10
229.6631077173
 20
204.2314867144
 30
0.0
 11
229.6631077173
 21
199.2314867144
 31
0.0
  0
LINE
  5
103
330
1F
100
AcDbEntity
  8
0
  6
Continuous
 62
     7
370
    18
100
AcDbLine
 10
244.6631077173
 20
204.2314867144
 30
0.0
 11
244.6631077173
 21
199.2314867144
 31
0.0
  0
LINE
  5
104
330
1F
100
AcDbEntity
  8
0
  6
Continuous
 62
     7
370
    18
100
AcDbLine
 10
239.6631077173
 20
204.2314867144
 30
0.0
 11
244.6631077173
 21
204.2314867144
 31
0.0
  0
LINE
  5
105
330
1F
100
AcDbEntity
  8
0
  6
Continuous
 62
     7
370
    18
100
AcDbLine
 10
239.6631077173
 20
199.2314867144
 30
0.0
 11
244.6631077173
 21
199.2314867144
 31
0.0
  0
LINE
  5
106
330
1F
100
AcDbEntity
  8
0
  6
Continuous
 62
     7
370
    18
100
AcDbLine
 10
239.6631077173
 20
204.2314867144
 30
0.0
 11
239.6631077173
 21
199.2314867144
 31
0.0
  0
LINE
  5
107
330
1F
100
AcDbEntity
  8
0
  6
Continuous
 62
     7
370
    18
100
AcDbLine
 10
254.6631077173
 20
204.2314867144
 30
0.0
 11
254.6631077173
 21
199.2314867144
 31
0.0
  0
LINE
  5
108
330
1F
100
AcDbEntity
  8
0
  6
Continuous
 62
     7
370
    18
100
AcDbLine
 10
249.6631077173
 20
204.2314867144
 30
0.0
 11
254.6631077173
 21
204.2314867144
 31
0.0
  0
LINE
  5
109
330
1F
100
AcDbEntity
  8
0
  6
Continuous
 62
     7
370
    18
100
AcDbLine
 10
249.6631077173
 20
199.2314867144
 30
0.0
 11
254.6631077173
 21
199.2314867144
 31
0.0
  0
LINE
  5
10A
330
1F
100
AcDbEntity
  8
0
  6
Continuous
 62
     7
370
    18
100
AcDbLine
 10
249.6631077173
 20
204.2314867144
 30
0.0
 11
249.6631077173
 21
199.2314867144
 31
0.0
  0
LINE
  5
10B
330
1F
100
AcDbEntity
  8
0
  6
Continuous
 62
     7
370
    18
100
AcDbLine
 10
264.6631077173
 20
204.2314867144
 30
0.0
 11
264.6631077173
 21
199.2314867144
 31
0.0
  0
LINE
  5
10C
330
1F
100
AcDbEntity
  8
0
  6
Continuous
 62
     7
370
    18
100
AcDbLine
 10
259.6631077173
 20
204.2314867144
 30
0.0
 11
264.6631077173
 21
204.2314867144
 31
0.0
  0
LINE
  5
10D
330
1F
100
AcDbEntity
  8
0
  6
Continuous
 62
     7
370
    18
100
AcDbLine
 10
259.6631077173
 20
199.2314867144
 30
0.0
 11
264.6631077173
 21
199.2314867144
 31
0.0
  0
LINE
  5
10E
330
1F
100
AcDbEntity
  8
0
  6
Continuous
 62
     7
370
    18
100
AcDbLine
 10
259.6631077173
 20
204.2314867144
 30
0.0
 11
259.6631077173
 21
199.2314867144
 31
0.0
  0
LINE
  5
10F
330
1F
100
AcDbEntity
  8
0
  6
Continuous
 62
     7
370
    18
100
AcDbLine
 10
214.6631077173
 20
194.2314867144
 30
0.0
 11
214.6631077173
 21
189.2314867144
 31
0.0
  0
LINE
  5
110
330
1F
100
AcDbEntity
  8
0
  6
Continuous
 62
     7
370
    18
100
AcDbLine
 10
209.6631077173
 20
194.2314867144
 30
0.0
 11
214.6631077173
 21
194.2314867144
 31
0.0
  0
LINE
  5
111
330
1F
100
AcDbEntity
  8
0
  6
Continuous
 62
     7
370
    18
100
AcDbLine
 10
209.6631077173
 20
189.2314867144
 30
0.0
 11
214.6631077173
 21
189.2314867144
 31
0.0
  0
LINE
  5
112
330
1F
100
AcDbEntity
  8
0
  6
Continuous
 62
     7
370
    18
100
AcDbLine
 10
209.6631077173
 20
194.2314867144
 30
0.0
 11
209.6631077173
 21
189.2314867144
 31
0.0
  0
LINE
  5
113
330
1F
100
AcDbEntity
  8
0
  6
Continuous
 62
     7
370
    18
100
AcDbLine
 10
224.6631077173
 20
194.2314867144
 30
0.0
 11
224.6631077173
 21
189.2314867144
 31
0.0
  0
LINE
  5
114
330
1F
100
AcDbEntity
  8
0
  6
Continuous
 62
     7
370
    18
100
AcDbLine
 10
219.6631077173
 20
194.2314867144
 30
0.0
 11
224.6631077173
 21
194.2314867144
 31
0.0
  0
LINE
  5
115
330
1F
100
AcDbEntity
  8
0
  6
Continuous
 62
     7
370
    18
100
AcDbLine
 10
219.6631077173
 20
189.2314867144
 30
0.0
 11
224.6631077173
 21
189.2314867144
 31
0.0
  0
LINE
  5
116
330
1F
100
AcDbEntity
  8
0
  6
Continuous
 62
     7
370
    18
100
AcDbLine
 10
219.6631077173
 20
194.2314867144
 30
0.0
 11
219.6631077173
 21
189.2314867144
 31
0.0
  0
LINE
  5
117
330
1F
100
AcDbEntity
  8
0
  6
Continuous
 62
     7
370
    18
100
AcDbLine
 10
234.6631077173
 20
194.2314867144
 30
0.0
 11
234.6631077173
 21
189.2314867144
 31
0.0
  0
LINE
  5
118
330
1F
100
AcDbEntity
  8
0
  6
Continuous
 62
     7
370
    18
100
AcDbLine
 10
229.6631077173
 20
194.2314867144
 30
0.0
 11
234.6631077173
 21
194.2314867144
 31
0.0
  0
LINE
  5
119
330
1F
100
AcDbEntity
  8
0
  6
Continuous
 62
     7
370
    18
100
AcDbLine
 10
229.6631077173
 20
189.2314867144
 30
0.0
 11
234.6631077173
 21
189.2314867144
 31
0.0
  0
LINE
  5
11A
330
1F
100
AcDbEntity
  8
0
  6
Continuous
 62
     7
370
    18
100
AcDbLine
 10
229.6631077173
 20
194.2314867144
 30
0.0
 11
229.6631077173
 21
189.2314867144
 31
0.0
  0
LINE
  5
11B
330
1F
100
AcDbEntity
  8
0
  6
Continuous
 62
     7
370
    18
100
AcDbLine
 10
244.6631077173
 20
194.2314867144
 30
0.0
 11
244.6631077173
 21
189.2314867144
 31
0.0
  0
LINE
  5
11C
330
1F
100
AcDbEntity
  8
0
  6
Continuous
 62
     7
370
    18
100
AcDbLine
 10
239.6631077173
 20
194.2314867144
 30
0.0
 11
244.6631077173
 21
194.2314867144
 31
0.0
  0
LINE
  5
11D
330
1F
100
AcDbEntity
  8
0
  6
Continuous
 62
     7
370
    18
100
AcDbLine
 10
239.6631077173
 20
189.2314867144
 30
0.0
 11
244.6631077173
 21
189.2314867144
 31
0.0
  0
LINE
  5
11E
330
1F
100
AcDbEntity
  8
0
  6
Continuous
 62
     7
370
    18
100
AcDbLine
 10
239.6631077173
 20
194.2314867144
 30
0.0
 11
239.6631077173
 21
189.2314867144
 31
0.0
  0
LINE
  5
11F
330
1F
100
AcDbEntity
  8
0
  6
Continuous
 62
     7
370
    18
100
AcDbLine
 10
254.6631077173
 20
194.2314867144
 30
0.0
 11
254.6631077173
 21
189.2314867144
 31
0.0
  0
LINE
  5
120
330
1F
100
AcDbEntity
  8
0
  6
Continuous
 62
     7
370
    18
100
AcDbLine
 10
249.6631077173
 20
194.2314867144
 30
0.0
 11
254.6631077173
 21
194.2314867144
 31
0.0
  0
LINE
  5
121
330
1F
100
AcDbEntity
  8
0
  6
Continuous
 62
     7
370
    18
100
AcDbLine
 10
249.6631077173
 20
189.2314867144
 30
0.0
 11
254.6631077173
 21
189.2314867144
 31
0.0
  0
LINE
  5
122
330
1F
100
AcDbEntity
  8
0
  6
Continuous
 62
     7
370
    18
100
AcDbLine
 10
249.6631077173
 20
194.2314867144
 30
0.0
 11
249.6631077173
 21
189.2314867144
 31
0.0
  0
LINE
  5
123
330
1F
100
AcDbEntity
  8
0
  6
Continuous
 62
     7
370
    18
100
AcDbLine
 10
264.6631077173
 20
194.2314867144
 30
0.0
 11
264.6631077173
 21
189.2314867144
 31
0.0
  0
LINE
  5
124
330
1F
100
AcDbEntity
  8
0
  6
Continuous
 62
     7
370
    18
100
AcDbLine
 10
259.6631077173
 20
194.2314867144
 30
0.0
 11
264.6631077173
 21
194.2314867144
 31
0.0
  0
LINE
  5
125
330
1F
100
AcDbEntity
  8
0
  6
Continuous
 62
     7
370
    18
100
AcDbLine
 10
259.6631077173
 20
189.2314867144
 30
0.0
 11
264.6631077173
 21
189.2314867144
 31
0.0
  0
LINE
  5
126
330
1F
100
AcDbEntity
  8
0
  6
Continuous
 62
     7
370
    18
100
AcDbLine
 10
259.6631077173
 20
194.2314867144
 30
0.0
 11
259.6631077173
 21
189.2314867144
 31
0.0
  0
LINE
  5
127
330
1F
100
AcDbEntity
  8
0
  6
Continuous
 62
     7
370
    18
100
AcDbLine
 10
224.6631077173
 20
184.2314867144
 30
0.0
 11
224.6631077173
 21
179.2314867144
 31
0.0
  0
LINE
  5
128
330
1F
100
AcDbEntity
  8
0
  6
Continuous
 62
     7
370
    18
100
AcDbLine
 10
219.6631077173
 20
184.2314867144
 30
0.0
 11
224.6631077173
 21
184.2314867144
 31
0.0
  0
LINE
  5
129
330
1F
100
AcDbEntity
  8
0
  6
Continuous
 62
     7
370
    18
100
AcDbLine
 10
219.6631077173
 20
179.2314867144
 30
0.0
 11
224.6631077173
 21
179.2314867144
 31
0.0
  0
LINE
  5
12A
330
1F
100
AcDbEntity
  8
0
  6
Continuous
 62
     7
370
    18
100
AcDbLine
 10
219.6631077173
 20
184.2314867144
 30
0.0
 11
219.6631077173
 21
179.2314867144
 31
0.0
  0
LINE
  5
12B
330
1F
100
AcDbEntity
  8
0
  6
Continuous
 62
     7
370
    18
100
AcDbLine
 10
234.6631077173
 20
184.2314867144
 30
0.0
 11
234.6631077173
 21
179.2314867144
 31
0.0
  0
LINE
  5
12C
330
1F
100
AcDbEntity
  8
0
  6
Continuous
 62
     7
370
    18
100
AcDbLine
 10
229.6631077173
 20
184.2314867144
 30
0.0
 11
234.6631077173
 21
184.2314867144
 31
0.0
  0
LINE
  5
12D
330
1F
100
AcDbEntity
  8
0
  6
Continuous
 62
     7
370
    18
100
AcDbLine
 10
229.6631077173
 20
179.2314867144
 30
0.0
 11
234.6631077173
 21
179.2314867144
 31
0.0
  0
LINE
  5
12E
330
1F
100
AcDbEntity
  8
0
  6
Continuous
 62
     7
370
    18
100
AcDbLine
 10
229.6631077173
 20
184.2314867144
 30
0.0
 11
229.6631077173
 21
179.2314867144
 31
0.0
  0
LINE
  5
12F
330
1F
100
AcDbEntity
  8
0
  6
Continuous
 62
     7
370
    18
100
AcDbLine
 10
244.6631077173
 20
184.2314867144
 30
0.0
 11
244.6631077173
 21
179.2314867144
 31
0.0
  0
LINE
  5
130
330
1F
100
AcDbEntity
  8
0
  6
Continuous
 62
     7
370
    18
100
AcDbLine
 10
239.6631077173
 20
184.2314867144
 30
0.0
 11
244.6631077173
 21
184.2314867144
 31
0.0
  0
LINE
  5
131
330
1F
100
AcDbEntity
  8
0
  6
Continuous
 62
     7
370
    18
100
AcDbLine
 10
239.6631077173
 20
179.2314867144
 30
0.0
 11
244.6631077173
 21
179.2314867144
 31
0.0
  0
LINE
  5
132
330
1F
100
AcDbEntity
  8
0
  6
Continuous
 62
     7
370
    18
100
AcDbLine
 10
239.6631077173
 20
184.2314867144
 30
0.0
 11
239.6631077173
 21
179.2314867144
 31
0.0
  0
LINE
  5
133
330
1F
100
AcDbEntity
  8
0
  6
Continuous
 62
     7
370
    18
100
AcDbLine
 10
254.6631077173
 20
184.2314867144
 30
0.0
 11
254.6631077173
 21
179.2314867144
 31
0.0
  0
LINE
  5
134
330
1F
100
AcDbEntity
  8
0
  6
Continuous
 62
     7
370
    18
100
AcDbLine
 10
249.6631077173
 20
184.2314867144
 30
0.0
 11
254.6631077173
 21
184.2314867144
 31
0.0
  0
LINE
  5
135
330
1F
100
AcDbEntity
  8
0
  6
Continuous
 62
     7
370
    18
100
AcDbLine
 10
249.6631077173
 20
179.2314867144
 30
0.0
 11
254.6631077173
 21
179.2314867144
 31
0.0
  0
LINE
  5
136
330
1F
100
AcDbEntity
  8
0
  6
Continuous
 62
     7
370
    18
100
AcDbLine
 10
249.6631077173
 20
184.2314867144
 30
0.0
 11
249.6631077173
 21
179.2314867144
 31
0.0
  0
LINE
  5
137
330
1F
100
AcDbEntity
  8
0
  6
Continuous
 62
     7
370
    18
100
AcDbLine
 10
264.6631077173
 20
184.2314867144
 30
0.0
 11
264.6631077173
 21
179.2314867144
 31
0.0
  0
LINE
  5
138
330
1F
100
AcDbEntity
  8
0
  6
Continuous
 62
     7
370
    18
100
AcDbLine
 10
259.6631077173
 20
184.2314867144
 30
0.0
 11
264.6631077173
 21
184.2314867144
 31
0.0
  0
LINE
  5
139
330
1F
100
AcDbEntity
  8
0
  6
Continuous
 62
     7
370
    18
100
AcDbLine
 10
259.6631077173
 20
179.2314867144
 30
0.0
 11
264.6631077173
 21
179.2314867144
 31
0.0
  0
LINE
  5
13A
330
1F
100
AcDbEntity
  8
0
  6
Continuous
 62
     7
370
    18
100
AcDbLine
 10
259.6631077173
 20
184.2314867144
 30
0.0
 11
259.6631077173
 21
179.2314867144
 31
0.0
  0
LINE
  5
13B
330
1F
100
AcDbEntity
  8
0
  6
Continuous
 62
     7
370
    18
100
AcDbLine
 10
249.5234152581
 20
113.3333170078
 30
0.0
 11
249.5234152581
 21
23.3333170078
 31
0.0
  0
LINE
  5
13C
330
1F
100
AcDbEntity
  8
0
  6
Continuous
 62
     7
370
    18
100
AcDbLine
 10
355.8275538838
 20
280.1517409859
 30
0.0
 11
274.6631077173
 21
280.1517409859
 31
0.0
  0
LINE
  5
13D
330
1F
100
AcDbEntity
  8
0
  6
Continuous
 62
     7
370
    18
100
AcDbLine
 10
355.8275538838
 20
280.1517409859
 30
0.0
 11
355.8275538838
 21
248.7576600522
 31
0.0
  0
LINE
  5
13E
330
1F
100
AcDbEntity
  8
0
  6
Continuous
 62
     7
370
    18
100
AcDbLine
 10
355.8275538838
 20
248.7576600522
 30
0.0
 11
274.6631077173
 21
248.7576600522
 31
0.0
  0
LINE
  5
13F
330
1F
100
AcDbEntity
  8
0
  6
Continuous
 62
     7
370
    18
100
AcDbLine
 10
419.6385921661
 20
232.5098765297
 30
0.0
 11
419.6385921661
 21
227.5098765297
 31
0.0
  0
LINE
  5
140
330
1F
100
AcDbEntity
  8
0
  6
Continuous
 62
     7
370
    18
100
AcDbLine
 10
414.6385921661
 20
232.5098765297
 30
0.0
 11
419.6385921661
 21
232.5098765297
 31
0.0
  0
LINE
  5
141
330
1F
100
AcDbEntity
  8
0
  6
Continuous
 62
     7
370
    18
100
AcDbLine
 10
414.6385921661
 20
227.5098765297
 30
0.0
 11
419.6385921661
 21
227.5098765297
 31
0.0
  0
LINE
  5
142
330
1F
100
AcDbEntity
  8
0
  6
Continuous
 62
     7
370
    18
100
AcDbLine
 10
414.6385921661
 20
232.5098765297
 30
0.0
 11
414.6385921661
 21
227.5098765297
 31
0.0
  0
LINE
  5
143
330
1F
100
AcDbEntity
  8
0
  6
Continuous
 62
     7
370
    18
100
AcDbLine
 10
419.6385921661
 20
222.5098765297
 30
0.0
 11
419.6385921661
 21
217.5098765297
 31
0.0
  0
LINE
  5
144
330
1F
100
AcDbEntity
  8
0
  6
Continuous
 62
     7
370
    18
100
AcDbLine
 10
414.6385921661
 20
222.5098765297
 30
0.0
 11
419.6385921661
 21
222.5098765297
 31
0.0
  0
LINE
  5
145
330
1F
100
AcDbEntity
  8
0
  6
Continuous
 62
     7
370
    18
100
AcDbLine
 10
414.6385921661
 20
217.5098765297
 30
0.0
 11
419.6385921661
 21
217.5098765297
 31
0.0
  0
LINE
  5
146
330
1F
100
AcDbEntity
  8
0
  6
Continuous
 62
     7
370
    18
100
AcDbLine
 10
414.6385921661
 20
222.5098765297
 30
0.0
 11
414.6385921661
 21
217.5098765297
 31
0.0
  0
LINE
  5
147
330
1F
100
AcDbEntity
  8
0
  6
Continuous
 62
     7
370
    18
100
AcDbLine
 10
419.6385921661
 20
212.5098765297
 30
0.0
 11
419.6385921661
 21
207.5098765297
 31
0.0
  0
LINE
  5
148
330
1F
100
AcDbEntity
  8
0
  6
Continuous
 62
     7
370
    18
100
AcDbLine
 10
414.6385921661
 20
212.5098765297
 30
0.0
 11
419.6385921661
 21
212.5098765297
 31
0.0
  0
LINE
  5
149
330
1F
100
AcDbEntity
  8
0
  6
Continuous
 62
     7
370
    18
100
AcDbLine
 10
414.6385921661
 20
207.5098765297
 30
0.0
 11
419.6385921661
 21
207.5098765297
 31
0.0
  0
LINE
  5
14A
330
1F
100
AcDbEntity
  8
0
  6
Continuous
 62
     7
370
    18
100
AcDbLine
 10
414.6385921661
 20
212.5098765297
 30
0.0
 11
414.6385921661
 21
207.5098765297
 31
0.0
  0
LINE
  5
14B
330
1F
100
AcDbEntity
  8
0
  6
Continuous
 62
     7
370
    18
100
AcDbLine
 10
419.6385921661
 20
202.5098765297
 30
0.0
 11
419.6385921661
 21
197.5098765297
 31
0.0
  0
LINE
  5
14C
330
1F
100
AcDbEntity
  8
0
  6
Continuous
 62
     7
370
    18
100
AcDbLine
 10
414.6385921661
 20
202.5098765297
 30
0.0
 11
419.6385921661
 21
202.5098765297
 31
0.0
  0
LINE
  5
14D
330
1F
100
AcDbEntity
  8
0
  6
Continuous
 62
     7
370
    18
100
AcDbLine
 10
414.6385921661
 20
197.5098765297
 30
0.0
 11
419.6385921661
 21
197.5098765297
 31
0.0
  0
LINE
  5
14E
330
1F
100
AcDbEntity
  8
0
  6
Continuous
 62
     7
370
    18
100
AcDbLine
 10
414.6385921661
 20
202.5098765297
 30
0.0
 11
414.6385921661
 21
197.5098765297
 31
0.0
  0
LINE
  5
14F
330
1F
100
AcDbEntity
  8
0
  6
Continuous
 62
     7
370
    18
100
AcDbLine
 10
419.6385921661
 20
192.5098765297
 30
0.0
 11
419.6385921661
 21
187.5098765297
 31
0.0
  0
LINE
  5
150
330
1F
100
AcDbEntity
  8
0
  6
Continuous
 62
     7
370
    18
100
AcDbLine
 10
414.6385921661
 20
192.5098765297
 30
0.0
 11
419.6385921661
 21
192.5098765297
 31
0.0
  0
LINE
  5
151
330
1F
100
AcDbEntity
  8
0
  6
Continuous
 62
     7
370
    18
100
AcDbLine
 10
414.6385921661
 20
187.5098765297
 30
0.0
 11
419.6385921661
 21
187.5098765297
 31
0.0
  0
LINE
  5
152
330
1F
100
AcDbEntity
  8
0
  6
Continuous
 62
     7
370
    18
100
AcDbLine
 10
414.6385921661
 20
192.5098765297
 30
0.0
 11
414.6385921661
 21
187.5098765297
 31
0.0
  0
LINE
  5
153
330
1F
100
AcDbEntity
  8
0
  6
Continuous
 62
     7
370
    18
100
AcDbLine
 10
369.6385921661
 20
242.5098765297
 30
0.0
 11
369.6385921661
 21
237.5098765297
 31
0.0
  0
LINE
  5
154
330
1F
100
AcDbEntity
  8
0
  6
Continuous
 62
     7
370
    18
100
AcDbLine
 10
364.6385921661
 20
242.5098765297
 30
0.0
 11
369.6385921661
 21
242.5098765297
 31
0.0
  0
LINE
  5
155
330
1F
100
AcDbEntity
  8
0
  6
Continuous
 62
     7
370
    18
100
AcDbLine
 10
364.6385921661
 20
237.5098765297
 30
0.0
 11
369.6385921661
 21
237.5098765297
 31
0.0
  0
LINE
  5
156
330
1F
100
AcDbEntity
  8
0
  6
Continuous
 62
     7
370
    18
100
AcDbLine
 10
364.6385921661
 20
242.5098765297
 30
0.0
 11
364.6385921661
 21
237.5098765297
 31
0.0
  0
LINE
  5
157
330
1F
100
AcDbEntity
  8
0
  6
Continuous
 62
     7
370
    18
100
AcDbLine
 10
379.6385921661
 20
242.5098765297
 30
0.0
 11
379.6385921661
 21
237.5098765297
 31
0.0
  0
LINE
  5
158
330
1F
100
AcDbEntity
  8
0
  6
Continuous
 62
     7
370
    18
100
AcDbLine
 10
374.6385921661
 20
242.5098765297
 30
0.0
 11
379.6385921661
 21
242.5098765297
 31
0.0
  0
LINE
  5
159
330
1F
100
AcDbEntity
  8
0
  6
Continuous
 62
     7
370
    18
100
AcDbLine
 10
374.6385921661
 20
237.5098765297
 30
0.0
 11
379.6385921661
 21
237.5098765297
 31
0.0
  0
LINE
  5
15A
330
1F
100
AcDbEntity
  8
0
  6
Continuous
 62
     7
370
    18
100
AcDbLine
 10
374.6385921661
 20
242.5098765297
 30
0.0
 11
374.6385921661
 21
237.5098765297
 31
0.0
  0
LINE
  5
15B
330
1F
100
AcDbEntity
  8
0
  6
Continuous
 62
     7
370
    18
100
AcDbLine
 10
389.6385921661
 20
242.5098765297
 30
0.0
 11
389.6385921661
 21
237.5098765297
 31
0.0
  0
LINE
  5
15C
330
1F
100
AcDbEntity
  8
0
  6
Continuous
 62
     7
370
    18
100
AcDbLine
 10
384.6385921661
 20
242.5098765297
 30
0.0
 11
389.6385921661
 21
242.5098765297
 31
0.0
  0
LINE
  5
15D
330
1F
100
AcDbEntity
  8
0
  6
Continuous
 62
     7
370
    18
100
AcDbLine
 10
384.6385921661
 20
237.5098765297
 30
0.0
 11
389.6385921661
 21
237.5098765297
 31
0.0
  0
LINE
  5
15E
330
1F
100
AcDbEntity
  8
0
  6
Continuous
 62
     7
370
    18
100
AcDbLine
 10
384.6385921661
 20
242.5098765297
 30
0.0
 11
384.6385921661
 21
237.5098765297
 31
0.0
  0
LINE
  5
15F
330
1F
100
AcDbEntity
  8
0
  6
Continuous
 62
     7
370
    18
100
AcDbLine
 10
399.6385921661
 20
242.5098765297
 30
0.0
 11
399.6385921661
 21
237.5098765297
 31
0.0
  0
LINE
  5
160
330
1F
100
AcDbEntity
  8
0
  6
Continuous
 62
     7
370
    18
100
AcDbLine
 10
394.6385921661
 20
242.5098765297
 30
0.0
 11
399.6385921661
 21
242.5098765297
 31
0.0
  0
LINE
  5
161
330
1F
100
AcDbEntity
  8
0
  6
Continuous
 62
     7
370
    18
100
AcDbLine
 10
394.6385921661
 20
237.5098765297
 30
0.0
 11
399.6385921661
 21
237.5098765297
 31
0.0
  0
LINE
  5
162
330
1F
100
AcDbEntity
  8
0
  6
Continuous
 62
     7
370
    18
100
AcDbLine
 10
394.6385921661
 20
242.5098765297
 30
0.0
 11
394.6385921661
 21
237.5098765297
 31
0.0
  0
LINE
  5
163
330
1F
100
AcDbEntity
  8
0
  6
Continuous
 62
     7
370
    18
100
AcDbLine
 10
409.6385921661
 20
242.5098765297
 30
0.0
 11
409.6385921661
 21
237.5098765297
 31
0.0
  0
LINE
  5
164
330
1F
100
AcDbEntity
  8
0
  6
Continuous
 62
     7
370
    18
100
AcDbLine
 10
404.6385921661
 20
242.5098765297
 30
0.0
 11
409.6385921661
 21
242.5098765297
 31
0.0
  0
LINE
  5
165
330
1F
100
AcDbEntity
  8
0
  6
Continuous
 62
     7
370
    18
100
AcDbLine
 10
404.6385921661
 20
237.5098765297
 30
0.0
 11
409.6385921661
 21
237.5098765297
 31
0.0
  0
LINE
  5
166
330
1F
100
AcDbEntity
  8
0
  6
Continuous
 62
     7
370
    18
100
AcDbLine
 10
404.6385921661
 20
242.5098765297
 30
0.0
 11
404.6385921661
 21
237.5098765297
 31
0.0
  0
LINE
  5
167
330
1F
100
AcDbEntity
  8
0
  6
Continuous
 62
     7
370
    18
100
AcDbLine
 10
359.6385921661
 20
232.5098765297
 30
0.0
 11
359.6385921661
 21
227.5098765297
 31
0.0
  0
LINE
  5
168
330
1F
100
AcDbEntity
  8
0
  6
Continuous
 62
     7
370
    18
100
AcDbLine
 10
354.6385921661
 20
232.5098765297
 30
0.0
 11
359.6385921661
 21
232.5098765297
 31
0.0
  0
LINE
  5
169
330
1F
100
AcDbEntity
  8
0
  6
Continuous
 62
     7
370
    18
100
AcDbLine
 10
354.6385921661
 20
227.5098765297
 30
0.0
 11
359.6385921661
 21
227.5098765297
 31
0.0
  0
LINE
  5
16A
330
1F
100
AcDbEntity
  8
0
  6
Continuous
 62
     7
370
    18
100
AcDbLine
 10
354.6385921661
 20
232.5098765297
 30
0.0
 11
354.6385921661
 21
227.5098765297
 31
0.0
  0
LINE
  5
16B
330
1F
100
AcDbEntity
  8
0
  6
Continuous
 62
     7
370
    18
100
AcDbLine
 10
369.6385921661
 20
232.5098765297
 30
0.0
 11
369.6385921661
 21
227.5098765297
 31
0.0
  0
LINE
  5
16C
330
1F
100
AcDbEntity
  8
0
  6
Continuous
 62
     7
370
    18
100
AcDbLine
 10
364.6385921661
 20
232.5098765297
 30
0.0
 11
369.6385921661
 21
232.5098765297
 31
0.0
  0
LINE
  5
16D
330
1F
100
AcDbEntity
  8
0
  6
Continuous
 62
     7
370
    18
100
AcDbLine
 10
364.6385921661
 20
227.5098765297
 30
0.0
 11
369.6385921661
 21
227.5098765297
 31
0.0
  0
LINE
  5
16E
330
1F
100
AcDbEntity
  8
0
  6
Continuous
 62
     7
370
    18
100
AcDbLine
 10
364.6385921661
 20
232.5098765297
 30
0.0
 11
364.6385921661
 21
227.5098765297
 31
0.0
  0
LINE
  5
16F
330
1F
100
AcDbEntity
  8
0
  6
Continuous
 62
     7
370
    18
100
AcDbLine
 10
379.6385921661
 20
232.5098765297
 30
0.0
 11
379.6385921661
 21
227.5098765297
 31
0.0
  0
LINE
  5
170
330
1F
100
AcDbEntity
  8
0
  6
Continuous
 62
     7
370
    18
100
AcDbLine
 10
374.6385921661
 20
232.5098765297
 30
0.0
 11
379.6385921661
 21
232.5098765297
 31
0.0
  0
LINE
  5
171
330
1F
100
AcDbEntity
  8
0
  6
Continuous
 62
     7
370
    18
100
AcDbLine
 10
374.6385921661
 20
227.5098765297
 30
0.0
 11
379.6385921661
 21
227.5098765297
 31
0.0
  0
LINE
  5
172
330
1F
100
AcDbEntity
  8
0
  6
Continuous
 62
     7
370
    18
100
AcDbLine
 10
374.6385921661
 20
232.5098765297
 30
0.0
 11
374.6385921661
 21
227.5098765297
 31
0.0
  0
LINE
  5
173
330
1F
100
AcDbEntity
  8
0
  6
Continuous
 62
     7
370
    18
100
AcDbLine
 10
389.6385921661
 20
232.5098765297
 30
0.0
 11
389.6385921661
 21
227.5098765297
 31
0.0
  0
LINE
  5
174
330
1F
100
AcDbEntity
  8
0
  6
Continuous
 62
     7
370
    18
100
AcDbLine
 10
384.6385921661
 20
232.5098765297
 30
0.0
 11
389.6385921661
 21
232.5098765297
 31
0.0
  0
LINE
  5
175
330
1F
100
AcDbEntity
  8
0
  6
Continuous
 62
     7
370
    18
100
AcDbLine
 10
384.6385921661
 20
227.5098765297
 30
0.0
 11
389.6385921661
 21
227.5098765297
 31
0.0
  0
LINE
  5
176
330
1F
100
AcDbEntity
  8
0
  6
Continuous
 62
     7
370
    18
100
AcDbLine
 10
384.6385921661
 20
232.5098765297
 30
0.0
 11
384.6385921661
 21
227.5098765297
 31
0.0
  0
LINE
  5
177
330
1F
100
AcDbEntity
  8
0
  6
Continuous
 62
     7
370
    18
100
AcDbLine
 10
399.6385921661
 20
232.5098765297
 30
0.0
 11
399.6385921661
 21
227.5098765297
 31
0.0
  0
LINE
  5
178
330
1F
100
AcDbEntity
  8
0
  6
Continuous
 62
     7
370
    18
100
AcDbLine
 10
394.6385921661
 20
232.5098765297
 30
0.0
 11
399.6385921661
 21
232.5098765297
 31
0.0
  0
LINE
  5
179
330
1F
100
AcDbEntity
  8
0
  6
Continuous
 62
     7
370
    18
100
AcDbLine
 10
394.6385921661
 20
227.5098765297
 30
0.0
 11
399.6385921661
 21
227.5098765297
 31
0.0
  0
LINE
  5
17A
330
1F
100
AcDbEntity
  8
0
  6
Continuous
 62
     7
370
    18
100
AcDbLine
 10
394.6385921661
 20
232.5098765297
 30
0.0
 11
394.6385921661
 21
227.5098765297
 31
0.0
  0
LINE
  5
17B
330
1F
100
AcDbEntity
  8
0
  6
Continuous
 62
     7
370
    18
100
AcDbLine
 10
409.6385921661
 20
232.5098765297
 30
0.0
 11
409.6385921661
 21
227.5098765297
 31
0.0
  0
LINE
  5
17C
330
1F
100
AcDbEntity
  8
0
  6
Continuous
 62
     7
370
    18
100
AcDbLine
 10
404.6385921661
 20
232.5098765297
 30
0.0
 11
409.6385921661
 21
232.5098765297
 31
0.0
  0
LINE
  5
17D
330
1F
100
AcDbEntity
  8
0
  6
Continuous
 62
     7
370
    18
100
AcDbLine
 10
404.6385921661
 20
227.5098765297
 30
0.0
 11
409.6385921661
 21
227.5098765297
 31
0.0
  0
LINE
  5
17E
330
1F
100
AcDbEntity
  8
0
  6
Continuous
 62
     7
370
    18
100
AcDbLine
 10
404.6385921661
 20
232.5098765297
 30
0.0
 11
404.6385921661
 21
227.5098765297
 31
0.0
  0
LINE
  5
17F
330
1F
100
AcDbEntity
  8
0
  6
Continuous
 62
     7
370
    18
100
AcDbLine
 10
359.6385921661
 20
222.5098765297
 30
0.0
 11
359.6385921661
 21
217.5098765297
 31
0.0
  0
LINE
  5
180
330
1F
100
AcDbEntity
  8
0
  6
Continuous
 62
     7
370
    18
100
AcDbLine
 10
354.6385921661
 20
222.5098765297
 30
0.0
 11
359.6385921661
 21
222.5098765297
 31
0.0
  0
LINE
  5
181
330
1F
100
AcDbEntity
  8
0
  6
Continuous
 62
     7
370
    18
100
AcDbLine
 10
354.6385921661
 20
217.5098765297
 30
0.0
 11
359.6385921661
 21
217.5098765297
 31
0.0
  0
LINE
  5
182
330
1F
100
AcDbEntity
  8
0
  6
Continuous
 62
     7
370
    18
100
AcDbLine
 10
354.6385921661
 20
222.5098765297
 30
0.0
 11
354.6385921661
 21
217.5098765297
 31
0.0
  0
LINE
  5
183
330
1F
100
AcDbEntity
  8
0
  6
Continuous
 62
     7
370
    18
100
AcDbLine
 10
369.6385921661
 20
222.5098765297
 30
0.0
 11
369.6385921661
 21
217.5098765297
 31
0.0
  0
LINE
  5
184
330
1F
100
AcDbEntity
  8
0
  6
Continuous
 62
     7
370
    18
100
AcDbLine
 10
364.6385921661
 20
222.5098765297
 30
0.0
 11
369.6385921661
 21
222.5098765297
 31
0.0
  0
LINE
  5
185
330
1F
100
AcDbEntity
  8
0
  6
Continuous
 62
     7
370
    18
100
AcDbLine
 10
364.6385921661
 20
217.5098765297
 30
0.0
 11
369.6385921661
 21
217.5098765297
 31
0.0
  0
LINE
  5
186
330
1F
100
AcDbEntity
  8
0
  6
Continuous
 62
     7
370
    18
100
AcDbLine
 10
364.6385921661
 20
222.5098765297
 30
0.0
 11
364.6385921661
 21
217.5098765297
 31
0.0
  0
LINE
  5
187
330
1F
100
AcDbEntity
  8
0
  6
Continuous
 62
     7
370
    18
100
AcDbLine
 10
379.6385921661
 20
222.5098765297
 30
0.0
 11
379.6385921661
 21
217.5098765297
 31
0.0
  0
LINE
  5
188
330
1F
100
AcDbEntity
  8
0
  6
Continuous
 62
     7
370
    18
100
AcDbLine
 10
374.6385921661
 20
222.5098765297
 30
0.0
 11
379.6385921661
 21
222.5098765297
 31
0.0
  0
LINE
  5
189
330
1F
100
AcDbEntity
  8
0
  6
Continuous
 62
     7
370
    18
100
AcDbLine
 10
374.6385921661
 20
217.5098765297
 30
0.0
 11
379.6385921661
 21
217.5098765297
 31
0.0
  0
LINE
  5
18A
330
1F
100
AcDbEntity
  8
0
  6
Continuous
 62
     7
370
    18
100
AcDbLine
 10
374.6385921661
 20
222.5098765297
 30
0.0
 11
374.6385921661
 21
217.5098765297
 31
0.0
  0
LINE
  5
18B
330
1F
100
AcDbEntity
  8
0
  6
Continuous
 62
     7
370
    18
100
AcDbLine
 10
389.6385921661
 20
222.5098765297
 30
0.0
 11
389.6385921661
 21
217.5098765297
 31
0.0
  0
LINE
  5
18C
330
1F
100
AcDbEntity
  8
0
  6
Continuous
 62
     7
370
    18
100
AcDbLine
 10
384.6385921661
 20
222.5098765297
 30
0.0
 11
389.6385921661
 21
222.5098765297
 31
0.0
  0
LINE
  5
18D
330
1F
100
AcDbEntity
  8
0
  6
Continuous
 62
     7
370
    18
100
AcDbLine
 10
384.6385921661
 20
217.5098765297
 30
0.0
 11
389.6385921661
 21
217.5098765297
 31
0.0
  0
LINE
  5
18E
330
1F
100
AcDbEntity
  8
0
  6
Continuous
 62
     7
370
    18
100
AcDbLine
 10
384.6385921661
 20
222.5098765297
 30
0.0
 11
384.6385921661
 21
217.5098765297
 31
0.0
  0
LINE
  5
18F
330
1F
100
AcDbEntity
  8
0
  6
Continuous
 62
     7
370
    18
100
AcDbLine
 10
399.6385921661
 20
222.5098765297
 30
0.0
 11
399.6385921661
 21
217.5098765297
 31
0.0
  0
LINE
  5
190
330
1F
100
AcDbEntity
  8
0
  6
Continuous
 62
     7
370
    18
100
AcDbLine
 10
394.6385921661
 20
222.5098765297
 30
0.0
 11
399.6385921661
 21
222.5098765297
 31
0.0
  0
LINE
  5
191
330
1F
100
AcDbEntity
  8
0
  6
Continuous
 62
     7
370
    18
100
AcDbLine
 10
394.6385921661
 20
217.5098765297
 30
0.0
 11
399.6385921661
 21
217.5098765297
 31
0.0
  0
LINE
  5
192
330
1F
100
AcDbEntity
  8
0
  6
Continuous
 62
     7
370
    18
100
AcDbLine
 10
394.6385921661
 20
222.5098765297
 30
0.0
 11
394.6385921661
 21
217.5098765297
 31
0.0
  0
LINE
  5
193
330
1F
100
AcDbEntity
  8
0
  6
Continuous
 62
     7
370
    18
100
AcDbLine
 10
409.6385921661
 20
222.5098765297
 30
0.0
 11
409.6385921661
 21
217.5098765297
 31
0.0
  0
LINE
  5
194
330
1F
100
AcDbEntity
  8
0
  6
Continuous
 62
     7
370
    18
100
AcDbLine
 10
404.6385921661
 20
222.5098765297
 30
0.0
 11
409.6385921661
 21
222.5098765297
 31
0.0
  0
LINE
  5
195
330
1F
100
AcDbEntity
  8
0
  6
Continuous
 62
     7
370
    18
100
AcDbLine
 10
404.6385921661
 20
217.5098765297
 30
0.0
 11
409.6385921661
 21
217.5098765297
 31
0.0
  0
LINE
  5
196
330
1F
100
AcDbEntity
  8
0
  6
Continuous
 62
     7
370
    18
100
AcDbLine
 10
404.6385921661
 20
222.5098765297
 30
0.0
 11
404.6385921661
 21
217.5098765297
 31
0.0
  0
LINE
  5
197
330
1F
100
AcDbEntity
  8
0
  6
Continuous
 62
     7
370
    18
100
AcDbLine
 10
359.6385921661
 20
212.5098765297
 30
0.0
 11
359.6385921661
 21
207.5098765297
 31
0.0
  0
LINE
  5
198
330
1F
100
AcDbEntity
  8
0
  6
Continuous
 62
     7
370
    18
100
AcDbLine
 10
354.6385921661
 20
212.5098765297
 30
0.0
 11
359.6385921661
 21
212.5098765297
 31
0.0
  0
LINE
  5
199
330
1F
100
AcDbEntity
  8
0
  6
Continuous
 62
     7
370
    18
100
AcDbLine
 10
354.6385921661
 20
207.5098765297
 30
0.0
 11
359.6385921661
 21
207.5098765297
 31
0.0
  0
LINE
  5
19A
330
1F
100
AcDbEntity
  8
0
  6
Continuous
 62
     7
370
    18
100
AcDbLine
 10
354.6385921661
 20
212.5098765297
 30
0.0
 11
354.6385921661
 21
207.5098765297
 31
0.0
  0
LINE
  5
19B
330
1F
100
AcDbEntity
  8
0
  6
Continuous
 62
     7
370
    18
100
AcDbLine
 10
369.6385921661
 20
212.5098765297
 30
0.0
 11
369.6385921661
 21
207.5098765297
 31
0.0
  0
LINE
  5
19C
330
1F
100
AcDbEntity
  8
0
  6
Continuous
 62
     7
370
    18
100
AcDbLine
 10
364.6385921661
 20
212.5098765297
 30
0.0
 11
369.6385921661
 21
212.5098765297
 31
0.0
  0
LINE
  5
19D
330
1F
100
AcDbEntity
  8
0
  6
Continuous
 62
     7
370
    18
100
AcDbLine
 10
364.6385921661
 20
207.5098765297
 30
0.0
 11
369.6385921661
 21
207.5098765297
 31
0.0
  0
LINE
  5
19E
330
1F
100
AcDbEntity
  8
0
  6
Continuous
 62
     7
370
    18
100
AcDbLine
 10
364.6385921661
 20
212.5098765297
 30
0.0
 11
364.6385921661
 21
207.5098765297
 31
0.0
  0
LINE
  5
19F
330
1F
100
AcDbEntity
  8
0
  6
Continuous
 62
     7
370
    18
100
AcDbLine
 10
379.6385921661
 20
212.5098765297
 30
0.0
 11
379.6385921661
 21
207.5098765297
 31
0.0
  0
LINE
  5
1A0
330
1F
100
AcDbEntity
  8
0
  6
Continuous
 62
     7
370
    18
100
AcDbLine
 10
374.6385921661
 20
212.5098765297
 30
0.0
 11
379.6385921661
 21
212.5098765297
 31
0.0
  0
LINE
  5
1A1
330
1F
100
AcDbEntity
  8
0
  6
Continuous
 62
     7
370
    18
100
AcDbLine
 10
374.6385921661
 20
207.5098765297
 30
0.0
 11
379.6385921661
 21
207.5098765297
 31
0.0
  0
LINE
  5
1A2
330
1F
100
AcDbEntity
  8
0
  6
Continuous
 62
     7
370
    18
100
AcDbLine
 10
374.6385921661
 20
212.5098765297
 30
0.0
 11
374.6385921661
 21
207.5098765297
 31
0.0
  0
LINE
  5
1A3
330
1F
100
AcDbEntity
  8
0
  6
Continuous
 62
     7
370
    18
100
AcDbLine
 10
389.6385921661
 20
212.5098765297
 30
0.0
 11
389.6385921661
 21
207.5098765297
 31
0.0
  0
LINE
  5
1A4
330
1F
100
AcDbEntity
  8
0
  6
Continuous
 62
     7
370
    18
100
AcDbLine
 10
384.6385921661
 20
212.5098765297
 30
0.0
 11
389.6385921661
 21
212.5098765297
 31
0.0
  0
LINE
  5
1A5
330
1F
100
AcDbEntity
  8
0
  6
Continuous
 62
     7
370
    18
100
AcDbLine
 10
384.6385921661
 20
207.5098765297
 30
0.0
 11
389.6385921661
 21
207.5098765297
 31
0.0
  0
LINE
  5
1A6
330
1F
100
AcDbEntity
  8
0
  6
Continuous
 62
     7
370
    18
100
AcDbLine
 10
384.6385921661
 20
212.5098765297
 30
0.0
 11
384.6385921661
 21
207.5098765297
 31
0.0
  0
LINE
  5
1A7
330
1F
100
AcDbEntity
  8
0
  6
Continuous
 62
     7
370
    18
100
AcDbLine
 10
399.6385921661
 20
212.5098765297
 30
0.0
 11
399.6385921661
 21
207.5098765297
 31
0.0
  0
LINE
  5
1A8
330
1F
100
AcDbEntity
  8
0
  6
Continuous
 62
     7
370
    18
100
AcDbLine
 10
394.6385921661
 20
212.5098765297
 30
0.0
 11
399.6385921661
 21
212.5098765297
 31
0.0
  0
LINE
  5
1A9
330
1F
100
AcDbEntity
  8
0
  6
Continuous
 62
     7
370
    18
100
AcDbLine
 10
394.6385921661
 20
207.5098765297
 30
0.0
 11
399.6385921661
 21
207.5098765297
 31
0.0
  0
LINE
  5
1AA
330
1F
100
AcDbEntity
  8
0
  6
Continuous
 62
     7
370
    18
100
AcDbLine
 10
394.6385921661
 20
212.5098765297
 30
0.0
 11
394.6385921661
 21
207.5098765297
 31
0.0
  0
LINE
  5
1AB
330
1F
100
AcDbEntity
  8
0
  6
Continuous
 62
     7
370
    18
100
AcDbLine
 10
409.6385921661
 20
212.5098765297
 30
0.0
 11
409.6385921661
 21
207.5098765297
 31
0.0
  0
LINE
  5
1AC
330
1F
100
AcDbEntity
  8
0
  6
Continuous
 62
     7
370
    18
100
AcDbLine
 10
404.6385921661
 20
212.5098765297
 30
0.0
 11
409.6385921661
 21
212.5098765297
 31
0.0
  0
LINE
  5
1AD
330
1F
100
AcDbEntity
  8
0
  6
Continuous
 62
     7
370
    18
100
AcDbLine
 10
404.6385921661
 20
207.5098765297
 30
0.0
 11
409.6385921661
 21
207.5098765297
 31
0.0
  0
LINE
  5
1AE
330
1F
100
AcDbEntity
  8
0
  6
Continuous
 62
     7
370
    18
100
AcDbLine
 10
404.6385921661
 20
212.5098765297
 30
0.0
 11
404.6385921661
 21
207.5098765297
 31
0.0
  0
LINE
  5
1AF
330
1F
100
AcDbEntity
  8
0
  6
Continuous
 62
     7
370
    18
100
AcDbLine
 10
359.6385921661
 20
202.5098765297
 30
0.0
 11
359.6385921661
 21
197.5098765297
 31
0.0
  0
LINE
  5
1B0
330
1F
100
AcDbEntity
  8
0
  6
Continuous
 62
     7
370
    18
100
AcDbLine
 10
354.6385921661
 20
202.5098765297
 30
0.0
 11
359.6385921661
 21
202.5098765297
 31
0.0
  0
LINE
  5
1B1
330
1F
100
AcDbEntity
  8
0
  6
Continuous
 62
     7
370
    18
100
AcDbLine
 10
354.6385921661
 20
197.5098765297
 30
0.0
 11
359.6385921661
 21
197.5098765297
 31
0.0
  0
LINE
  5
1B2
330
1F
100
AcDbEntity
  8
0
  6
Continuous
 62
     7
370
    18
100
AcDbLine
 10
354.6385921661
 20
202.5098765297
 30
0.0
 11
354.6385921661
 21
197.5098765297
 31
0.0
  0
LINE
  5
1B3
330
1F
100
AcDbEntity
  8
0
  6
Continuous
 62
     7
370
    18
100
AcDbLine
 10
369.6385921661
 20
202.5098765297
 30
0.0
 11
369.6385921661
 21
197.5098765297
 31
0.0
  0
LINE
  5
1B4
330
1F
100
AcDbEntity
  8
0
  6
Continuous
 62
     7
370
    18
100
AcDbLine
 10
364.6385921661
 20
202.5098765297
 30
0.0
 11
369.6385921661
 21
202.5098765297
 31
0.0
  0
LINE
  5
1B5
330
1F
100
AcDbEntity
  8
0
  6
Continuous
 62
     7
370
    18
100
AcDbLine
 10
364.6385921661
 20
197.5098765297
 30
0.0
 11
369.6385921661
 21
197.5098765297
 31
0.0
  0
LINE
  5
1B6
330
1F
100
AcDbEntity
  8
0
  6
Continuous
 62
     7
370
    18
100
AcDbLine
 10
364.6385921661
 20
202.5098765297
 30
0.0
 11
364.6385921661
 21
197.5098765297
 31
0.0
  0
LINE
  5
1B7
330
1F
100
AcDbEntity
  8
0
  6
Continuous
 62
     7
370
    18
100
AcDbLine
 10
379.6385921661
 20
202.5098765297
 30
0.0
 11
379.6385921661
 21
197.5098765297
 31
0.0
  0
LINE
  5
1B8
330
1F
100
AcDbEntity
  8
0
  6
Continuous
 62
     7
370
    18
100
AcDbLine
 10
374.6385921661
 20
202.5098765297
 30
0.0
 11
379.6385921661
 21
202.5098765297
 31
0.0
  0
LINE
  5
1B9
330
1F
100
AcDbEntity
  8
0
  6
Continuous
 62
     7
370
    18
100
AcDbLine
 10
374.6385921661
 20
197.5098765297
 30
0.0
 11
379.6385921661
 21
197.5098765297
 31
0.0
  0
LINE
  5
1BA
330
1F
100
AcDbEntity
  8
0
  6
Continuous
 62
     7
370
    18
100
AcDbLine
 10
374.6385921661
 20
202.5098765297
 30
0.0
 11
374.6385921661
 21
197.5098765297
 31
0.0
  0
LINE
  5
1BB
330
1F
100
AcDbEntity
  8
0
  6
Continuous
 62
     7
370
    18
100
AcDbLine
 10
389.6385921661
 20
202.5098765297
 30
0.0
 11
389.6385921661
 21
197.5098765297
 31
0.0
  0
LINE
  5
1BC
330
1F
100
AcDbEntity
  8
0
  6
Continuous
 62
     7
370
    18
100
AcDbLine
 10
384.6385921661
 20
202.5098765297
 30
0.0
 11
389.6385921661
 21
202.5098765297
 31
0.0
  0
LINE
  5
1BD
330
1F
100
AcDbEntity
  8
0
  6
Continuous
 62
     7
370
    18
100
AcDbLine
 10
384.6385921661
 20
197.5098765297
 30
0.0
 11
389.6385921661
 21
197.5098765297
 31
0.0
  0
LINE
  5
1BE
330
1F
100
AcDbEntity
  8
0
  6
Continuous
 62
     7
370
    18
100
AcDbLine
 10
384.6385921661
 20
202.5098765297
 30
0.0
 11
384.6385921661
 21
197.5098765297
 31
0.0
  0
LINE
  5
1BF
330
1F
100
AcDbEntity
  8
0
  6
Continuous
 62
     7
370
    18
100
AcDbLine
 10
399.6385921661
 20
202.5098765297
 30
0.0
 11
399.6385921661
 21
197.5098765297
 31
0.0
  0
LINE
  5
1C0
330
1F
100
AcDbEntity
  8
0
  6
Continuous
 62
     7
370
    18
100
AcDbLine
 10
394.6385921661
 20
202.5098765297
 30
0.0
 11
399.6385921661
 21
202.5098765297
 31
0.0
  0
LINE
  5
1C1
330
1F
100
AcDbEntity
  8
0
  6
Continuous
 62
     7
370
    18
100
AcDbLine
 10
394.6385921661
 20
197.5098765297
 30
0.0
 11
399.6385921661
 21
197.5098765297
 31
0.0
  0
LINE
  5
1C2
330
1F
100
AcDbEntity
  8
0
  6
Continuous
 62
     7
370
    18
100
AcDbLine
 10
394.6385921661
 20
202.5098765297
 30
0.0
 11
394.6385921661
 21
197.5098765297
 31
0.0
  0
LINE
  5
1C3
330
1F
100
AcDbEntity
  8
0
  6
Continuous
 62
     7
370
    18
100
AcDbLine
 10
409.6385921661
 20
202.5098765297
 30
0.0
 11
409.6385921661
 21
197.5098765297
 31
0.0
  0
LINE
  5
1C4
330
1F
100
AcDbEntity
  8
0
  6
Continuous
 62
     7
370
    18
100
AcDbLine
 10
404.6385921661
 20
202.5098765297
 30
0.0
 11
409.6385921661
 21
202.5098765297
 31
0.0
  0
LINE
  5
1C5
330
1F
100
AcDbEntity
  8
0
  6
Continuous
 62
     7
370
    18
100
AcDbLine
 10
404.6385921661
 20
197.5098765297
 30
0.0
 11
409.6385921661
 21
197.5098765297
 31
0.0
  0
LINE
  5
1C6
330
1F
100
AcDbEntity
  8
0
  6
Continuous
 62
     7
370
    18
100
AcDbLine
 10
404.6385921661
 20
202.5098765297
 30
0.0
 11
404.6385921661
 21
197.5098765297
 31
0.0
  0
LINE
  5
1C7
330
1F
100
AcDbEntity
  8
0
  6
Continuous
 62
     7
370
    18
100
AcDbLine
 10
359.6385921661
 20
192.5098765297
 30
0.0
 11
359.6385921661
 21
187.5098765297
 31
0.0
  0
LINE
  5
1C8
330
1F
100
AcDbEntity
  8
0
  6
Continuous
 62
     7
370
    18
100
AcDbLine
 10
354.6385921661
 20
192.5098765297
 30
0.0
 11
359.6385921661
 21
192.5098765297
 31
0.0
  0
LINE
  5
1C9
330
1F
100
AcDbEntity
  8
0
  6
Continuous
 62
     7
370
    18
100
AcDbLine
 10
354.6385921661
 20
187.5098765297
 30
0.0
 11
359.6385921661
 21
187.5098765297
 31
0.0
  0
LINE
  5
1CA
330
1F
100
AcDbEntity
  8
0
  6
Continuous
 62
     7
370
    18
100
AcDbLine
 10
354.6385921661
 20
192.5098765297
 30
0.0
 11
354.6385921661
 21
187.5098765297
 31
0.0
  0
LINE
  5
1CB
330
1F
100
AcDbEntity
  8
0
  6
Continuous
 62
     7
370
    18
100
AcDbLine
 10
369.6385921661
 20
192.5098765297
 30
0.0
 11
369.6385921661
 21
187.5098765297
 31
0.0
  0
LINE
  5
1CC
330
1F
100
AcDbEntity
  8
0
  6
Continuous
 62
     7
370
    18
100
AcDbLine
 10
364.6385921661
 20
192.5098765297
 30
0.0
 11
369.6385921661
 21
192.5098765297
 31
0.0
  0
LINE
  5
1CD
330
1F
100
AcDbEntity
  8
0
  6
Continuous
 62
     7
370
    18
100
AcDbLine
 10
364.6385921661
 20
187.5098765297
 30
0.0
 11
369.6385921661
 21
187.5098765297
 31
0.0
  0
LINE
  5
1CE
330
1F
100
AcDbEntity
  8
0
  6
Continuous
 62
     7
370
    18
100
AcDbLine
 10
364.6385921661
 20
192.5098765297
 30
0.0
 11
364.6385921661
 21
187.5098765297
 31
0.0
  0
LINE
  5
1CF
330
1F
100
AcDbEntity
  8
0
  6
Continuous
 62
     7
370
    18
100
AcDbLine
 10
379.6385921661
 20
192.5098765297
 30
0.0
 11
379.6385921661
 21
187.5098765297
 31
0.0
  0
LINE
  5
1D0
330
1F
100
AcDbEntity
  8
0
  6
Continuous
 62
     7
370
    18
100
AcDbLine
 10
374.6385921661
 20
192.5098765297
 30
0.0
 11
379.6385921661
 21
192.5098765297
 31
0.0
  0
LINE
  5
1D1
330
1F
100
AcDbEntity
  8
0
  6
Continuous
 62
     7
370
    18
100
AcDbLine
 10
374.6385921661
 20
187.5098765297
 30
0.0
 11
379.6385921661
 21
187.5098765297
 31
0.0
  0
LINE
  5
1D2
330
1F
100
AcDbEntity
  8
0
  6
Continuous
 62
     7
370
    18
100
AcDbLine
 10
374.6385921661
 20
192.5098765297
 30
0.0
 11
374.6385921661
 21
187.5098765297
 31
0.0
  0
LINE
  5
1D3
330
1F
100
AcDbEntity
  8
0
  6
Continuous
 62
     7
370
    18
100
AcDbLine
 10
389.6385921661
 20
192.5098765297
 30
0.0
 11
389.6385921661
 21
187.5098765297
 31
0.0
  0
LINE
  5
1D4
330
1F
100
AcDbEntity
  8
0
  6
Continuous
 62
     7
370
    18
100
AcDbLine
 10
384.6385921661
 20
192.5098765297
 30
0.0
 11
389.6385921661
 21
192.5098765297
 31
0.0
  0
LINE
  5
1D5
330
1F
100
AcDbEntity
  8
0
  6
Continuous
 62
     7
370
    18
100
AcDbLine
 10
384.6385921661
 20
187.5098765297
 30
0.0
 11
389.6385921661
 21
187.5098765297
 31
0.0
  0
LINE
  5
1D6
330
1F
100
AcDbEntity
  8
0
  6
Continuous
 62
     7
370
    18
100
AcDbLine
 10
384.6385921661
 20
192.5098765297
 30
0.0
 11
384.6385921661
 21
187.5098765297
 31
0.0
  0
LINE
  5
1D7
330
1F
100
AcDbEntity
  8
0
  6
Continuous
 62
     7
370
    18
100
AcDbLine
 10
399.6385921661
 20
192.5098765297
 30
0.0
 11
399.6385921661
 21
187.5098765297
 31
0.0
  0
LINE
  5
1D8
330
1F
100
AcDbEntity
  8
0
  6
Continuous
 62
     7
370
    18
100
AcDbLine
 10
394.6385921661
 20
192.5098765297
 30
0.0
 11
399.6385921661
 21
192.5098765297
 31
0.0
  0
LINE
  5
1D9
330
1F
100
AcDbEntity
  8
0
  6
Continuous
 62
     7
370
    18
100
AcDbLine
 10
394.6385921661
 20
187.5098765297
 30
0.0
 11
399.6385921661
 21
187.5098765297
 31
0.0
  0
LINE
  5
1DA
330
1F
100
AcDbEntity
  8
0
  6
Continuous
 62
     7
370
    18
100
AcDbLine
 10
394.6385921661
 20
192.5098765297
 30
0.0
 11
394.6385921661
 21
187.5098765297
 31
0.0
  0
LINE
  5
1DB
330
1F
100
AcDbEntity
  8
0
  6
Continuous
 62
     7
370
    18
100
AcDbLine
 10
409.6385921661
 20
192.5098765297
 30
0.0
 11
409.6385921661
 21
187.5098765297
 31
0.0
  0
LINE
  5
1DC
330
1F
100
AcDbEntity
  8
0
  6
Continuous
 62
     7
370
    18
100
AcDbLine
 10
404.6385921661
 20
192.5098765297
 30
0.0
 11
409.6385921661
 21
192.5098765297
 31
0.0
  0
LINE
  5
1DD
330
1F
100
AcDbEntity
  8
0
  6
Continuous
 62
     7
370
    18
100
AcDbLine
 10
404.6385921661
 20
187.5098765297
 30
0.0
 11
409.6385921661
 21
187.5098765297
 31
0.0
  0
LINE
  5
1DE
330
1F
100
AcDbEntity
  8
0
  6
Continuous
 62
     7
370
    18
100
AcDbLine
 10
404.6385921661
 20
192.5098765297
 30
0.0
 11
404.6385921661
 21
187.5098765297
 31
0.0
  0
LINE
  5
1DF
330
1F
100
AcDbEntity
  8
0
  6
Continuous
 62
     7
370
    18
100
AcDbLine
 10
369.6385921661
 20
182.5098765297
 30
0.0
 11
369.6385921661
 21
177.5098765297
 31
0.0
  0
LINE
  5
1E0
330
1F
100
AcDbEntity
  8
0
  6
Continuous
 62
     7
370
    18
100
AcDbLine
 10
364.6385921661
 20
182.5098765297
 30
0.0
 11
369.6385921661
 21
182.5098765297
 31
0.0
  0
LINE
  5
1E1
330
1F
100
AcDbEntity
  8
0
  6
Continuous
 62
     7
370
    18
100
AcDbLine
 10
364.6385921661
 20
177.5098765297
 30
0.0
 11
369.6385921661
 21
177.5098765297
 31
0.0
  0
LINE
  5
1E2
330
1F
100
AcDbEntity
  8
0
  6
Continuous
 62
     7
370
    18
100
AcDbLine
 10
364.6385921661
 20
182.5098765297
 30
0.0
 11
364.6385921661
 21
177.5098765297
 31
0.0
  0
LINE
  5
1E3
330
1F
100
AcDbEntity
  8
0
  6
Continuous
 62
     7
370
    18
100
AcDbLine
 10
379.6385921661
 20
182.5098765297
 30
0.0
 11
379.6385921661
 21
177.5098765297
 31
0.0
  0
LINE
  5
1E4
330
1F
100
AcDbEntity
  8
0
  6
Continuous
 62
     7
370
    18
100
AcDbLine
 10
374.6385921661
 20
182.5098765297
 30
0.0
 11
379.6385921661
 21
182.5098765297
 31
0.0
  0
LINE
  5
1E5
330
1F
100
AcDbEntity
  8
0
  6
Continuous
 62
     7
370
    18
100
AcDbLine
 10
374.6385921661
 20
177.5098765297
 30
0.0
 11
379.6385921661
 21
177.5098765297
 31
0.0
  0
LINE
  5
1E6
330
1F
100
AcDbEntity
  8
0
  6
Continuous
 62
     7
370
    18
100
AcDbLine
 10
374.6385921661
 20
182.5098765297
 30
0.0
 11
374.6385921661
 21
177.5098765297
 31
0.0
  0
LINE
  5
1E7
330
1F
100
AcDbEntity
  8
0
  6
Continuous
 62
     7
370
    18
100
AcDbLine
 10
389.6385921661
 20
182.5098765297
 30
0.0
 11
389.6385921661
 21
177.5098765297
 31
0.0
  0
LINE
  5
1E8
330
1F
100
AcDbEntity
  8
0
  6
Continuous
 62
     7
370
    18
100
AcDbLine
 10
384.6385921661
 20
182.5098765297
 30
0.0
 11
389.6385921661
 21
182.5098765297
 31
0.0
  0
LINE
  5
1E9
330
1F
100
AcDbEntity
  8
0
  6
Continuous
 62
     7
370
    18
100
AcDbLine
 10
384.6385921661
 20
177.5098765297
 30
0.0
 11
389.6385921661
 21
177.5098765297
 31
0.0
  0
LINE
  5
1EA
330
1F
100
AcDbEntity
  8
0
  6
Continuous
 62
     7
370
    18
100
AcDbLine
 10
384.6385921661
 20
182.5098765297
 30
0.0
 11
384.6385921661
 21
177.5098765297
 31
0.0
  0
LINE
  5
1EB
330
1F
100
AcDbEntity
  8
0
  6
Continuous
 62
     7
370
    18
100
AcDbLine
 10
399.6385921661
 20
182.5098765297
 30
0.0
 11
399.6385921661
 21
177.5098765297
 31
0.0
  0
LINE
  5
1EC
330
1F
100
AcDbEntity
  8
0
  6
Continuous
 62
     7
370
    18
100
AcDbLine
 10
394.6385921661
 20
182.5098765297
 30
0.0
 11
399.6385921661
 21
182.5098765297
 31
0.0
  0
LINE
  5
1ED
330
1F
100
AcDbEntity
  8
0
  6
Continuous
 62
     7
370
    18
100
AcDbLine
 10
394.6385921661
 20
177.5098765297
 30
0.0
 11
399.6385921661
 21
177.5098765297
 31
0.0
  0
LINE
  5
1EE
330
1F
100
AcDbEntity
  8
0
  6
Continuous
 62
     7
370
    18
100
AcDbLine
 10
394.6385921661
 20
182.5098765297
 30
0.0
 11
394.6385921661
 21
177.5098765297
 31
0.0
  0
LINE
  5
1EF
330
1F
100
AcDbEntity
  8
0
  6
Continuous
 62
     7
370
    18
100
AcDbLine
 10
409.6385921661
 20
182.5098765297
 30
0.0
 11
409.6385921661
 21
177.5098765297
 31
0.0
  0
LINE
  5
1F0
330
1F
100
AcDbEntity
  8
0
  6
Continuous
 62
     7
370
    18
100
AcDbLine
 10
404.6385921661
 20
182.5098765297
 30
0.0
 11
409.6385921661
 21
182.5098765297
 31
0.0
  0
LINE
  5
1F1
330
1F
100
AcDbEntity
  8
0
  6
Continuous
 62
     7
370
    18
100
AcDbLine
 10
404.6385921661
 20
177.5098765297
 30
0.0
 11
409.6385921661
 21
177.5098765297
 31
0.0
  0
LINE
  5
1F2
330
1F
100
AcDbEntity
  8
0
  6
Continuous
 62
     7
370
    18
100
AcDbLine
 10
404.6385921661
 20
182.5098765297
 30
0.0
 11
404.6385921661
 21
177.5098765297
 31
0.0
  0
LINE
  5
1F3
330
1F
100
AcDbEntity
  8
0
  6
Continuous
 62
     7
370
    18
100
AcDbLine
 10
274.6631077173
 20
280.1517409859
 30
0.0
 11
274.6631077173
 21
248.7576600522
 31
0.0
  0
LINE
  5
1F4
330
1F
100
AcDbEntity
  8
0
  6
Continuous
 62
     7
370
    18
100
AcDbLine
 10
221.7877966376
 20
100.8882283712
 30
0.0
 11
221.7877966376
 21
95.8882283712
 31
0.0
  0
LINE
  5
1F5
330
1F
100
AcDbEntity
  8
0
  6
Continuous
 62
     7
370
    18
100
AcDbLine
 10
216.7877966376
 20
100.8882283712
 30
0.0
 11
221.7877966376
 21
100.8882283712
 31
0.0
  0
LINE
  5
1F6
330
1F
100
AcDbEntity
  8
0
  6
Continuous
 62
     7
370
    18
100
AcDbLine
 10
216.7877966376
 20
95.8882283712
 30
0.0
 11
221.7877966376
 21
95.8882283712
 31
0.0
  0
LINE
  5
1F7
330
1F
100
AcDbEntity
  8
0
  6
Continuous
 62
     7
370
    18
100
AcDbLine
 10
216.7877966376
 20
100.8882283712
 30
0.0
 11
216.7877966376
 21
95.8882283712
 31
0.0
  0
LINE
  5
1F8
330
1F
100
AcDbEntity
  8
0
  6
Continuous
 62
     7
370
    18
100
AcDbLine
 10
231.7877966376
 20
100.8882283712
 30
0.0
 11
231.7877966376
 21
95.8882283712
 31
0.0
  0
LINE
  5
1F9
330
1F
100
AcDbEntity
  8
0
  6
Continuous
 62
     7
370
    18
100
AcDbLine
 10
226.7877966376
 20
100.8882283712
 30
0.0
 11
231.7877966376
 21
100.8882283712
 31
0.0
  0
LINE
  5
1FA
330
1F
100
AcDbEntity
  8
0
  6
Continuous
 62
     7
370
    18
100
AcDbLine
 10
243.5234152581
 20
113.3333170078
 30
0.0
 11
209.5234152581
 21
113.3333170078
 31
0.0
  0
LINE
  5
1FB
330
1F
100
AcDbEntity
  8
0
  6
Continuous
 62
     7
370
    18
100
AcDbLine
 10
209.5234152581
 20
113.3333170078
 30
0.0
 11
209.5234152581
 21
23.3333170078
 31
0.0
  0
LINE
  5
1FC
330
1F
100
AcDbEntity
  8
0
  6
Continuous
 62
     7
370
    18
100
AcDbLine
 10
226.7877966376
 20
95.8882283712
 30
0.0
 11
231.7877966376
 21
95.8882283712
 31
0.0
  0
LINE
  5
1FD
330
1F
100
AcDbEntity
  8
0
  6
Continuous
 62
     7
370
    18
100
AcDbLine
 10
226.7877966376
 20
100.8882283712
 30
0.0
 11
226.7877966376
 21
95.8882283712
 31
0.0
  0
LINE
  5
1FE
330
1F
100
AcDbEntity
  8
0
  6
Continuous
 62
     7
370
    18
100
AcDbLine
 10
243.5234152581
 20
23.3333170078
 30
0.0
 11
209.5234152581
 21
23.3333170078
 31
0.0
  0
LINE
  5
1FF
330
1F
100
AcDbEntity
  8
0
  6
Continuous
 62
     7
370
    18
100
AcDbLine
 10
249.5234152581
 20
113.3333170078
 30
0.0
 11
249.5234152581
 21
118.3333170078
 31
0.0
  0
LINE
  5
200
330
1F
100
AcDbEntity
  8
0
  6
Continuous
 62
     7
370
    18
100
AcDbLine
 10
241.7877966376
 20
100.8882283712
 30
0.0
 11
241.7877966376
 21
95.8882283712
 31
0.0
  0
LINE
  5
201
330
1F
100
AcDbEntity
  8
0
  6
Continuous
 62
     7
370
    18
100
AcDbLine
 10
236.7877966376
 20
100.8882283712
 30
0.0
 11
241.7877966376
 21
100.8882283712
 31
0.0
  0
LINE
  5
202
330
1F
100
AcDbEntity
  8
0
  6
Continuous
 62
     7
370
    18
100
AcDbLine
 10
243.5234152581
 20
113.3333170078
 30
0.0
 11
239.5170728855
 21
113.3333170078
 31
0.0
  0
LINE
  5
203
330
1F
100
AcDbEntity
  8
0
  6
Continuous
 62
     7
370
    18
100
AcDbLine
 10
249.5234152581
 20
23.3333170078
 30
0.0
 11
249.5234152581
 21
18.3333170078
 31
0.0
  0
LINE
  5
204
330
1F
100
AcDbEntity
  8
0
  6
Continuous
 62
     7
370
    18
100
AcDbLine
 10
243.5234152581
 20
23.3333170078
 30
0.0
 11
239.5170728855
 21
23.3333170078
 31
0.0
  0
LINE
  5
205
330
1F
100
AcDbEntity
  8
0
  6
Continuous
 62
     7
370
    18
100
AcDbLine
 10
236.7877966376
 20
95.8882283712
 30
0.0
 11
241.7877966376
 21
95.8882283712
 31
0.0
  0
LINE
  5
206
330
1F
100
AcDbEntity
  8
0
  6
Continuous
 62
     7
370
    18
100
AcDbLine
 10
236.7877966376
 20
100.8882283712
 30
0.0
 11
236.7877966376
 21
95.8882283712
 31
0.0
  0
LINE
  5
207
330
1F
100
AcDbEntity
  8
0
  6
Continuous
 62
     7
370
    18
100
AcDbLine
 10
221.7877966376
 20
90.8882283712
 30
0.0
 11
221.7877966376
 21
85.8882283712
 31
0.0
  0
LINE
  5
208
330
1F
100
AcDbEntity
  8
0
  6
Continuous
 62
     7
370
    18
100
AcDbLine
 10
216.7877966376
 20
90.8882283712
 30
0.0
 11
221.7877966376
 21
90.8882283712
 31
0.0
  0
LINE
  5
209
330
1F
100
AcDbEntity
  8
0
  6
Continuous
 62
     7
370
    18
100
AcDbLine
 10
216.7877966376
 20
85.8882283712
 30
0.0
 11
221.7877966376
 21
85.8882283712
 31
0.0
  0
LINE
  5
20A
330
1F
100
AcDbEntity
  8
0
  6
Continuous
 62
     7
370
    18
100
AcDbLine
 10
216.7877966376
 20
90.8882283712
 30
0.0
 11
216.7877966376
 21
85.8882283712
 31
0.0
  0
LINE
  5
20B
330
1F
100
AcDbEntity
  8
0
  6
Continuous
 62
     7
370
    18
100
AcDbLine
 10
231.7877966376
 20
90.8882283712
 30
0.0
 11
231.7877966376
 21
85.8882283712
 31
0.0
  0
LINE
  5
20C
330
1F
100
AcDbEntity
  8
0
  6
Continuous
 62
     7
370
    18
100
AcDbLine
 10
226.7877966376
 20
90.8882283712
 30
0.0
 11
231.7877966376
 21
90.8882283712
 31
0.0
  0
LINE
  5
20D
330
1F
100
AcDbEntity
  8
0
  6
Continuous
 62
     7
370
    18
100
AcDbLine
 10
226.7877966376
 20
85.8882283712
 30
0.0
 11
231.7877966376
 21
85.8882283712
 31
0.0
  0
LINE
  5
20E
330
1F
100
AcDbEntity
  8
0
  6
Continuous
 62
     7
370
    18
100
AcDbLine
 10
226.7877966376
 20
90.8882283712
 30
0.0
 11
226.7877966376
 21
85.8882283712
 31
0.0
  0
LINE
  5
20F
330
1F
100
AcDbEntity
  8
0
  6
Continuous
 62
     7
370
    18
100
AcDbLine
 10
241.7877966376
 20
90.8882283712
 30
0.0
 11
241.7877966376
 21
85.8882283712
 31
0.0
  0
LINE
  5
210
330
1F
100
AcDbEntity
  8
0
  6
Continuous
 62
     7
370
    18
100
AcDbLine
 10
236.7877966376
 20
90.8882283712
 30
0.0
 11
241.7877966376
 21
90.8882283712
 31
0.0
  0
LINE
  5
211
330
1F
100
AcDbEntity
  8
0
  6
Continuous
 62
     7
370
    18
100
AcDbLine
 10
236.7877966376
 20
85.8882283712
 30
0.0
 11
241.7877966376
 21
85.8882283712
 31
0.0
  0
LINE
  5
212
330
1F
100
AcDbEntity
  8
0
  6
Continuous
 62
     7
370
    18
100
AcDbLine
 10
236.7877966376
 20
90.8882283712
 30
0.0
 11
236.7877966376
 21
85.8882283712
 31
0.0
  0
LINE
  5
213
330
1F
100
AcDbEntity
  8
0
  6
Continuous
 62
     7
370
    18
100
AcDbLine
 10
221.7877966376
 20
80.8882283712
 30
0.0
 11
221.7877966376
 21
75.8882283712
 31
0.0
  0
LINE
  5
214
330
1F
100
AcDbEntity
  8
0
  6
Continuous
 62
     7
370
    18
100
AcDbLine
 10
216.7877966376
 20
80.8882283712
 30
0.0
 11
221.7877966376
 21
80.8882283712
 31
0.0
  0
LINE
  5
215
330
1F
100
AcDbEntity
  8
0
  6
Continuous
 62
     7
370
    18
100
AcDbLine
 10
216.7877966376
 20
75.8882283712
 30
0.0
 11
221.7877966376
 21
75.8882283712
 31
0.0
  0
LINE
  5
216
330
1F
100
AcDbEntity
  8
0
  6
Continuous
 62
     7
370
    18
100
AcDbLine
 10
216.7877966376
 20
80.8882283712
 30
0.0
 11
216.7877966376
 21
75.8882283712
 31
0.0
  0
LINE
  5
217
330
1F
100
AcDbEntity
  8
0
  6
Continuous
 62
     7
370
    18
100
AcDbLine
 10
231.7877966376
 20
80.8882283712
 30
0.0
 11
231.7877966376
 21
75.8882283712
 31
0.0
  0
LINE
  5
218
330
1F
100
AcDbEntity
  8
0
  6
Continuous
 62
     7
370
    18
100
AcDbLine
 10
226.7877966376
 20
80.8882283712
 30
0.0
 11
231.7877966376
 21
80.8882283712
 31
0.0
  0
LINE
  5
219
330
1F
100
AcDbEntity
  8
0
  6
Continuous
 62
     7
370
    18
100
AcDbLine
 10
226.7877966376
 20
75.8882283712
 30
0.0
 11
231.7877966376
 21
75.8882283712
 31
0.0
  0
LINE
  5
21A
330
1F
100
AcDbEntity
  8
0
  6
Continuous
 62
     7
370
    18
100
AcDbLine
 10
226.7877966376
 20
80.8882283712
 30
0.0
 11
226.7877966376
 21
75.8882283712
 31
0.0
  0
LINE
  5
21B
330
1F
100
AcDbEntity
  8
0
  6
Continuous
 62
     7
370
    18
100
AcDbLine
 10
241.7877966376
 20
80.8882283712
 30
0.0
 11
241.7877966376
 21
75.8882283712
 31
0.0
  0
LINE
  5
21C
330
1F
100
AcDbEntity
  8
0
  6
Continuous
 62
     7
370
    18
100
AcDbLine
 10
236.7877966376
 20
80.8882283712
 30
0.0
 11
241.7877966376
 21
80.8882283712
 31
0.0
  0
LINE
  5
21D
330
1F
100
AcDbEntity
  8
0
  6
Continuous
 62
     7
370
    18
100
AcDbLine
 10
236.7877966376
 20
75.8882283712
 30
0.0
 11
241.7877966376
 21
75.8882283712
 31
0.0
  0
LINE
  5
21E
330
1F
100
AcDbEntity
  8
0
  6
Continuous
 62
     7
370
    18
100
AcDbLine
 10
236.7877966376
 20
80.8882283712
 30
0.0
 11
236.7877966376
 21
75.8882283712
 31
0.0
  0
LINE
  5
21F
330
1F
100
AcDbEntity
  8
0
  6
Continuous
 62
     7
370
    18
100
AcDbLine
 10
221.7877966376
 20
70.8882283712
 30
0.0
 11
221.7877966376
 21
65.8882283712
 31
0.0
  0
LINE
  5
220
330
1F
100
AcDbEntity
  8
0
  6
Continuous
 62
     7
370
    18
100
AcDbLine
 10
216.7877966376
 20
70.8882283712
 30
0.0
 11
221.7877966376
 21
70.8882283712
 31
0.0
  0
LINE
  5
221
330
1F
100
AcDbEntity
  8
0
  6
Continuous
 62
     7
370
    18
100
AcDbLine
 10
216.7877966376
 20
65.8882283712
 30
0.0
 11
221.7877966376
 21
65.8882283712
 31
0.0
  0
LINE
  5
222
330
1F
100
AcDbEntity
  8
0
  6
Continuous
 62
     7
370
    18
100
AcDbLine
 10
216.7877966376
 20
70.8882283712
 30
0.0
 11
216.7877966376
 21
65.8882283712
 31
0.0
  0
LINE
  5
223
330
1F
100
AcDbEntity
  8
0
  6
Continuous
 62
     7
370
    18
100
AcDbLine
 10
231.7877966376
 20
70.8882283712
 30
0.0
 11
231.7877966376
 21
65.8882283712
 31
0.0
  0
LINE
  5
224
330
1F
100
AcDbEntity
  8
0
  6
Continuous
 62
     7
370
    18
100
AcDbLine
 10
226.7877966376
 20
70.8882283712
 30
0.0
 11
231.7877966376
 21
70.8882283712
 31
0.0
  0
LINE
  5
225
330
1F
100
AcDbEntity
  8
0
  6
Continuous
 62
     7
370
    18
100
AcDbLine
 10
226.7877966376
 20
65.8882283712
 30
0.0
 11
231.7877966376
 21
65.8882283712
 31
0.0
  0
LINE
  5
226
330
1F
100
AcDbEntity
  8
0
  6
Continuous
 62
     7
370
    18
100
AcDbLine
 10
226.7877966376
 20
70.8882283712
 30
0.0
 11
226.7877966376
 21
65.8882283712
 31
0.0
  0
LINE
  5
227
330
1F
100
AcDbEntity
  8
0
  6
Continuous
 62
     7
370
    18
100
AcDbLine
 10
241.7877966376
 20
70.8882283712
 30
0.0
 11
241.7877966376
 21
65.8882283712
 31
0.0
  0
LINE
  5
228
330
1F
100
AcDbEntity
  8
0
  6
Continuous
 62
     7
370
    18
100
AcDbLine
 10
236.7877966376
 20
70.8882283712
 30
0.0
 11
241.7877966376
 21
70.8882283712
 31
0.0
  0
LINE
  5
229
330
1F
100
AcDbEntity
  8
0
  6
Continuous
 62
     7
370
    18
100
AcDbLine
 10
236.7877966376
 20
65.8882283712
 30
0.0
 11
241.7877966376
 21
65.8882283712
 31
0.0
  0
LINE
  5
22A
330
1F
100
AcDbEntity
  8
0
  6
Continuous
 62
     7
370
    18
100
AcDbLine
 10
236.7877966376
 20
70.8882283712
 30
0.0
 11
236.7877966376
 21
65.8882283712
 31
0.0
  0
LINE
  5
22B
330
1F
100
AcDbEntity
  8
0
  6
Continuous
 62
     7
370
    18
100
AcDbLine
 10
221.7877966376
 20
60.8882283712
 30
0.0
 11
221.7877966376
 21
55.8882283712
 31
0.0
  0
LINE
  5
22C
330
1F
100
AcDbEntity
  8
0
  6
Continuous
 62
     7
370
    18
100
AcDbLine
 10
216.7877966376
 20
60.8882283712
 30
0.0
 11
221.7877966376
 21
60.8882283712
 31
0.0
  0
LINE
  5
22D
330
1F
100
AcDbEntity
  8
0
  6
Continuous
 62
     7
370
    18
100
AcDbLine
 10
216.7877966376
 20
55.8882283712
 30
0.0
 11
221.7877966376
 21
55.8882283712
 31
0.0
  0
LINE
  5
22E
330
1F
100
AcDbEntity
  8
0
  6
Continuous
 62
     7
370
    18
100
AcDbLine
 10
216.7877966376
 20
60.8882283712
 30
0.0
 11
216.7877966376
 21
55.8882283712
 31
0.0
  0
LINE
  5
22F
330
1F
100
AcDbEntity
  8
0
  6
Continuous
 62
     7
370
    18
100
AcDbLine
 10
231.7877966376
 20
60.8882283712
 30
0.0
 11
231.7877966376
 21
55.8882283712
 31
0.0
  0
LINE
  5
230
330
1F
100
AcDbEntity
  8
0
  6
Continuous
 62
     7
370
    18
100
AcDbLine
 10
226.7877966376
 20
60.8882283712
 30
0.0
 11
231.7877966376
 21
60.8882283712
 31
0.0
  0
LINE
  5
231
330
1F
100
AcDbEntity
  8
0
  6
Continuous
 62
     7
370
    18
100
AcDbLine
 10
226.7877966376
 20
55.8882283712
 30
0.0
 11
231.7877966376
 21
55.8882283712
 31
0.0
  0
LINE
  5
232
330
1F
100
AcDbEntity
  8
0
  6
Continuous
 62
     7
370
    18
100
AcDbLine
 10
226.7877966376
 20
60.8882283712
 30
0.0
 11
226.7877966376
 21
55.8882283712
 31
0.0
  0
LINE
  5
233
330
1F
100
AcDbEntity
  8
0
  6
Continuous
 62
     7
370
    18
100
AcDbLine
 10
241.7877966376
 20
60.8882283712
 30
0.0
 11
241.7877966376
 21
55.8882283712
 31
0.0
  0
LINE
  5
234
330
1F
100
AcDbEntity
  8
0
  6
Continuous
 62
     7
370
    18
100
AcDbLine
 10
236.7877966376
 20
60.8882283712
 30
0.0
 11
241.7877966376
 21
60.8882283712
 31
0.0
  0
LINE
  5
235
330
1F
100
AcDbEntity
  8
0
  6
Continuous
 62
     7
370
    18
100
AcDbLine
 10
236.7877966376
 20
55.8882283712
 30
0.0
 11
241.7877966376
 21
55.8882283712
 31
0.0
  0
LINE
  5
236
330
1F
100
AcDbEntity
  8
0
  6
Continuous
 62
     7
370
    18
100
AcDbLine
 10
236.7877966376
 20
60.8882283712
 30
0.0
 11
236.7877966376
 21
55.8882283712
 31
0.0
  0
LINE
  5
237
330
1F
100
AcDbEntity
  8
0
  6
Continuous
 62
     7
370
    18
100
AcDbLine
 10
221.7877966376
 20
50.8882283712
 30
0.0
 11
221.7877966376
 21
45.8882283712
 31
0.0
  0
LINE
  5
238
330
1F
100
AcDbEntity
  8
0
  6
Continuous
 62
     7
370
    18
100
AcDbLine
 10
216.7877966376
 20
50.8882283712
 30
0.0
 11
221.7877966376
 21
50.8882283712
 31
0.0
  0
LINE
  5
239
330
1F
100
AcDbEntity
  8
0
  6
Continuous
 62
     7
370
    18
100
AcDbLine
 10
216.7877966376
 20
45.8882283712
 30
0.0
 11
221.7877966376
 21
45.8882283712
 31
0.0
  0
LINE
  5
23A
330
1F
100
AcDbEntity
  8
0
  6
Continuous
 62
     7
370
    18
100
AcDbLine
 10
216.7877966376
 20
50.8882283712
 30
0.0
 11
216.7877966376
 21
45.8882283712
 31
0.0
  0
LINE
  5
23B
330
1F
100
AcDbEntity
  8
0
  6
Continuous
 62
     7
370
    18
100
AcDbLine
 10
231.7877966376
 20
50.8882283712
 30
0.0
 11
231.7877966376
 21
45.8882283712
 31
0.0
  0
LINE
  5
23C
330
1F
100
AcDbEntity
  8
0
  6
Continuous
 62
     7
370
    18
100
AcDbLine
 10
226.7877966376
 20
50.8882283712
 30
0.0
 11
231.7877966376
 21
50.8882283712
 31
0.0
  0
LINE
  5
23D
330
1F
100
AcDbEntity
  8
0
  6
Continuous
 62
     7
370
    18
100
AcDbLine
 10
226.7877966376
 20
45.8882283712
 30
0.0
 11
231.7877966376
 21
45.8882283712
 31
0.0
  0
LINE
  5
23E
330
1F
100
AcDbEntity
  8
0
  6
Continuous
 62
     7
370
    18
100
AcDbLine
 10
226.7877966376
 20
50.8882283712
 30
0.0
 11
226.7877966376
 21
45.8882283712
 31
0.0
  0
LINE
  5
23F
330
1F
100
AcDbEntity
  8
0
  6
Continuous
 62
     7
370
    18
100
AcDbLine
 10
241.7877966376
 20
50.8882283712
 30
0.0
 11
241.7877966376
 21
45.8882283712
 31
0.0
  0
LINE
  5
240
330
1F
100
AcDbEntity
  8
0
  6
Continuous
 62
     7
370
    18
100
AcDbLine
 10
236.7877966376
 20
50.8882283712
 30
0.0
 11
241.7877966376
 21
50.8882283712
 31
0.0
  0
LINE
  5
241
330
1F
100
AcDbEntity
  8
0
  6
Continuous
 62
     7
370
    18
100
AcDbLine
 10
236.7877966376
 20
45.8882283712
 30
0.0
 11
241.7877966376
 21
45.8882283712
 31
0.0
  0
LINE
  5
242
330
1F
100
AcDbEntity
  8
0
  6
Continuous
 62
     7
370
    18
100
AcDbLine
 10
236.7877966376
 20
50.8882283712
 30
0.0
 11
236.7877966376
 21
45.8882283712
 31
0.0
  0
LINE
  5
243
330
1F
100
AcDbEntity
  8
0
  6
Continuous
 62
     7
370
    18
100
AcDbLine
 10
221.7877966376
 20
40.8882283712
 30
0.0
 11
221.7877966376
 21
35.8882283712
 31
0.0
  0
LINE
  5
244
330
1F
100
AcDbEntity
  8
0
  6
Continuous
 62
     7
370
    18
100
AcDbLine
 10
216.7877966376
 20
40.8882283712
 30
0.0
 11
221.7877966376
 21
40.8882283712
 31
0.0
  0
LINE
  5
245
330
1F
100
AcDbEntity
  8
0
  6
Continuous
 62
     7
370
    18
100
AcDbLine
 10
216.7877966376
 20
35.8882283712
 30
0.0
 11
221.7877966376
 21
35.8882283712
 31
0.0
  0
LINE
  5
246
330
1F
100
AcDbEntity
  8
0
  6
Continuous
 62
     7
370
    18
100
AcDbLine
 10
216.7877966376
 20
40.8882283712
 30
0.0
 11
216.7877966376
 21
35.8882283712
 31
0.0
  0
LINE
  5
247
330
1F
100
AcDbEntity
  8
0
  6
Continuous
 62
     7
370
    18
100
AcDbLine
 10
231.7877966376
 20
40.8882283712
 30
0.0
 11
231.7877966376
 21
35.8882283712
 31
0.0
  0
LINE
  5
248
330
1F
100
AcDbEntity
  8
0
  6
Continuous
 62
     7
370
    18
100
AcDbLine
 10
226.7877966376
 20
40.8882283712
 30
0.0
 11
231.7877966376
 21
40.8882283712
 31
0.0
  0
LINE
  5
249
330
1F
100
AcDbEntity
  8
0
  6
Continuous
 62
     7
370
    18
100
AcDbLine
 10
226.7877966376
 20
35.8882283712
 30
0.0
 11
231.7877966376
 21
35.8882283712
 31
0.0
  0
LINE
  5
24A
330
1F
100
AcDbEntity
  8
0
  6
Continuous
 62
     7
370
    18
100
AcDbLine
 10
226.7877966376
 20
40.8882283712
 30
0.0
 11
226.7877966376
 21
35.8882283712
 31
0.0
  0
LINE
  5
24B
330
1F
100
AcDbEntity
  8
0
  6
Continuous
 62
     7
370
    18
100
AcDbLine
 10
241.7877966376
 20
40.8882283712
 30
0.0
 11
241.7877966376
 21
35.8882283712
 31
0.0
  0
LINE
  5
24C
330
1F
100
AcDbEntity
  8
0
  6
Continuous
 62
     7
370
    18
100
AcDbLine
 10
236.7877966376
 20
40.8882283712
 30
0.0
 11
241.7877966376
 21
40.8882283712
 31
0.0
  0
LINE
  5
24D
330
1F
100
AcDbEntity
  8
0
  6
Continuous
 62
     7
370
    18
100
AcDbLine
 10
236.7877966376
 20
35.8882283712
 30
0.0
 11
241.7877966376
 21
35.8882283712
 31
0.0
  0
LINE
  5
24E
330
1F
100
AcDbEntity
  8
0
  6
Continuous
 62
     7
370
    18
100
AcDbLine
 10
236.7877966376
 20
40.8882283712
 30
0.0
 11
236.7877966376
 21
35.8882283712
 31
0.0
  0
LINE
  5
24F
330
1F
100
AcDbEntity
  8
0
  6
Continuous
 62
     7
370
    18
100
AcDbLine
 10
266.9777087115
 20
34.1060078903
 30
0.0
 11
269.9777087115
 21
34.1060078903
 31
0.0
  0
LINE
  5
250
330
1F
100
AcDbEntity
  8
0
  6
Continuous
 62
     7
370
    18
100
AcDbLine
 10
266.9777087115
 20
34.1060078903
 30
0.0
 11
266.9777087115
 21
14.1060078903
 31
0.0
  0
LINE
  5
251
330
1F
100
AcDbEntity
  8
0
  6
Continuous
 62
     7
370
    18
100
AcDbLine
 10
266.9777087115
 20
14.1060078903
 30
0.0
 11
269.9777087115
 21
14.1060078903
 31
0.0
  0
LINE
  5
252
330
1F
100
AcDbEntity
  8
0
  6
Continuous
 62
     7
370
    18
100
AcDbLine
 10
269.9777087115
 20
34.1060078903
 30
0.0
 11
269.9777087115
 21
14.1060078903
 31
0.0
  0
LINE
  5
253
330
1F
100
AcDbEntity
  8
0
  6
Continuous
 62
     7
370
    18
100
AcDbLine
 10
276.0044999908
 20
51.5857028635
 30
0.0
 11
276.0044999908
 21
49.0857028635
 31
0.0
  0
LINE
  5
254
330
1F
100
AcDbEntity
  8
0
  6
Continuous
 62
     7
370
    18
100
AcDbLine
 10
261.9777087115
 20
119.1060078903
 30
0.0
 11
441.9777087115
 21
119.1060078903
 31
0.0
  0
LINE
  5
255
330
1F
100
AcDbEntity
  8
0
  6
Continuous
 62
     7
370
    18
100
AcDbLine
 10
261.9777087115
 20
119.1060078903
 30
0.0
 11
261.9777087115
 21
9.1060078903
 31
0.0
  0
LINE
  5
256
330
1F
100
AcDbEntity
  8
0
  6
Continuous
 62
     7
370
    18
100
AcDbLine
 10
261.9777087115
 20
9.1060078903
 30
0.0
 11
441.9777087115
 21
9.1060078903
 31
0.0
  0
LINE
  5
257
330
1F
100
AcDbEntity
  8
0
  6
Continuous
 62
     7
370
    18
100
AcDbLine
 10
441.9777087115
 20
119.1060078903
 30
0.0
 11
441.9777087115
 21
9.1060078903
 31
0.0
  0
LINE
  5
258
330
1F
100
AcDbEntity
  8
0
  6
Continuous
 62
     7
370
    18
100
AcDbLine
 10
321.0044999908
 20
51.5857028635
 30
0.0
 11
321.0044999908
 21
49.0857028635
 31
0.0
  0
LINE
  5
259
330
1F
100
AcDbEntity
  8
0
  6
Continuous
 62
     7
370
    18
100
AcDbLine
 10
275.8337388482
 20
79.6060078903
 30
0.0
 11
275.8337388482
 21
77.1060078903
 31
0.0
  0
LINE
  5
25A
330
1F
100
AcDbEntity
  8
0
  6
Continuous
 62
     7
370
    18
100
AcDbLine
 10
320.8337388482
 20
79.6060078903
 30
0.0
 11
320.8337388482
 21
77.1060078903
 31
0.0
  0
LINE
  5
25B
330
1F
100
AcDbEntity
  8
0
  6
Continuous
 62
     7
370
    18
100
AcDbLine
 10
383.1246236322
 20
79.6060078903
 30
0.0
 11
383.1246236322
 21
77.1060078903
 31
0.0
  0
LINE
  5
25C
330
1F
100
AcDbEntity
  8
0
  6
Continuous
 62
     7
370
    18
100
AcDbLine
 10
428.1246236322
 20
79.6060078903
 30
0.0
 11
428.1246236322
 21
77.1060078903
 31
0.0
  0
LINE
  5
25D
330
1F
100
AcDbEntity
  8
0
  6
Continuous
 62
     7
370
    18
100
AcDbLine
 10
383.2279931672
 20
51.2650311191
 30
0.0
 11
383.2279931672
 21
48.7650311191
 31
0.0
  0
LINE
  5
25E
330
1F
100
AcDbEntity
  8
0
  6
Continuous
 62
     7
370
    18
100
AcDbLine
 10
428.2279931672
 20
51.2650311191
 30
0.0
 11
428.2279931672
 21
48.7650311191
 31
0.0
  0
LINE
  5
25F
330
1F
100
AcDbEntity
  8
0
  6
Continuous
 62
     7
370
    18
100
AcDbLine
 10
322.2087388482
 20
99.6060078903
 30
0.0
 11
323.5837388482
 21
94.6060078903
 31
0.0
  0
LINE
  5
260
330
1F
100
AcDbEntity
  8
0
  6
Continuous
 62
     7
370
    18
100
AcDbLine
 10
322.2087388482
 20
79.6060078903
 30
0.0
 11
323.5837388482
 21
84.6060078903
 31
0.0
  0
LINE
  5
261
330
1F
100
AcDbEntity
  8
0
  6
Continuous
 62
     7
370
    18
100
AcDbLine
 10
436.9777087115
 20
14.1060078903
 30
0.0
 11
433.9777087115
 21
14.1060078903
 31
0.0
  0
LINE
  5
262
330
1F
100
AcDbEntity
  8
0
  6
Continuous
 62
     7
370
    18
100
AcDbLine
 10
274.4587388482
 20
99.6060078903
 30
0.0
 11
273.0837388482
 21
94.6060078903
 31
0.0
  0
LINE
  5
263
330
1F
100
AcDbEntity
  8
0
  6
Continuous
 62
     7
370
    18
100
AcDbLine
 10
274.4587388482
 20
79.6060078903
 30
0.0
 11
273.0837388482
 21
84.6060078903
 31
0.0
  0
LINE
  5
264
330
1F
100
AcDbEntity
  8
0
  6
Continuous
 62
     7
370
    18
100
AcDbLine
 10
274.6294999908
 20
51.5857028635
 30
0.0
 11
273.2544999908
 21
56.5857028635
 31
0.0
  0
LINE
  5
265
330
1F
100
AcDbEntity
  8
0
  6
Continuous
 62
     7
370
    18
100
AcDbLine
 10
275.8337388482
 20
102.1060078903
 30
0.0
 11
320.8337388482
 21
102.1060078903
 31
0.0
  0
LINE
  5
266
330
1F
100
AcDbEntity
  8
0
  6
Continuous
 62
     7
370
    18
100
AcDbLine
 10
275.8337388482
 20
102.1060078903
 30
0.0
 11
275.8337388482
 21
99.6060078903
 31
0.0
  0
LINE
  5
267
330
1F
100
AcDbEntity
  8
0
  6
Continuous
 62
     7
370
    18
100
AcDbLine
 10
275.8337388482
 20
77.1060078903
 30
0.0
 11
320.8337388482
 21
77.1060078903
 31
0.0
  0
LINE
  5
268
330
1F
100
AcDbEntity
  8
0
  6
Continuous
 62
     7
370
    18
100
AcDbLine
 10
320.8337388482
 20
102.1060078903
 30
0.0
 11
320.8337388482
 21
99.6060078903
 31
0.0
  0
LINE
  5
269
330
1F
100
AcDbEntity
  8
0
  6
Continuous
 62
     7
370
    18
100
AcDbLine
 10
274.6294999908
 20
71.5857028635
 30
0.0
 11
273.2544999908
 21
66.5857028635
 31
0.0
  0
LINE
  5
26A
330
1F
100
AcDbEntity
  8
0
  6
Continuous
 62
     7
370
    18
100
AcDbLine
 10
275.8337388482
 20
99.6060078903
 30
0.0
 11
274.4587388482
 21
99.6060078903
 31
0.0
  0
LINE
  5
26B
330
1F
100
AcDbEntity
  8
0
  6
Continuous
 62
     7
370
    18
100
AcDbLine
 10
322.3794999908
 20
71.5857028635
 30
0.0
 11
323.7544999908
 21
66.5857028635
 31
0.0
  0
LINE
  5
26C
330
1F
100
AcDbEntity
  8
0
  6
Continuous
 62
     7
370
    18
100
AcDbLine
 10
275.8337388482
 20
79.6060078903
 30
0.0
 11
274.4587388482
 21
79.6060078903
 31
0.0
  0
LINE
  5
26D
330
1F
100
AcDbEntity
  8
0
  6
Continuous
 62
     7
370
    18
100
AcDbLine
 10
273.0837388482
 20
94.6060078903
 30
0.0
 11
273.0837388482
 21
84.6060078903
 31
0.0
  0
LINE
  5
26E
330
1F
100
AcDbEntity
  8
0
  6
Continuous
 62
     7
370
    18
100
AcDbLine
 10
322.3794999908
 20
51.5857028635
 30
0.0
 11
323.7544999908
 21
56.5857028635
 31
0.0
  0
LINE
  5
26F
330
1F
100
AcDbEntity
  8
0
  6
Continuous
 62
     7
370
    18
100
AcDbLine
 10
320.8337388482
 20
79.6060078903
 30
0.0
 11
322.2087388482
 21
79.6060078903
 31
0.0
  0
LINE
  5
270
330
1F
100
AcDbEntity
  8
0
  6
Continuous
 62
     7
370
    18
100
AcDbLine
 10
320.8337388482
 20
99.6060078903
 30
0.0
 11
322.2087388482
 21
99.6060078903
 31
0.0
  0
LINE
  5
271
330
1F
100
AcDbEntity
  8
0
  6
Continuous
 62
     7
370
    18
100
AcDbLine
 10
323.5837388482
 20
84.6060078903
 30
0.0
 11
323.5837388482
 21
94.6060078903
 31
0.0
  0
LINE
  5
272
330
1F
100
AcDbEntity
  8
0
  6
Continuous
 62
     7
370
    18
100
AcDbLine
 10
381.8529931672
 20
71.2650311191
 30
0.0
 11
380.4779931672
 21
66.2650311191
 31
0.0
  0
LINE
  5
273
330
1F
100
AcDbEntity
  8
0
  6
Continuous
 62
     7
370
    18
100
AcDbLine
 10
381.8529931672
 20
51.2650311191
 30
0.0
 11
380.4779931672
 21
56.2650311191
 31
0.0
  0
LINE
  5
274
330
1F
100
AcDbEntity
  8
0
  6
Continuous
 62
     7
370
    18
100
AcDbLine
 10
276.0044999908
 20
74.0857028635
 30
0.0
 11
321.0044999908
 21
74.0857028635
 31
0.0
  0
LINE
  5
275
330
1F
100
AcDbEntity
  8
0
  6
Continuous
 62
     7
370
    18
100
AcDbLine
 10
276.0044999908
 20
74.0857028635
 30
0.0
 11
276.0044999908
 21
71.5857028635
 31
0.0
  0
LINE
  5
276
330
1F
100
AcDbEntity
  8
0
  6
Continuous
 62
     7
370
    18
100
AcDbLine
 10
276.0044999908
 20
49.0857028635
 30
0.0
 11
321.0044999908
 21
49.0857028635
 31
0.0
  0
LINE
  5
277
330
1F
100
AcDbEntity
  8
0
  6
Continuous
 62
     7
370
    18
100
AcDbLine
 10
321.0044999908
 20
74.0857028635
 30
0.0
 11
321.0044999908
 21
71.5857028635
 31
0.0
  0
LINE
  5
278
330
1F
100
AcDbEntity
  8
0
  6
Continuous
 62
     7
370
    18
100
AcDbLine
 10
429.6029931672
 20
71.2650311191
 30
0.0
 11
430.9779931672
 21
66.2650311191
 31
0.0
  0
LINE
  5
279
330
1F
100
AcDbEntity
  8
0
  6
Continuous
 62
     7
370
    18
100
AcDbLine
 10
276.0044999908
 20
71.5857028635
 30
0.0
 11
274.6294999908
 21
71.5857028635
 31
0.0
  0
LINE
  5
27A
330
1F
100
AcDbEntity
  8
0
  6
Continuous
 62
     7
370
    18
100
AcDbLine
 10
276.0044999908
 20
51.5857028635
 30
0.0
 11
274.6294999908
 21
51.5857028635
 31
0.0
  0
LINE
  5
27B
330
1F
100
AcDbEntity
  8
0
  6
Continuous
 62
     7
370
    18
100
AcDbLine
 10
273.2544999908
 20
66.5857028635
 30
0.0
 11
273.2544999908
 21
56.5857028635
 31
0.0
  0
LINE
  5
27C
330
1F
100
AcDbEntity
  8
0
  6
Continuous
 62
     7
370
    18
100
AcDbLine
 10
429.6029931672
 20
51.2650311191
 30
0.0
 11
430.9779931672
 21
56.2650311191
 31
0.0
  0
LINE
  5
27D
330
1F
100
AcDbEntity
  8
0
  6
Continuous
 62
     7
370
    18
100
AcDbLine
 10
321.0044999908
 20
51.5857028635
 30
0.0
 11
322.3794999908
 21
51.5857028635
 31
0.0
  0
LINE
  5
27E
330
1F
100
AcDbEntity
  8
0
  6
Continuous
 62
     7
370
    18
100
AcDbLine
 10
381.7496236322
 20
99.6060078903
 30
0.0
 11
380.3746236322
 21
94.6060078903
 31
0.0
  0
LINE
  5
27F
330
1F
100
AcDbEntity
  8
0
  6
Continuous
 62
     7
370
    18
100
AcDbLine
 10
321.0044999908
 20
71.5857028635
 30
0.0
 11
322.3794999908
 21
71.5857028635
 31
0.0
  0
LINE
  5
280
330
1F
100
AcDbEntity
  8
0
  6
Continuous
 62
     7
370
    18
100
AcDbLine
 10
323.7544999908
 20
56.5857028635
 30
0.0
 11
323.7544999908
 21
66.5857028635
 31
0.0
  0
LINE
  5
281
330
1F
100
AcDbEntity
  8
0
  6
Continuous
 62
     7
370
    18
100
AcDbLine
 10
381.7496236322
 20
79.6060078903
 30
0.0
 11
380.3746236322
 21
84.6060078903
 31
0.0
  0
LINE
  5
282
330
1F
100
AcDbEntity
  8
0
  6
Continuous
 62
     7
370
    18
100
AcDbLine
 10
383.1246236322
 20
102.1060078903
 30
0.0
 11
428.1246236322
 21
102.1060078903
 31
0.0
  0
LINE
  5
283
330
1F
100
AcDbEntity
  8
0
  6
Continuous
 62
     7
370
    18
100
AcDbLine
 10
383.1246236322
 20
102.1060078903
 30
0.0
 11
383.1246236322
 21
99.6060078903
 31
0.0
  0
LINE
  5
284
330
1F
100
AcDbEntity
  8
0
  6
Continuous
 62
     7
370
    18
100
AcDbLine
 10
383.1246236322
 20
77.1060078903
 30
0.0
 11
428.1246236322
 21
77.1060078903
 31
0.0
  0
LINE
  5
285
330
1F
100
AcDbEntity
  8
0
  6
Continuous
 62
     7
370
    18
100
AcDbLine
 10
428.1246236322
 20
102.1060078903
 30
0.0
 11
428.1246236322
 21
99.6060078903
 31
0.0
  0
LINE
  5
286
330
1F
100
AcDbEntity
  8
0
  6
Continuous
 62
     7
370
    18
100
AcDbLine
 10
429.4996236322
 20
99.6060078903
 30
0.0
 11
430.8746236322
 21
94.6060078903
 31
0.0
  0
LINE
  5
287
330
1F
100
AcDbEntity
  8
0
  6
Continuous
 62
     7
370
    18
100
AcDbLine
 10
383.1246236322
 20
99.6060078903
 30
0.0
 11
381.7496236322
 21
99.6060078903
 31
0.0
  0
LINE
  5
288
330
1F
100
AcDbEntity
  8
0
  6
Continuous
 62
     7
370
    18
100
AcDbLine
 10
383.1246236322
 20
79.6060078903
 30
0.0
 11
381.7496236322
 21
79.6060078903
 31
0.0
  0
LINE
  5
289
330
1F
100
AcDbEntity
  8
0
  6
Continuous
 62
     7
370
    18
100
AcDbLine
 10
380.3746236322
 20
94.6060078903
 30
0.0
 11
380.3746236322
 21
84.6060078903
 31
0.0
  0
LINE
  5
28A
330
1F
100
AcDbEntity
  8
0
  6
Continuous
 62
     7
370
    18
100
AcDbLine
 10
429.4996236322
 20
79.6060078903
 30
0.0
 11
430.8746236322
 21
84.6060078903
 31
0.0
  0
LINE
  5
28B
330
1F
100
AcDbEntity
  8
0
  6
Continuous
 62
     7
370
    18
100
AcDbLine
 10
428.1246236322
 20
79.6060078903
 30
0.0
 11
429.4996236322
 21
79.6060078903
 31
0.0
  0
LINE
  5
28C
330
1F
100
AcDbEntity
  8
0
  6
Continuous
 62
     7
370
    18
100
AcDbLine
 10
428.1246236322
 20
99.6060078903
 30
0.0
 11
429.4996236322
 21
99.6060078903
 31
0.0
  0
LINE
  5
28D
330
1F
100
AcDbEntity
  8
0
  6
Continuous
 62
     7
370
    18
100
AcDbLine
 10
430.8746236322
 20
84.6060078903
 30
0.0
 11
430.8746236322
 21
94.6060078903
 31
0.0
  0
LINE
  5
28E
330
1F
100
AcDbEntity
  8
0
  6
Continuous
 62
     7
370
    18
100
AcDbLine
 10
383.2279931672
 20
73.7650311191
 30
0.0
 11
428.2279931672
 21
73.7650311191
 31
0.0
  0
LINE
  5
28F
330
1F
100
AcDbEntity
  8
0
  6
Continuous
 62
     7
370
    18
100
AcDbLine
 10
383.2279931672
 20
73.7650311191
 30
0.0
 11
383.2279931672
 21
71.2650311191
 31
0.0
  0
LINE
  5
290
330
1F
100
AcDbEntity
  8
0
  6
Continuous
 62
     7
370
    18
100
AcDbLine
 10
383.2279931672
 20
48.7650311191
 30
0.0
 11
428.2279931672
 21
48.7650311191
 31
0.0
  0
LINE
  5
291
330
1F
100
AcDbEntity
  8
0
  6
Continuous
 62
     7
370
    18
100
AcDbLine
 10
428.2279931672
 20
73.7650311191
 30
0.0
 11
428.2279931672
 21
71.2650311191
 31
0.0
  0
LINE
  5
292
330
1F
100
AcDbEntity
  8
0
  6
Continuous
 62
     7
370
    18
100
AcDbLine
 10
383.2279931672
 20
71.2650311191
 30
0.0
 11
381.8529931672
 21
71.2650311191
 31
0.0
  0
LINE
  5
293
330
1F
100
AcDbEntity
  8
0
  6
Continuous
 62
     7
370
    18
100
AcDbLine
 10
383.2279931672
 20
51.2650311191
 30
0.0
 11
381.8529931672
 21
51.2650311191
 31
0.0
  0
LINE
  5
294
330
1F
100
AcDbEntity
  8
0
  6
Continuous
 62
     7
370
    18
100
AcDbLine
 10
380.4779931672
 20
66.2650311191
 30
0.0
 11
380.4779931672
 21
56.2650311191
 31
0.0
  0
LINE
  5
295
330
1F
100
AcDbEntity
  8
0
  6
Continuous
 62
     7
370
    18
100
AcDbLine
 10
428.2279931672
 20
51.2650311191
 30
0.0
 11
429.6029931672
 21
51.2650311191
 31
0.0
  0
LINE
  5
296
330
1F
100
AcDbEntity
  8
0
  6
Continuous
 62
     7
370
    18
100
AcDbLine
 10
428.2279931672
 20
71.2650311191
 30
0.0
 11
429.6029931672
 21
71.2650311191
 31
0.0
  0
LINE
  5
297
330
1F
100
AcDbEntity
  8
0
  6
Continuous
 62
     7
370
    18
100
AcDbLine
 10
430.9779931672
 20
56.2650311191
 30
0.0
 11
430.9779931672
 21
66.2650311191
 31
0.0
  0
LINE
  5
298
330
1F
100
AcDbEntity
  8
0
  6
Continuous
 62
     7
370
    18
100
AcDbLine
 10
433.9777087115
 20
34.1060078903
 30
0.0
 11
433.9777087115
 21
14.1060078903
 31
0.0
  0
LINE
  5
299
330
1F
100
AcDbEntity
  8
0
  6
Continuous
 62
     7
370
    18
100
AcDbLine
 10
272.9777087115
 20
114.1060078903
 30
0.0
 11
292.9777087115
 21
114.1060078903
 31
0.0
  0
LINE
  5
29A
330
1F
100
AcDbEntity
  8
0
  6
Continuous
 62
     7
370
    18
100
AcDbLine
 10
272.9777087115
 20
114.1060078903
 30
0.0
 11
272.9777087115
 21
111.1060078903
 31
0.0
  0
LINE
  5
29B
330
1F
100
AcDbEntity
  8
0
  6
Continuous
 62
     7
370
    18
100
AcDbLine
 10
272.9777087115
 20
111.1060078903
 30
0.0
 11
292.9777087115
 21
111.1060078903
 31
0.0
  0
LINE
  5
29C
330
1F
100
AcDbEntity
  8
0
  6
Continuous
 62
     7
370
    18
100
AcDbLine
 10
292.9777087115
 20
114.1060078903
 30
0.0
 11
292.9777087115
 21
111.1060078903
 31
0.0
  0
LINE
  5
29D
330
1F
100
AcDbEntity
  8
0
  6
Continuous
 62
     7
370
    18
100
AcDbLine
 10
436.9777087115
 20
34.1060078903
 30
0.0
 11
433.9777087115
 21
34.1060078903
 31
0.0
  0
LINE
  5
29E
330
1F
100
AcDbEntity
  8
0
  6
Continuous
 62
     7
370
    18
100
AcDbLine
 10
436.9777087115
 20
34.1060078903
 30
0.0
 11
436.9777087115
 21
14.1060078903
 31
0.0
  0
LINE
  5
29F
330
1F
100
AcDbEntity
  8
0
  6
Continuous
 62
     7
370
    18
100
AcDbLine
 10
430.9777087115
 20
111.1060078903
 30
0.0
 11
410.9777087115
 21
111.1060078903
 31
0.0
  0
LINE
  5
2A0
330
1F
100
AcDbEntity
  8
0
  6
Continuous
 62
     7
370
    18
100
AcDbLine
 10
410.9777087115
 20
114.1060078903
 30
0.0
 11
410.9777087115
 21
111.1060078903
 31
0.0
  0
LINE
  5
2A1
330
1F
100
AcDbEntity
  8
0
  6
Continuous
 62
     7
370
    18
100
AcDbLine
 10
430.9777087115
 20
114.1060078903
 30
0.0
 11
430.9777087115
 21
111.1060078903
 31
0.0
  0
LINE
  5
2A2
330
1F
100
AcDbEntity
  8
0
  6
Continuous
 62
     7
370
    18
100
AcDbLine
 10
430.9777087115
 20
114.1060078903
 30
0.0
 11
410.9777087115
 21
114.1060078903
 31
0.0
  0
CIRCLE
  5
2A3
330
1F
100
AcDbEntity
  8
0
  6
Continuous
 62
     7
370
    18
100
AcDbCircle
 10
272.9777087115
 20
104.1060078903
 30
0.0
 40
1.25000000000001
  0
CIRCLE
  5
2A4
330
1F
100
AcDbEntity
  8
0
  6
Continuous
 62
     7
370
    18
100
AcDbCircle
 10
272.9777087115
 20
46.1060078903
 30
0.0
 40
1.249999999999887
  0
CIRCLE
  5
2A5
330
1F
100
AcDbEntity
  8
0
  6
Continuous
 62
     7
370
    18
100
AcDbCircle
 10
321.9777087115
 20
46.1060078903
 30
0.0
 40
1.249999999999945
  0
CIRCLE
  5
2A6
330
1F
100
AcDbEntity
  8
0
  6
Continuous
 62
     7
370
    18
100
AcDbCircle
 10
321.9777087115
 20
104.1060078903
 30
0.0
 40
1.250000000000069
  0
CIRCLE
  5
2A7
330
1F
100
AcDbEntity
  8
0
  6
Continuous
 62
     7
370
    18
100
AcDbCircle
 10
381.9777087115
 20
104.1060078903
 30
0.0
 40
1.249999999999947
  0
CIRCLE
  5
2A8
330
1F
100
AcDbEntity
  8
0
  6
Continuous
 62
     7
370
    18
100
AcDbCircle
 10
381.9777087115
 20
46.1060078903
 30
0.0
 40
1.249999999999764
  0
CIRCLE
  5
2A9
330
1F
100
AcDbEntity
  8
0
  6
Continuous
 62
     7
370
    18
100
AcDbCircle
 10
430.9777087115
 20
46.1060078903
 30
0.0
 40
1.250000000000119
  0
CIRCLE
  5
2AA
330
1F
100
AcDbEntity
  8
0
  6
Continuous
 62
     7
370
    18
100
AcDbCircle
 10
430.9777087115
 20
104.1060078903
 30
0.0
 40
1.250000000000123
  0
CIRCLE
  5
2AB
330
1F
100
AcDbEntity
  8
0
  6
Continuous
 62
     7
370
    18
100
AcDbCircle
 10
336.9777087115
 20
92.1060078903
 30
0.0
 40
1.250000000000064
  0
CIRCLE
  5
2AC
330
1F
100
AcDbEntity
  8
0
  6
Continuous
 62
     7
370
    18
100
AcDbCircle
 10
366.9777087115
 20
92.1060078903
 30
0.0
 40
1.25000000000006
  0
CIRCLE
  5
2AD
330
1F
100
AcDbEntity
  8
0
  6
Continuous
 62
     7
370
    18
100
AcDbCircle
 10
366.9777087115
 20
62.1060078903
 30
0.0
 40
1.25
  0
CIRCLE
  5
2AE
330
1F
100
AcDbEntity
  8
0
  6
Continuous
 62
     7
370
    18
100
AcDbCircle
 10
336.9777087115
 20
62.1060078903
 30
0.0
 40
1.250000000000004
  0
CIRCLE
  5
2AF
330
1F
100
AcDbEntity
  8
0
  6
Continuous
 62
     7
370
    18
100
AcDbCircle
 10
267.6009911167
 20
280.1517409859
 30
0.0
 40
1.249999999999935
  0
CIRCLE
  5
2B0
330
1F
100
AcDbEntity
  8
0
  6
Continuous
 62
     7
370
    18
100
AcDbCircle
 10
351.9777087115
 20
42.1060078903
 30
0.0
 40
10.49999999999986
  0
CIRCLE
  5
2B1
330
1F
100
AcDbEntity
  8
0
  6
Continuous
 62
     7
370
    18
100
AcDbCircle
 10
315.3216559086
 20
214.8951021561
 30
0.0
 40
15.99999999999994
  0
CIRCLE
  5
2B2
330
1F
100
AcDbEntity
  8
0
  6
Continuous
 62
     7
370
    18
100
AcDbCircle
 10
315.3216559086
 20
179.8951021561
 30
0.0
 40
10.4999999999998
  0
CIRCLE
  5
2B3
330
1F
100
AcDbEntity
  8
0
  6
Continuous
 62
     7
370
    18
100
AcDbCircle
 10
276.6864795098
 20
16.9795990543
 30
0.0
 40
3.000000000000019
  0
CIRCLE
  5
2B4
330
1F
100
AcDbEntity
  8
0
  6
Continuous
 62
     7
370
    18
100
AcDbCircle
 10
276.6864795098
 20
16.9795990543
 30
0.0
 40
1.249999999999946
  0
CIRCLE
  5
2B5
330
1F
100
AcDbEntity
  8
0
  6
Continuous
 62
     7
370
    18
100
AcDbCircle
 10
286.6864795098
 20
16.9795990543
 30
0.0
 40
3.000000000000019
  0
CIRCLE
  5
2B6
330
1F
100
AcDbEntity
  8
0
  6
Continuous
 62
     7
370
    18
100
AcDbCircle
 10
286.6864795098
 20
16.9795990543
 30
0.0
 40
1.250000000000001
  0
CIRCLE
  5
2B7
330
1F
100
AcDbEntity
  8
0
  6
Continuous
 62
     7
370
    18
100
AcDbCircle
 10
296.6864795098
 20
16.9795990543
 30
0.0
 40
3.000000000000023
  0
CIRCLE
  5
2B8
330
1F
100
AcDbEntity
  8
0
  6
Continuous
 62
     7
370
    18
100
AcDbCircle
 10
296.6864795098
 20
16.9795990543
 30
0.0
 40
1.250000000000006
  0
CIRCLE
  5
2B9
330
1F
100
AcDbEntity
  8
0
  6
Continuous
 62
     7
370
    18
100
AcDbCircle
 10
306.6864795098
 20
16.9795990543
 30
0.0
 40
2.999999999999964
  0
CIRCLE
  5
2BA
330
1F
100
AcDbEntity
  8
0
  6
Continuous
 62
     7
370
    18
100
AcDbCircle
 10
306.6864795098
 20
16.9795990543
 30
0.0
 40
1.250000000000006
  0
CIRCLE
  5
2BB
330
1F
100
AcDbEntity
  8
0
  6
Continuous
 62
     7
370
    18
100
AcDbCircle
 10
316.6864795098
 20
16.9795990543
 30
0.0
 40
2.999999999999964
  0
CIRCLE
  5
2BC
330
1F
100
AcDbEntity
  8
0
  6
Continuous
 62
     7
370
    18
100
AcDbCircle
 10
316.6864795098
 20
16.9795990543
 30
0.0
 40
1.249999999999946
  0
CIRCLE
  5
2BD
330
1F
100
AcDbEntity
  8
0
  6
Continuous
 62
     7
370
    18
100
AcDbCircle
 10
326.6864795098
 20
16.9795990543
 30
0.0
 40
3.000000000000019
  0
CIRCLE
  5
2BE
330
1F
100
AcDbEntity
  8
0
  6
Continuous
 62
     7
370
    18
100
AcDbCircle
 10
326.6864795098
 20
16.9795990543
 30
0.0
 40
1.249999999999946
  0
CIRCLE
  5
2BF
330
1F
100
AcDbEntity
  8
0
  6
Continuous
 62
     7
370
    18
100
AcDbCircle
 10
336.6864795098
 20
16.9795990543
 30
0.0
 40
3.000000000000078
  0
CIRCLE
  5
2C0
330
1F
100
AcDbEntity
  8
0
  6
Continuous
 62
     7
370
    18
100
AcDbCircle
 10
336.6864795098
 20
16.9795990543
 30
0.0
 40
1.250000000000006
  0
CIRCLE
  5
2C1
330
1F
100
AcDbEntity
  8
0
  6
Continuous
 62
     7
370
    18
100
AcDbCircle
 10
346.6864795098
 20
16.9795990543
 30
0.0
 40
3.000000000000019
  0
CIRCLE
  5
2C2
330
1F
100
AcDbEntity
  8
0
  6
Continuous
 62
     7
370
    18
100
AcDbCircle
 10
346.6864795098
 20
16.9795990543
 30
0.0
 40
1.249999999999946
  0
CIRCLE
  5
2C3
330
1F
100
AcDbEntity
  8
0
  6
Continuous
 62
     7
370
    18
100
AcDbCircle
 10
356.6864795098
 20
16.9795990543
 30
0.0
 40
3.000000000000019
  0
CIRCLE
  5
2C4
330
1F
100
AcDbEntity
  8
0
  6
Continuous
 62
     7
370
    18
100
AcDbCircle
 10
356.6864795098
 20
16.9795990543
 30
0.0
 40
1.25000000000006
  0
CIRCLE
  5
2C5
330
1F
100
AcDbEntity
  8
0
  6
Continuous
 62
     7
370
    18
100
AcDbCircle
 10
366.6864795098
 20
16.9795990543
 30
0.0
 40
2.999999999999964
  0
CIRCLE
  5
2C6
330
1F
100
AcDbEntity
  8
0
  6
Continuous
 62
     7
370
    18
100
AcDbCircle
 10
366.6864795098
 20
16.9795990543
 30
0.0
 40
1.250000000000006
  0
CIRCLE
  5
2C7
330
1F
100
AcDbEntity
  8
0
  6
Continuous
 62
     7
370
    18
100
AcDbCircle
 10
376.6864795098
 20
16.9795990543
 30
0.0
 40
2.999999999999964
  0
CIRCLE
  5
2C8
330
1F
100
AcDbEntity
  8
0
  6
Continuous
 62
     7
370
    18
100
AcDbCircle
 10
376.6864795098
 20
16.9795990543
 30
0.0
 40
1.250000000000006
  0
CIRCLE
  5
2C9
330
1F
100
AcDbEntity
  8
0
  6
Continuous
 62
     7
370
    18
100
AcDbCircle
 10
386.6864795098
 20
16.9795990543
 30
0.0
 40
3.000000000000019
  0
CIRCLE
  5
2CA
330
1F
100
AcDbEntity
  8
0
  6
Continuous
 62
     7
370
    18
100
AcDbCircle
 10
386.6864795098
 20
16.9795990543
 30
0.0
 40
1.249999999999946
  0
CIRCLE
  5
2CB
330
1F
100
AcDbEntity
  8
0
  6
Continuous
 62
     7
370
    18
100
AcDbCircle
 10
396.6864795098
 20
16.9795990543
 30
0.0
 40
3.000000000000019
  0
CIRCLE
  5
2CC
330
1F
100
AcDbEntity
  8
0
  6
Continuous
 62
     7
370
    18
100
AcDbCircle
 10
396.6864795098
 20
16.9795990543
 30
0.0
 40
1.250000000000006
  0
CIRCLE
  5
2CD
330
1F
100
AcDbEntity
  8
0
  6
Continuous
 62
     7
370
    18
100
AcDbCircle
 10
406.6864795098
 20
16.9795990543
 30
0.0
 40
3.000000000000019
  0
CIRCLE
  5
2CE
330
1F
100
AcDbEntity
  8
0
  6
Continuous
 62
     7
370
    18
100
AcDbCircle
 10
406.6864795098
 20
16.9795990543
 30
0.0
 40
1.250000000000006
  0
CIRCLE
  5
2CF
330
1F
100
AcDbEntity
  8
0
  6
Continuous
 62
     7
370
    18
100
AcDbCircle
 10
416.6864795098
 20
16.9795990543
 30
0.0
 40
3.000000000000019
  0
CIRCLE
  5
2D0
330
1F
100
AcDbEntity
  8
0
  6
Continuous
 62
     7
370
    18
100
AcDbCircle
 10
416.6864795098
 20
16.9795990543
 30
0.0
 40
1.250000000000001
  0
CIRCLE
  5
2D1
330
1F
100
AcDbEntity
  8
0
  6
Continuous
 62
     7
370
    18
100
AcDbCircle
 10
426.6864795098
 20
16.9795990543
 30
0.0
 40
2.999999999999964
  0
CIRCLE
  5
2D2
330
1F
100
AcDbEntity
  8
0
  6
Continuous
 62
     7
370
    18
100
AcDbCircle
 10
426.6864795098
 20
16.9795990543
 30
0.0
 40
1.250000000000006
  0
CIRCLE
  5
2D3
330
1F
100
AcDbEntity
  8
0
  6
Continuous
 62
     7
370
    18
100
AcDbCircle
 10
316.803786585
 20
113.433433103
 30
0.0
 40
3.00000000000002
  0
CIRCLE
  5
2D4
330
1F
100
AcDbEntity
  8
0
  6
Continuous
 62
     7
370
    18
100
AcDbCircle
 10
316.803786585
 20
113.433433103
 30
0.0
 40
1.249999999999947
  0
CIRCLE
  5
2D5
330
1F
100
AcDbEntity
  8
0
  6
Continuous
 62
     7
370
    18
100
AcDbCircle
 10
326.803786585
 20
113.433433103
 30
0.0
 40
3.00000000000002
  0
CIRCLE
  5
2D6
330
1F
100
AcDbEntity
  8
0
  6
Continuous
 62
     7
370
    18
100
AcDbCircle
 10
326.803786585
 20
113.433433103
 30
0.0
 40
1.25000000000001
  0
CIRCLE
  5
2D7
330
1F
100
AcDbEntity
  8
0
  6
Continuous
 62
     7
370
    18
100
AcDbCircle
 10
336.803786585
 20
113.433433103
 30
0.0
 40
3.000000000000079
  0
CIRCLE
  5
2D8
330
1F
100
AcDbEntity
  8
0
  6
Continuous
 62
     7
370
    18
100
AcDbCircle
 10
336.803786585
 20
113.433433103
 30
0.0
 40
1.25000000000001
  0
CIRCLE
  5
2D9
330
1F
100
AcDbEntity
  8
0
  6
Continuous
 62
     7
370
    18
100
AcDbCircle
 10
346.803786585
 20
113.433433103
 30
0.0
 40
3.00000000000002
  0
CIRCLE
  5
2DA
330
1F
100
AcDbEntity
  8
0
  6
Continuous
 62
     7
370
    18
100
AcDbCircle
 10
346.803786585
 20
113.433433103
 30
0.0
 40
1.250000000000064
  0
CIRCLE
  5
2DB
330
1F
100
AcDbEntity
  8
0
  6
Continuous
 62
     7
370
    18
100
AcDbCircle
 10
356.803786585
 20
113.433433103
 30
0.0
 40
2.999999999999966
  0
CIRCLE
  5
2DC
330
1F
100
AcDbEntity
  8
0
  6
Continuous
 62
     7
370
    18
100
AcDbCircle
 10
356.803786585
 20
113.433433103
 30
0.0
 40
1.25000000000001
  0
CIRCLE
  5
2DD
330
1F
100
AcDbEntity
  8
0
  6
Continuous
 62
     7
370
    18
100
AcDbCircle
 10
366.803786585
 20
113.433433103
 30
0.0
 40
2.999999999999966
  0
CIRCLE
  5
2DE
330
1F
100
AcDbEntity
  8
0
  6
Continuous
 62
     7
370
    18
100
AcDbCircle
 10
366.803786585
 20
113.433433103
 30
0.0
 40
1.25000000000001
  0
CIRCLE
  5
2DF
330
1F
100
AcDbEntity
  8
0
  6
Continuous
 62
     7
370
    18
100
AcDbCircle
 10
376.803786585
 20
113.433433103
 30
0.0
 40
3.00000000000002
  0
CIRCLE
  5
2E0
330
1F
100
AcDbEntity
  8
0
  6
Continuous
 62
     7
370
    18
100
AcDbCircle
 10
376.803786585
 20
113.433433103
 30
0.0
 40
1.25000000000001
  0
CIRCLE
  5
2E1
330
1F
100
AcDbEntity
  8
0
  6
Continuous
 62
     7
370
    18
100
AcDbCircle
 10
386.803786585
 20
113.433433103
 30
0.0
 40
3.00000000000002
  0
CIRCLE
  5
2E2
330
1F
100
AcDbEntity
  8
0
  6
Continuous
 62
     7
370
    18
100
AcDbCircle
 10
386.803786585
 20
113.433433103
 30
0.0
 40
1.249999999999947
  0
CIRCLE
  5
2E3
330
1F
100
AcDbEntity
  8
0
  6
Continuous
 62
     7
370
    18
100
AcDbCircle
 10
362.6009911167
 20
280.1517409859
 30
0.0
 40
1.249999999999935
  0
CIRCLE
  5
2E4
330
1F
100
AcDbEntity
  8
0
  6
Continuous
 62
     7
370
    18
100
AcDbCircle
 10
246.5234152581
 20
115.8333170078
 30
0.0
 40
1.250000000000033
  0
CIRCLE
  5
2E5
330
1F
100
AcDbEntity
  8
0
  6
Continuous
 62
     7
370
    18
100
AcDbCircle
 10
246.5234152581
 20
20.8333170078
 30
0.0
 40
1.249999999999974
  0
ARC
  5
2E6
330
1F
100
AcDbEntity
  8
0
  6
Continuous
 62
     7
370
    18
100
AcDbCircle
 10
246.5234152581
 20
115.8333170078
 30
0.0
 40
3.905124837953367
100
AcDbArc
 50
39.8055710923
 51
219.8055710923
  0
ARC
  5
2E7
330
1F
100
AcDbEntity
  8
0
  6
Continuous
 62
     7
370
    18
100
AcDbCircle
 10
246.5234152581
 20
20.8333170078
 30
0.0
 40
3.905124837953263
100
AcDbArc
 50
140.1944289077
 51
320.1944289077
  0
ENDSEC
  0
SECTION
  2
OBJECTS
  0
DICTIONARY
  5
C
330
0
100
AcDbDictionary
281
     1
  3
ACAD_GROUP
350
D
  3
ACAD_LAYOUT
350
1A
  3
ACAD_MLINESTYLE
350
17
  3
ACAD_PLOTSETTINGS
350
19
  3
ACAD_PLOTSTYLENAME
350
E
  3
ACAD_SCALELIST
350
47
  3
DWGPROPS
350
2E8
  0
DICTIONARY
  5
D
102
{ACAD_REACTORS
330
C
102
}
330
C
100
AcDbDictionary
281
     1
  0
DICTIONARY
  5
1A
102
{ACAD_REACTORS
330
C
102
}
330
C
100
AcDbDictionary
281
     1
  3
Layout1
350
1E
  3
Layout2
350
26
  3
Model
350
22
  0
DICTIONARY
  5
17
102
{ACAD_REACTORS
330
C
102
}
330
C
100
AcDbDictionary
281
     1
  3
Standard
350
18
  0
DICTIONARY
  5
19
102
{ACAD_REACTORS
330
C
102
}
330
C
100
AcDbDictionary
281
     1
  0
ACDBDICTIONARYWDFLT
  5
E
102
{ACAD_REACTORS
330
C
102
}
330
C
100
AcDbDictionary
281
     1
  3
Normal
350
F
100
AcDbDictionaryWithDefault
340
F
  0
DICTIONARY
  5
47
102
{ACAD_REACTORS
330
C
102
}
330
C
100
AcDbDictionary
281
     1
  3
A0
350
48
  3
A1
350
49
  3
A2
350
4A
  3
A3
350
4B
  3
A4
350
4C
  3
A5
350
4D
  3
A6
350
4E
  3
A7
350
4F
  3
A8
350
50
  3
A9
350
51
  3
B0
350
52
  3
B1
350
53
  3
B2
350
54
  3
B3
350
55
  3
B4
350
56
  3
B5
350
57
  3
B6
350
58
  3
B7
350
59
  3
B8
350
5A
  3
B9
350
5B
  3
C0
350
5C
  3
C1
350
5D
  3
C2
350
5E
  3
C3
350
5F
  3
C4
350
60
  3
C5
350
61
  3
C6
350
62
  3
C7
350
63
  3
C8
350
64
  3
C9
350
65
  3
D0
350
66
  3
D1
350
67
  3
D2
350
68
  0
XRECORD
  5
2E8
102
{ACAD_REACTORS
330
C
102
}
330
C
100
AcDbXrecord
280
     1
  1
DWGPROPS COOKIE
  2

  3

  4

  6

  7

  8
k1
  9

300
=
301
=
302
=
303
=
304
=
305
=
306
=
307
=
308
=
309
=
 40
0.0
 41
2460446.779116377
 42
2460446.779117025
  1

 90
        0
  0
LAYOUT
  5
1E
102
{ACAD_REACTORS
330
1A
102
}
330
1A
100
AcDbPlotSettings
  1

  2
none_device
  4

  6

 40
0.0
 41
0.0
 42
0.0
 43
0.0
 44
0.0
 45
0.0
 46
0.0
 47
0.0
 48
0.0
 49
0.0
140
0.0
141
0.0
142
1.0
143
1.0
 70
   688
 72
     1
 73
     0
 74
     5
  7

 75
    16
147
1.0
148
0.0
149
0.0
100
AcDbLayout
  1
Layout1
 70
     1
 71
     1
 10
0.0
 20
0.0
 11
420.0
 21
297.0
 12
0.0
 22
0.0
 32
0.0
 14
1.0000000000E+20
 24
1.0000000000E+20
 34
1.0000000000E+20
 15
-1.0000000000E+20
 25
-1.0000000000E+20
 35
-1.0000000000E+20
146
0.0
 13
0.0
 23
0.0
 33
0.0
 16
1.0
 26
0.0
 36
0.0
 17
0.0
 27
1.0
 37
0.0
 76
     0
330
1B
  0
LAYOUT
  5
26
102
{ACAD_REACTORS
330
1A
102
}
330
1A
100
AcDbPlotSettings
  1

  2
none_device
  4

  6

 40
0.0
 41
0.0
 42
0.0
 43
0.0
 44
0.0
 45
0.0
 46
0.0
 47
0.0
 48
0.0
 49
0.0
140
0.0
141
0.0
142
1.0
143
1.0
 70
   688
 72
     1
 73
     0
 74
     5
  7

 75
    16
147
1.0
148
0.0
149
0.0
100
AcDbLayout
  1
Layout2
 70
     1
 71
     2
 10
0.0
 20
0.0
 11
0.0
 21
0.0
 12
0.0
 22
0.0
 32
0.0
 14
0.0
 24
0.0
 34
0.0
 15
0.0
 25
0.0
 35
0.0
146
0.0
 13
0.0
 23
0.0
 33
0.0
 16
1.0
 26
0.0
 36
0.0
 17
0.0
 27
1.0
 37
0.0
 76
     0
330
23
  0
LAYOUT
  5
22
102
{ACAD_REACTORS
330
1A
102
}
330
1A
100
AcDbPlotSettings
  1

  2
none_device
  4
Letter_(8.50_x_11.00_Inches)
  6

 40
6.35
 41
6.35
 42
6.35000508
 43
6.35000508
 44
215.9
 45
279.4
 46
0.0
 47
0.0
 48
0.0
 49
0.0
140
0.0
141
0.0
142
1.0
143
1.0
 70
  1712
 72
     1
 73
     0
 74
     0
  7

 75
     0
147
1.0
148
0.0
149
0.0
100
AcDbLayout
  1
Model
 70
     1
 71
     0
 10
0.0
 20
0.0
 11
457.2
 21
304.8
 12
0.0
 22
0.0
 32
0.0
 14
0.0
 24
0.0
 34
0.0
 15
457.2
 25
304.8
 35
0.0
146
0.0
 13
0.0
 23
0.0
 33
0.0
 16
1.0
 26
0.0
 36
0.0
 17
0.0
 27
1.0
 37
0.0
 76
     0
330
1F
331
29
  0
MLINESTYLE
  5
18
102
{ACAD_REACTORS
330
17
102
}
330
17
100
AcDbMlineStyle
  2
Standard
 70
     0
  3

 62
   256
 51
90.0
 52
90.0
 71
     2
 49
0.5
 62
   256
  6
BYLAYER
 49
-0.5
 62
   256
  6
BYLAYER
  0
ACDBPLACEHOLDER
  5
F
102
{ACAD_REACTORS
330
E
102
}
330
E
  0
SCALE
  5
48
102
{ACAD_REACTORS
330
47
102
}
330
47
100
AcDbScale
 70
     0
300
1:1
140
1.0
141
1.0
290
     1
  0
SCALE
  5
49
102
{ACAD_REACTORS
330
47
102
}
330
47
100
AcDbScale
 70
     0
300
1:2
140
1.0
141
2.0
290
     0
  0
SCALE
  5
4A
102
{ACAD_REACTORS
330
47
102
}
330
47
100
AcDbScale
 70
     0
300
1:4
140
1.0
141
4.0
290
     0
  0
SCALE
  5
4B
102
{ACAD_REACTORS
330
47
102
}
330
47
100
AcDbScale
 70
     0
300
1:5
140
1.0
141
5.0
290
     0
  0
SCALE
  5
4C
102
{ACAD_REACTORS
330
47
102
}
330
47
100
AcDbScale
 70
     0
300
1:8
140
1.0
141
8.0
290
     0
  0
SCALE
  5
4D
102
{ACAD_REACTORS
330
47
102
}
330
47
100
AcDbScale
 70
     0
300
1:10
140
1.0
141
10.0
290
     0
  0
SCALE
  5
4E
102
{ACAD_REACTORS
330
47
102
}
330
47
100
AcDbScale
 70
     0
300
1:16
140
1.0
141
16.0
290
     0
  0
SCALE
  5
4F
102
{ACAD_REACTORS
330
47
102
}
330
47
100
AcDbScale
 70
     0
300
1:20
140
1.0
141
20.0
290
     0
  0
SCALE
  5
50
102
{ACAD_REACTORS
330
47
102
}
330
47
100
AcDbScale
 70
     0
300
1:30
140
1.0
141
30.0
290
     0
  0
SCALE
  5
51
102
{ACAD_REACTORS
330
47
102
}
330
47
100
AcDbScale
 70
     0
300
1:40
140
1.0
141
40.0
290
     0
  0
SCALE
  5
52
102
{ACAD_REACTORS
330
47
102
}
330
47
100
AcDbScale
 70
     0
300
1:50
140
1.0
141
50.0
290
     0
  0
SCALE
  5
53
102
{ACAD_REACTORS
330
47
102
}
330
47
100
AcDbScale
 70
     0
300
1:100
140
1.0
141
100.0
290
     0
  0
SCALE
  5
54
102
{ACAD_REACTORS
330
47
102
}
330
47
100
AcDbScale
 70
     0
300
2:1
140
2.0
141
1.0
290
     0
  0
SCALE
  5
55
102
{ACAD_REACTORS
330
47
102
}
330
47
100
AcDbScale
 70
     0
300
4:1
140
4.0
141
1.0
290
     0
  0
SCALE
  5
56
102
{ACAD_REACTORS
330
47
102
}
330
47
100
AcDbScale
 70
     0
300
8:1
140
8.0
141
1.0
290
     0
  0
SCALE
  5
57
102
{ACAD_REACTORS
330
47
102
}
330
47
100
AcDbScale
 70
     0
300
10:1
140
10.0
141
1.0
290
     0
  0
SCALE
  5
58
102
{ACAD_REACTORS
330
47
102
}
330
47
100
AcDbScale
 70
     0
300
100:1
140
100.0
141
1.0
290
     0
  0
SCALE
  5
59
102
{ACAD_REACTORS
330
47
102
}
330
47
100
AcDbScale
 70
     0
300
1/128" = 1'-0"
140
0.0078125
141
12.0
290
     0
  0
SCALE
  5
5A
102
{ACAD_REACTORS
330
47
102
}
330
47
100
AcDbScale
 70
     0
300
1/64" = 1'-0"
140
0.015625
141
12.0
290
     0
  0
SCALE
  5
5B
102
{ACAD_REACTORS
330
47
102
}
330
47
100
AcDbScale
 70
     0
300
1/32" = 1'-0"
140
0.03125
141
12.0
290
     0
  0
SCALE
  5
5C
102
{ACAD_REACTORS
330
47
102
}
330
47
100
AcDbScale
 70
     0
300
1/16" = 1'-0"
140
0.0625
141
12.0
290
     0
  0
SCALE
  5
5D
102
{ACAD_REACTORS
330
47
102
}
330
47
100
AcDbScale
 70
     0
300
3/32" = 1'-0"
140
0.09375
141
12.0
290
     0
  0
SCALE
  5
5E
102
{ACAD_REACTORS
330
47
102
}
330
47
100
AcDbScale
 70
     0
300
1/8" = 1'-0"
140
0.125
141
12.0
290
     0
  0
SCALE
  5
5F
102
{ACAD_REACTORS
330
47
102
}
330
47
100
AcDbScale
 70
     0
300
3/16" = 1'-0"
140
0.1875
141
12.0
290
     0
  0
SCALE
  5
60
102
{ACAD_REACTORS
330
47
102
}
330
47
100
AcDbScale
 70
     0
300
1/4" = 1'-0"
140
0.25
141
12.0
290
     0
  0
SCALE
  5
61
102
{ACAD_REACTORS
330
47
102
}
330
47
100
AcDbScale
 70
     0
300
3/8" = 1'-0"
140
0.375
141
12.0
290
     0
  0
SCALE
  5
62
102
{ACAD_REACTORS
330
47
102
}
330
47
100
AcDbScale
 70
     0
300
1/2" = 1'-0"
140
0.5
141
12.0
290
     0
  0
SCALE
  5
63
102
{ACAD_REACTORS
330
47
102
}
330
47
100
AcDbScale
 70
     0
300
3/4" = 1'-0"
140
0.75
141
12.0
290
     0
  0
SCALE
  5
64
102
{ACAD_REACTORS
330
47
102
}
330
47
100
AcDbScale
 70
     0
300
1" = 1'-0"
140
1.0
141
12.0
290
     0
  0
SCALE
  5
65
102
{ACAD_REACTORS
330
47
102
}
330
47
100
AcDbScale
 70
     0
300
1-1/2" = 1'-0"
140
1.5
141
12.0
290
     0
  0
SCALE
  5
66
102
{ACAD_REACTORS
330
47
102
}
330
47
100
AcDbScale
 70
     0
300
3" = 1'-0"
140
3.0
141
12.0
290
     0
  0
SCALE
  5
67
102
{ACAD_REACTORS
330
47
102
}
330
47
100
AcDbScale
 70
     0
300
6" = 1'-0"
140
6.0
141
12.0
290
     0
  0
SCALE
  5
68
102
{ACAD_REACTORS
330
47
102
}
330
47
100
AcDbScale
 70
     0
300
1'-0" = 1'-0"
140
12.0
141
12.0
290
     0
  0
ENDSEC
  0
EOF
